{
.appVersion = "116";
DisplayStrings = (
A
);
copyright = "Copyright © 2024 gbgk + The Inter Project Authors";
customParameters = (
{
name = license;
value = "OFL 1.1";
}
);
date = "2023-11-20 00:06:37 +0000";
designer = gbgk;
designerURL = "https://gbgk.me";
familyName = "Dag Round";
featurePrefixes = (
{
automatic = 1;
code = "languagesystem DFLT dflt;\012languagesystem latn dflt;\012languagesystem hebr dflt;\012languagesystem latn ROM;\012languagesystem latn MOL;\012languagesystem latn CAT;\012";
name = Languagesystems;
}
);
features = (
{
automatic = 1;
code = "feature locl;\012feature frac;\012feature ordn;\012feature smcp;\012";
name = aalt;
},
{
automatic = 1;
code = "script latn;\012language ROM;\012sub Scedilla by Scommaaccent;\012sub scedilla by scommaaccent;\012sub tcedilla by tcommaaccent;\012language MOL;\012sub Scedilla by Scommaaccent;\012sub scedilla by scommaaccent;\012sub tcedilla by tcommaaccent;\012language CAT;\012sub  l' periodcentered' l by ldot;\012sub  L' periodcentered' L by Ldot;\012";
name = locl;
},
{
automatic = 1;
code = "lookup FRAC {\012	sub slash by fraction;\012} FRAC;\012lookup UP {\012	sub [zero one two three four five six seven eight nine] by [zero.numr one.numr two.numr three.numr four.numr five.numr six.numr seven.numr eight.numr nine.numr];\012} UP;\012lookup DOWN {\012	sub fraction [zero.numr one.numr two.numr three.numr four.numr five.numr six.numr seven.numr eight.numr nine.numr]' by [zero.dnom one.dnom two.dnom three.dnom four.dnom five.dnom six.dnom seven.dnom eight.dnom nine.dnom];\012	sub [zero.dnom one.dnom two.dnom three.dnom four.dnom five.dnom six.dnom seven.dnom eight.dnom nine.dnom] [zero.numr one.numr two.numr three.numr four.numr five.numr six.numr seven.numr eight.numr nine.numr]' by [zero.dnom one.dnom two.dnom three.dnom four.dnom five.dnom six.dnom seven.dnom eight.dnom nine.dnom];\012} DOWN;\012";
name = frac;
},
{
automatic = 1;

glyphs = (
{
glyphname = A;
lastChange = "2024-07-06 18:41:23 +0000";
layers = (
{
layerId = "4A7900B8-4B55-405E-9DE7-28127A08AA09";
paths = (
{
closed = 1;
nodes = (
"151 0 LINE SMOOTH",
"219 0 OFFCURVE",
"262 31 OFFCURVE",
"285 95 CURVE SMOOTH",
"388 387 LINE",
"989 387 LINE",
"1088 96 LINE SMOOTH",
"1110 30 OFFCURVE",
"1153 0 OFFCURVE",
"1222 0 CURVE SMOOTH",
"1242 0 LINE SMOOTH",
"1315 0 OFFCURVE",
"1342 53 OFFCURVE",
"1313 135 CURVE SMOOTH",
"859 1395 LINE SMOOTH",
"836 1460 OFFCURVE",
"792 1490 OFFCURVE",
"724 1490 CURVE SMOOTH",
"658 1490 LINE SMOOTH",
"590 1490 OFFCURVE",
"546 1460 OFFCURVE",
"523 1396 CURVE SMOOTH",
"65 136 LINE SMOOTH",
"35 53 OFFCURVE",
"63 0 OFFCURVE",
"134 0 CURVE SMOOTH"
);
},
{
closed = 1;
nodes = (
"455 576 LINE",
"548 840 LINE SMOOTH",
"568.667 901.333 OFFCURVE",
"590.333 967 OFFCURVE",
"613 1037 CURVE SMOOTH",
"635.667 1107 OFFCURVE",
"662 1190.333 OFFCURVE",
"692 1287 CURVE",
"721.333 1190.333 OFFCURVE",
"747.333 1107 OFFCURVE",
"770 1037 CURVE SMOOTH",
"834 840 LINE",
"924 576 LINE"
);
}
);
userData = {
assembly = "NPUSHB[ ]	/* 41 values pushed */\01213 1 4 0 1 76 0 4 0 2 1 4 2 104 0 0 0 103 77 5 3 2 1 1 104 1 78 0 0 9 8 0 7 0 7 17 17 17 6 12 25 \012CALL[ ]	/* CallFunction */";
};
width = 1379;
}
);
leftKerningGroup = A;
note = A;
rightKerningGroup = A;
unicode = 0041;
},
{
glyphname = Astroke;
lastChange = "2024-07-06 18:41:23 +0000";
layers = (
{
layerId = "4A7900B8-4B55-405E-9DE7-28127A08AA09";
paths = (
{
closed = 1;
nodes = (
"986 1678 OFFCURVE",
"951 1647 OFFCURVE",
"929 1582 CURVE SMOOTH",
"862 1389 LINE",
"844 1440 LINE SMOOTH",
"832 1474 OFFCURVE",
"793 1490 OFFCURVE",
"725 1490 CURVE SMOOTH",
"658 1490 LINE SMOOTH",
"590 1490 OFFCURVE",
"546 1460 OFFCURVE",
"523 1396 CURVE SMOOTH",
"65 136 LINE SMOOTH",
"35 53 OFFCURVE",
"70 0 OFFCURVE",
"151 0 CURVE SMOOTH",
"219 0 OFFCURVE",
"262 31 OFFCURVE",
"285 95 CURVE SMOOTH",
"388 387 LINE",
"515 387 LINE",
"363 -55 LINE SMOOTH",
"335 -137 OFFCURVE",
"346 -190 OFFCURVE",
"391 -190 CURVE SMOOTH",
"442 -190 OFFCURVE",
"477 -159 OFFCURVE",
"499 -94 CURVE SMOOTH",
"665 387 LINE",
"989 387 LINE",
"1088 96 LINE SMOOTH",
"1110 30 OFFCURVE",
"1153 0 OFFCURVE",
"1222 0 CURVE SMOOTH",
"1242 0 LINE SMOOTH",
"1315 0 OFFCURVE",
"1342 53 OFFCURVE",
"1313 135 CURVE SMOOTH",
"939 1176 LINE",
"1066 1543 LINE SMOOTH",
"1094 1625 OFFCURVE",
"1082 1678 OFFCURVE",
"1037 1678 CURVE SMOOTH"
);
},
{
closed = 1;
nodes = (
"455 576 LINE",
"548 840 LINE SMOOTH",
"568.667 901.333 OFFCURVE",
"590.333 967 OFFCURVE",
"613 1037 CURVE SMOOTH",
"635.667 1107 OFFCURVE",
"662 1190.333 OFFCURVE",
"692 1287 CURVE",
"703.333 1248.333 OFFCURVE",
"714.333 1212 OFFCURVE",
"725 1178 CURVE SMOOTH",
"756 1082 LINE",
"581 576 LINE"
);
},
{
closed = 1;
nodes = (
"834 840 LINE",
"924 576 LINE",
"731 576 LINE",
"828 858 LINE"
);
}
);
userData = {
assembly = "NPUSHB[ ]	/* 67 values pushed */\01225 20 17 14 1 5 7 5 1 76 9 1 6 5 6 133 0 2 0 2 134 8 10 2 7 3 1 1 0 7 1 104 0 5 5 103 77 4 1 0 0 104 0 78 16 16 0 0 27 26 16 24 16 24 0 15 0 15 17 17 17 17 17 18 11 12 28 \012CALL[ ]	/* CallFunction */";
};
width = 1379;
}
);
leftKerningGroup = A;
note = uni023A;
rightKerningGroup = A;
unicode = 023A;
},
{
glyphname = AE;
lastChange = "2024-07-06 18:41:23 +0000";
layers = (
{
layerId = "4A7900B8-4B55-405E-9DE7-28127A08AA09";
paths = (
{
closed = 1;
nodes = (
"150 0 LINE SMOOTH",
"217 0 OFFCURVE",
"260 29 OFFCURVE",
"287 90 CURVE SMOOTH",
"430 417 LINE",
"947 417 LINE",
"947 118 LINE SMOOTH",
"947 42 OFFCURVE",
"989 0 OFFCURVE",
"1065 0 CURVE SMOOTH",
"1828 0 LINE SMOOTH",
"1904 0 OFFCURVE",
"1946 35 OFFCURVE",
"1946 98 CURVE SMOOTH",
"1946 161 OFFCURVE",
"1904 195 OFFCURVE",
"1828 195 CURVE SMOOTH",
"1166 195 LINE",
"1166 654 LINE",
"1770 654 LINE SMOOTH",
"1846 654 OFFCURVE",
"1888 688 OFFCURVE",
"1888 751 CURVE SMOOTH",
"1888 813 OFFCURVE",
"1846 847 OFFCURVE",
"1770 847 CURVE SMOOTH",
"1166 847 LINE",
"1166 1295 LINE",
"1828 1295 LINE SMOOTH",
"1904 1295 OFFCURVE",
"1946 1330 OFFCURVE",
"1946 1393 CURVE SMOOTH",
"1946 1456 OFFCURVE",
"1904 1490 OFFCURVE",
"1828 1490 CURVE SMOOTH",
"772 1490 LINE SMOOTH",
"705 1490 OFFCURVE",
"661 1463 OFFCURVE",
"634 1401 CURVE SMOOTH",
"77 138 LINE SMOOTH",
"41 55 OFFCURVE",
"63 0 OFFCURVE",
"132 0 CURVE SMOOTH"
);
},
{
closed = 1;
nodes = (
"510 603 LINE",
"810 1295 LINE",
"947 1295 LINE",
"947 603 LINE"
);
}
);
userData = {
assembly = "NPUSHB[ ]	/* 60 values pushed */\0120 2 0 3 8 2 3 103 0 8 0 6 4 8 6 103 9 1 1 1 0 95 0 0 0 103 77 0 4 4 5 95 10 7 2 5 5 104 5 78 0 0 19 18 17 16 0 15 0 15 17 17 17 17 17 17 17 11 12 29 \012CALL[ ]	/* CallFunction */";
};
width = 2014;
}
);
leftKerningGroup = A;
note = AE;
rightKerningGroup = AE;
unicode = 00C6;
},
{
glyphname = B;
lastChange = "2024-07-06 18:41:23 +0000";
layers = (
{
layerId = "4A7900B8-4B55-405E-9DE7-28127A08AA09";
paths = (
{
closed = 1;
nodes = (
"136 118 LINE SMOOTH",
"136 42 OFFCURVE",
"178 0 OFFCURVE",
"254 0 CURVE SMOOTH",
"710 0 LINE SMOOTH",
"886 0 OFFCURVE",
"1018.167 38.167 OFFCURVE",
"1106.5 114.5 CURVE SMOOTH",
"1194.833 190.833 OFFCURVE",
"1239 292.333 OFFCURVE",
"1239 419 CURVE SMOOTH",
"1239 525 OFFCURVE",
"1209.167 607.333 OFFCURVE",
"1149.5 666 CURVE SMOOTH",
"1089.833 724.667 OFFCURVE",
"1016.667 760 OFFCURVE",
"930 772 CURVE",
"930 774 LINE",
"1008 798 OFFCURVE",
"1069.167 836.667 OFFCURVE",
"1113.5 890 CURVE SMOOTH",
"1157.833 943.333 OFFCURVE",
"1180 1012.667 OFFCURVE",
"1180 1098 CURVE SMOOTH",
"1180 1217.333 OFFCURVE",
"1137.167 1312.5 OFFCURVE",
"1051.5 1383.5 CURVE SMOOTH",
"965.833 1454.5 OFFCURVE",
"846.333 1490 OFFCURVE",
"693 1490 CURVE SMOOTH",
"254 1490 LINE SMOOTH",
"178 1490 OFFCURVE",
"136 1448 OFFCURVE",
"136 1372 CURVE SMOOTH"
);
},
{
closed = 1;
nodes = (
"356 187 LINE",
"356 665 LINE",
"704 665 LINE SMOOTH",
"802.667 665 OFFCURVE",
"878.833 643 OFFCURVE",
"932.5 599 CURVE SMOOTH",
"986.167 555 OFFCURVE",
"1013 495.333 OFFCURVE",
"1013 420 CURVE SMOOTH",
"1013 344 OFFCURVE",
"985.5 286.167 OFFCURVE",
"930.5 246.5 CURVE SMOOTH",
"875.5 206.833 OFFCURVE",
"797.333 187 OFFCURVE",
"696 187 CURVE SMOOTH"
);
},
{
closed = 1;
nodes = (
"356 848 LINE",
"356 1303 LINE",
"690 1303 LINE SMOOTH",
"774.667 1303 OFFCURVE",
"840.833 1282.5 OFFCURVE",
"888.5 1241.5 CURVE SMOOTH",
"936.167 1200.5 OFFCURVE",
"960 1145 OFFCURVE",
"960 1075 CURVE SMOOTH",
"960 1005 OFFCURVE",
"936.167 949.667 OFFCURVE",
"888.5 909 CURVE SMOOTH",
"840.833 868.333 OFFCURVE",
"774.667 848 OFFCURVE",
"690 848 CURVE SMOOTH"
);
}
);
userData = {
assembly = "NPUSHB[ ]	/* 54 values pushed */\0128 1 3 4 1 76 0 4 0 3 2 4 3 103 0 5 5 0 95 0 0 0 103 77 0 2 2 1 95 6 1 1 1 104 1 78 0 0 33 31 27 25 24 22 18 16 0 15 0 14 33 7 12 23 \012CALL[ ]	/* CallFunction */";
};
width = 1311;
}
);
leftKerningGroup = B;
note = B;
rightKerningGroup = B;
unicode = 0042;
},
{
glyphname = Bhook;
lastChange = "2024-07-06 18:41:23 +0000";
layers = (
{
layerId = "4A7900B8-4B55-405E-9DE7-28127A08AA09";
paths = (
{
closed = 1;
nodes = (
"40 1162 LINE SMOOTH",
"40 1086 OFFCURVE",
"77 1044 OFFCURVE",
"144 1044 CURVE SMOOTH",
"211 1044 OFFCURVE",
"247 1086 OFFCURVE",
"247 1162 CURVE SMOOTH",
"247 1204 LINE SMOOTH",
"247 1236.667 OFFCURVE",
"255.5 1260.5 OFFCURVE",
"272.5 1275.5 CURVE SMOOTH",
"289.5 1290.5 OFFCURVE",
"317.333 1298 OFFCURVE",
"356 1298 CURVE SMOOTH",
"452 1298 LINE",
"452 118 LINE SMOOTH",
"452 42 OFFCURVE",
"494 0 OFFCURVE",
"570 0 CURVE SMOOTH",
"1026 0 LINE SMOOTH",
"1202 0 OFFCURVE",
"1334.167 38.167 OFFCURVE",
"1422.5 114.5 CURVE SMOOTH",
"1510.833 190.833 OFFCURVE",
"1555 292.333 OFFCURVE",
"1555 419 CURVE SMOOTH",
"1555 525 OFFCURVE",
"1525.167 607.333 OFFCURVE",
"1465.5 666 CURVE SMOOTH",
"1405.833 724.667 OFFCURVE",
"1332.667 760 OFFCURVE",
"1246 772 CURVE",
"1246 774 LINE",
"1324 798 OFFCURVE",
"1385.167 836.667 OFFCURVE",
"1429.5 890 CURVE SMOOTH",
"1473.833 943.333 OFFCURVE",
"1496 1012.667 OFFCURVE",
"1496 1098 CURVE SMOOTH",
"1496 1217.333 OFFCURVE",
"1453.167 1312.5 OFFCURVE",
"1367.5 1383.5 CURVE SMOOTH",
"1281.833 1454.5 OFFCURVE",
"1162.333 1490 OFFCURVE",
"1009 1490 CURVE SMOOTH",
"329 1490 LINE SMOOTH",
"136.333 1490 OFFCURVE",
"40 1399 OFFCURVE",
"40 1217 CURVE SMOOTH"
);
},
{
closed = 1;
nodes = (
"672 187 LINE",
"672 665 LINE",
"1020 665 LINE SMOOTH",
"1118.667 665 OFFCURVE",
"1194.833 643 OFFCURVE",
"1248.5 599 CURVE SMOOTH",
"1302.167 555 OFFCURVE",
"1329 495.333 OFFCURVE",
"1329 420 CURVE SMOOTH",
"1329 344 OFFCURVE",
"1301.5 286.167 OFFCURVE",
"1246.5 246.5 CURVE SMOOTH",
"1191.5 206.833 OFFCURVE",
"1113.333 187 OFFCURVE",
"1012 187 CURVE SMOOTH"
);
},
{
closed = 1;
nodes = (
"672 848 LINE",
"672 1303 LINE",
"1006 1303 LINE SMOOTH",
"1090.667 1303 OFFCURVE",
"1156.833 1282.5 OFFCURVE",
"1204.5 1241.5 CURVE SMOOTH",
"1252.167 1200.5 OFFCURVE",
"1276 1145 OFFCURVE",
"1276 1075 CURVE SMOOTH",
"1276 1005 OFFCURVE",
"1252.167 949.667 OFFCURVE",
"1204.5 909 CURVE SMOOTH",
"1156.833 868.333 OFFCURVE",
"1090.667 848 OFFCURVE",
"1006 848 CURVE SMOOTH"
);
}
);
userData = {
assembly = "PUSHB[ ]	/* 6 values pushed */\01210 1 5 6 1 76 \012MPPEM[ ]	/* MeasurePixelPerEm */\012PUSHB[ ]	/* 1 value pushed */\01210 \012LT[ ]	/* LessThan */\012IF[ ]	/* If */\012NPUSHB[ ]	/* 38 values pushed */\0128 1 3 2 6 2 3 114 0 6 0 5 4 6 5 103 7 1 2 2 0 95 0 0 0 103 77 0 4 4 1 95 0 1 1 104 1 78 \012ELSE[ ]	/* Else */\012NPUSHB[ ]	/* 39 values pushed */\0128 1 3 2 6 2 3 6 128 0 6 0 5 4 6 5 103 7 1 2 2 0 95 0 0 0 103 77 0 4 4 1 95 0 1 1 104 1 78 \012EIF[ ]	/* EndIf */\012NPUSHB[ ]	/* 20 values pushed */\0120 0 42 40 36 34 33 31 27 25 0 24 0 24 33 43 50 9 12 25 \012CALL[ ]	/* CallFunction */";
};
width = 1627;
}
);
leftKerningGroup = B;
note = uni0181;
rightKerningGroup = B;
unicode = 0181;
},
{
glyphname = Btopbar;
lastChange = "2024-07-06 18:41:23 +0000";
layers = (
{
layerId = "4A7900B8-4B55-405E-9DE7-28127A08AA09";
paths = (
{
closed = 1;
nodes = (
"136 118 LINE SMOOTH",
"136 42 OFFCURVE",
"178 0 OFFCURVE",
"254 0 CURVE SMOOTH",
"693 0 LINE SMOOTH",
"803.667 0 OFFCURVE",
"897.667 19 OFFCURVE",
"975 57 CURVE SMOOTH",
"1052.333 95 OFFCURVE",
"1111.333 148 OFFCURVE",
"1152 216 CURVE SMOOTH",
"1192.667 284 OFFCURVE",
"1213 362.333 OFFCURVE",
"1213 451 CURVE SMOOTH",
"1213 583.667 OFFCURVE",
"1167.667 689.5 OFFCURVE",
"1077 768.5 CURVE SMOOTH",
"986.333 847.5 OFFCURVE",
"858.333 887 OFFCURVE",
"693 887 CURVE SMOOTH",
"356 887 LINE",
"356 1300 LINE",
"944 1300 LINE SMOOTH",
"1020 1300 OFFCURVE",
"1062 1334 OFFCURVE",
"1062 1395 CURVE SMOOTH",
"1062 1456 OFFCURVE",
"1020 1490 OFFCURVE",
"944 1490 CURVE SMOOTH",
"254 1490 LINE SMOOTH",
"178 1490 OFFCURVE",
"136 1448 OFFCURVE",
"136 1372 CURVE SMOOTH"
);
},
{
closed = 1;
nodes = (
"356 187 LINE",
"356 700 LINE",
"693 700 LINE SMOOTH",
"790.333 700 OFFCURVE",
"864.833 675.833 OFFCURVE",
"916.5 627.5 CURVE SMOOTH",
"968.167 579.167 OFFCURVE",
"994 521 OFFCURVE",
"994 453 CURVE SMOOTH",
"994 407 OFFCURVE",
"982.5 363.667 OFFCURVE",
"959.5 323 CURVE SMOOTH",
"936.5 282.333 OFFCURVE",
"902.667 249.333 OFFCURVE",
"858 224 CURVE SMOOTH",
"813.333 198.667 OFFCURVE",
"758.333 186.333 OFFCURVE",
"693 187 CURVE SMOOTH"
);
}
);
userData = {
assembly = "NPUSHB[ ]	/* 46 values pushed */\0120 2 0 5 4 2 5 103 0 1 1 0 95 0 0 0 103 77 0 4 4 3 95 6 1 3 3 104 3 78 0 0 23 21 16 14 0 13 0 12 33 17 17 7 12 25 \012CALL[ ]	/* CallFunction */";
};
width = 1280;
}
);
note = uni0182;
unicode = 0182;
},
{
glyphname = C;
lastChange = "2024-07-06 18:41:23 +0000";
layers = (
{
layerId = "4A7900B8-4B55-405E-9DE7-28127A08AA09";
paths = (
{
closed = 1;
nodes = (
"884.667 -24 OFFCURVE",
"983.167 -2.833 OFFCURVE",
"1071.5 39.5 CURVE SMOOTH",
"1159.833 81.833 OFFCURVE",
"1233 141.833 OFFCURVE",
"1291 219.5 CURVE SMOOTH",
"1323 263 OFFCURVE",
"1349 310 OFFCURVE",
"1369 362 CURVE SMOOTH",
"1399 442 OFFCURVE",
"1357 494 OFFCURVE",
"1281 494 CURVE SMOOTH",
"1212 494 OFFCURVE",
"1176 461 OFFCURVE",
"1146 398 CURVE SMOOTH",
"1120 342 OFFCURVE",
"1083 297 OFFCURVE",
"1036.5 261 CURVE SMOOTH",
"964.833 206.333 OFFCURVE",
"878.667 179 OFFCURVE",
"778 179 CURVE SMOOTH",
"680 179 OFFCURVE",
"595.5 202.667 OFFCURVE",
"524.5 250 CURVE SMOOTH",
"453.5 297.333 OFFCURVE",
"399 363.333 OFFCURVE",
"361 448 CURVE SMOOTH",
"323 532.667 OFFCURVE",
"304 631.333 OFFCURVE",
"304 744 CURVE SMOOTH",
"304 856.667 OFFCURVE",
"323.167 955.667 OFFCURVE",
"361.5 1041 CURVE SMOOTH",
"399.833 1126.333 OFFCURVE",
"454.333 1192.667 OFFCURVE",
"525 1240 CURVE SMOOTH",
"595.667 1287.333 OFFCURVE",
"680 1311 OFFCURVE",
"778 1311 CURVE SMOOTH",
"879.333 1311 OFFCURVE",
"965.833 1283.5 OFFCURVE",
"1037.5 1228.5 CURVE SMOOTH",
"1084 1193 OFFCURVE",
"1120 1147 OFFCURVE",
"1146 1091 CURVE SMOOTH",
"1175 1027 OFFCURVE",
"1211 994 OFFCURVE",
"1280 994 CURVE SMOOTH",
"1291 994 LINE SMOOTH",
"1361 994 OFFCURVE",
"1399 1046 OFFCURVE",
"1369 1126 CURVE SMOOTH",
"1350 1178 OFFCURVE",
"1323 1226 OFFCURVE",
"1291 1269.5 CURVE SMOOTH",
"1233 1347.167 OFFCURVE",
"1159.833 1407.333 OFFCURVE",
"1071.5 1450 CURVE SMOOTH",
"983.167 1492.667 OFFCURVE",
"884.667 1514 OFFCURVE",
"776 1514 CURVE SMOOTH",
"638.667 1514 OFFCURVE",
"517.833 1481.667 OFFCURVE",
"413.5 1417 CURVE SMOOTH",
"309.167 1352.333 OFFCURVE",
"227.667 1262.333 OFFCURVE",
"169 1147 CURVE SMOOTH",
"110.333 1031.667 OFFCURVE",
"81 897.333 OFFCURVE",
"81 744 CURVE SMOOTH",
"81 592 OFFCURVE",
"110.333 458.333 OFFCURVE",
"169 343 CURVE SMOOTH",
"227.667 227.667 OFFCURVE",
"309.333 137.667 OFFCURVE",
"414 73 CURVE SMOOTH",
"518.667 8.333 OFFCURVE",
"639.333 -24 OFFCURVE",
"776 -24 CURVE SMOOTH"
);
}
);
userData = {
assembly = "MPPEM[ ]	/* MeasurePixelPerEm */\012PUSHB[ ]	/* 1 value pushed */\01250 \012LT[ ]	/* LessThan */\012IF[ ]	/* If */\012NPUSHB[ ]	/* 37 values pushed */\0120 2 3 5 3 2 5 128 0 5 4 3 5 4 126 0 3 3 1 97 0 1 1 109 77 0 4 4 0 97 6 1 0 0 110 0 78 \012ELSE[ ]	/* Else */\012NPUSHB[ ]	/* 35 values pushed */\0120 2 3 5 3 2 5 128 0 5 4 3 5 4 126 0 1 0 3 2 1 3 105 0 4 4 0 97 6 1 0 0 110 0 78 \012EIF[ ]	/* EndIf */\012NPUSHB[ ]	/* 19 values pushed */\0121 0 28 27 25 23 17 15 13 12 9 7 0 31 1 31 7 12 22 \012CALL[ ]	/* CallFunction */";
};
width = 1482;
}
);
leftKerningGroup = C;
note = C;
rightKerningGroup = C;
unicode = 0043;
},
{
glyphname = Chook;
lastChange = "2024-07-06 18:41:23 +0000";
layers = (
{
layerId = "4A7900B8-4B55-405E-9DE7-28127A08AA09";
paths = (
{
closed = 1;
nodes = (
"884.667 -24 OFFCURVE",
"983.167 -2.833 OFFCURVE",
"1071.5 39.5 CURVE SMOOTH",
"1159.833 81.833 OFFCURVE",
"1233 141.833 OFFCURVE",
"1291 219.5 CURVE SMOOTH",
"1323 263 OFFCURVE",
"1349 310 OFFCURVE",
"1369 362 CURVE SMOOTH",
"1399 442 OFFCURVE",
"1357 494 OFFCURVE",
"1281 494 CURVE SMOOTH",
"1212 494 OFFCURVE",
"1176 461 OFFCURVE",
"1146 398 CURVE SMOOTH",
"1120 342 OFFCURVE",
"1083 297 OFFCURVE",
"1036.5 261 CURVE SMOOTH",
"964.833 206.333 OFFCURVE",
"878.667 179 OFFCURVE",
"778 179 CURVE SMOOTH",
"680 179 OFFCURVE",
"595.5 202.667 OFFCURVE",
"524.5 250 CURVE SMOOTH",
"453.5 297.333 OFFCURVE",
"399 363.333 OFFCURVE",
"361 448 CURVE SMOOTH",
"323 532.667 OFFCURVE",
"304 631.333 OFFCURVE",
"304 744 CURVE SMOOTH",
"304 856.667 OFFCURVE",
"323.167 955.667 OFFCURVE",
"361.5 1041 CURVE SMOOTH",
"399.833 1126.333 OFFCURVE",
"454.333 1192.667 OFFCURVE",
"525 1240 CURVE SMOOTH",
"595.667 1287.333 OFFCURVE",
"680 1311 OFFCURVE",
"778 1311 CURVE SMOOTH",
"879.333 1311 OFFCURVE",
"965.833 1283.5 OFFCURVE",
"1037.5 1228.5 CURVE SMOOTH",
"1084 1193 OFFCURVE",
"1120 1147 OFFCURVE",
"1146 1091 CURVE SMOOTH",
"1175 1027 OFFCURVE",
"1211 994 OFFCURVE",
"1280 994 CURVE SMOOTH",
"1291 994 LINE SMOOTH",
"1364 994 OFFCURVE",
"1404 1036 OFFCURVE",
"1404 1112 CURVE SMOOTH",
"1404 1400 LINE SMOOTH",
"1404 1434.667 OFFCURVE",
"1412.833 1459.667 OFFCURVE",
"1430.5 1475 CURVE SMOOTH",
"1448.167 1490.333 OFFCURVE",
"1477 1498 OFFCURVE",
"1517 1498 CURVE SMOOTH",
"1586 1498 OFFCURVE",
"1623 1530 OFFCURVE",
"1623 1587 CURVE SMOOTH",
"1623 1644 OFFCURVE",
"1581 1676 OFFCURVE",
"1505 1676 CURVE SMOOTH",
"1502 1676 LINE SMOOTH",
"1298.667 1676 OFFCURVE",
"1197 1585.333 OFFCURVE",
"1197 1404 CURVE SMOOTH",
"1197 1370 LINE",
"1141.667 1416 OFFCURVE",
"1078.333 1451.5 OFFCURVE",
"1007 1476.5 CURVE SMOOTH",
"935.667 1501.5 OFFCURVE",
"858.667 1514 OFFCURVE",
"776 1514 CURVE SMOOTH",
"638.667 1514 OFFCURVE",
"517.833 1481.667 OFFCURVE",
"413.5 1417 CURVE SMOOTH",
"309.167 1352.333 OFFCURVE",
"227.667 1262.333 OFFCURVE",
"169 1147 CURVE SMOOTH",
"110.333 1031.667 OFFCURVE",
"81 897.333 OFFCURVE",
"81 744 CURVE SMOOTH",
"81 592 OFFCURVE",
"110.333 458.333 OFFCURVE",
"169 343 CURVE SMOOTH",
"227.667 227.667 OFFCURVE",
"309.333 137.667 OFFCURVE",
"414 73 CURVE SMOOTH",
"518.667 8.333 OFFCURVE",
"639.333 -24 OFFCURVE",
"776 -24 CURVE SMOOTH"
);
}
);
userData = {
assembly = "PUSHB[ ]	/* 6 values pushed */\01211 1 5 3 1 76 \012MPPEM[ ]	/* MeasurePixelPerEm */\012PUSHB[ ]	/* 1 value pushed */\01250 \012LT[ ]	/* LessThan */\012IF[ ]	/* If */\012NPUSHB[ ]	/* 45 values pushed */\0120 4 5 7 5 4 7 128 0 7 6 5 7 6 126 0 2 0 3 5 2 3 105 0 5 5 1 97 0 1 1 109 77 0 6 6 0 97 8 1 0 0 110 0 78 \012ELSE[ ]	/* Else */\012NPUSHB[ ]	/* 43 values pushed */\0120 4 5 7 5 4 7 128 0 7 6 5 7 6 126 0 2 0 3 5 2 3 105 0 1 0 5 4 1 5 105 0 6 6 0 97 8 1 0 0 110 0 78 \012EIF[ ]	/* EndIf */\012NPUSHB[ ]	/* 23 values pushed */\0121 0 37 36 34 32 26 24 22 21 18 16 15 13 9 7 0 40 1 40 9 12 22 \012CALL[ ]	/* CallFunction */";
};
width = 1482;
}
);
leftKerningGroup = C;
note = uni0187;
rightKerningGroup = C;
unicode = 0187;
},
{
glyphname = Cstroke;
lastChange = "2024-07-06 18:41:23 +0000";
layers = (
{
layerId = "4A7900B8-4B55-405E-9DE7-28127A08AA09";
paths = (
{
closed = 1;
nodes = (
"466 -190 OFFCURVE",
"505 -159 OFFCURVE",
"527 -94 CURVE SMOOTH",
"562 7 LINE",
"629.333 -13.667 OFFCURVE",
"700.667 -24 OFFCURVE",
"776 -24 CURVE SMOOTH",
"884.667 -24 OFFCURVE",
"983.167 -2.833 OFFCURVE",
"1071.5 39.5 CURVE SMOOTH",
"1159.833 81.833 OFFCURVE",
"1233 141.833 OFFCURVE",
"1291 219.5 CURVE SMOOTH",
"1323 263 OFFCURVE",
"1349 310 OFFCURVE",
"1369 362 CURVE SMOOTH",
"1399 442 OFFCURVE",
"1357 494 OFFCURVE",
"1281 494 CURVE SMOOTH",
"1212 494 OFFCURVE",
"1176 461 OFFCURVE",
"1146 398 CURVE SMOOTH",
"1120 342 OFFCURVE",
"1083 297 OFFCURVE",
"1036.5 261 CURVE SMOOTH",
"964.833 206.333 OFFCURVE",
"878.667 179 OFFCURVE",
"778 179 CURVE SMOOTH",
"724.667 179 OFFCURVE",
"675 186.333 OFFCURVE",
"629 201 CURVE",
"994 1258 LINE",
"1040 1232 OFFCURVE",
"1078.833 1196.667 OFFCURVE",
"1110.5 1152 CURVE SMOOTH",
"1127 1129 OFFCURVE",
"1141 1104 OFFCURVE",
"1152 1077 CURVE SMOOTH",
"1175 1022 OFFCURVE",
"1211 994 OFFCURVE",
"1280 994 CURVE SMOOTH",
"1291 994 LINE SMOOTH",
"1361 994 OFFCURVE",
"1399 1046 OFFCURVE",
"1369 1126 CURVE SMOOTH",
"1349 1180 OFFCURVE",
"1321 1230 OFFCURVE",
"1287 1274.5 CURVE SMOOTH",
"1226.333 1353.5 OFFCURVE",
"1151.333 1413.667 OFFCURVE",
"1062 1455 CURVE",
"1101 1567 LINE SMOOTH",
"1124 1635 OFFCURVE",
"1105 1678 OFFCURVE",
"1052 1678 CURVE SMOOTH",
"993 1678 OFFCURVE",
"954 1648 OFFCURVE",
"932 1582 CURVE SMOOTH",
"905 1503 LINE",
"863 1510.333 OFFCURVE",
"820 1514 OFFCURVE",
"776 1514 CURVE SMOOTH",
"638.667 1514 OFFCURVE",
"517.833 1481.667 OFFCURVE",
"413.5 1417 CURVE SMOOTH",
"309.167 1352.333 OFFCURVE",
"227.667 1262.333 OFFCURVE",
"169 1147 CURVE SMOOTH",
"110.333 1031.667 OFFCURVE",
"81 897.333 OFFCURVE",
"81 744 CURVE SMOOTH",
"81 592 OFFCURVE",
"110.5 458.167 OFFCURVE",
"169.5 342.5 CURVE SMOOTH",
"228.5 226.833 OFFCURVE",
"309.333 137.667 OFFCURVE",
"412 75 CURVE",
"367 -58 LINE SMOOTH",
"339 -138 OFFCURVE",
"356 -190 OFFCURVE",
"408 -190 CURVE SMOOTH"
);
},
{
closed = 1;
nodes = (
"425.667 330.333 OFFCURVE",
"381.5 394.667 OFFCURVE",
"350.5 474 CURVE SMOOTH",
"319.5 553.333 OFFCURVE",
"304 643.333 OFFCURVE",
"304 744 CURVE SMOOTH",
"304 856.667 OFFCURVE",
"323.167 955.667 OFFCURVE",
"361.5 1041 CURVE SMOOTH",
"399.833 1126.333 OFFCURVE",
"454.333 1192.667 OFFCURVE",
"525 1240 CURVE SMOOTH",
"595.667 1287.333 OFFCURVE",
"680 1311 OFFCURVE",
"778 1311 CURVE SMOOTH",
"798 1311 OFFCURVE",
"817.667 1310 OFFCURVE",
"837 1308 CURVE",
"483 281 LINE"
);
}
);
userData = {
assembly = "NPUSHB[ ]	/* 20 values pushed */\01213 10 2 7 0 20 1 2 7 21 1 3 4 33 1 2 5 3 4 76 \012MPPEM[ ]	/* MeasurePixelPerEm */\012PUSHB[ ]	/* 1 value pushed */\01250 \012LT[ ]	/* LessThan */\012IF[ ]	/* If */\012NPUSHB[ ]	/* 47 values pushed */\0120 1 0 1 133 0 2 7 4 7 2 4 128 0 4 3 7 4 3 126 8 1 6 5 6 134 0 7 7 0 97 0 0 0 109 77 0 3 3 5 97 0 5 5 110 5 78 \012ELSE[ ]	/* Else */\012NPUSHB[ ]	/* 45 values pushed */\0120 1 0 1 133 0 2 7 4 7 2 4 128 0 4 3 7 4 3 126 8 1 6 5 6 134 0 0 0 7 2 0 7 105 0 3 3 5 97 0 5 5 110 5 78 \012EIF[ ]	/* EndIf */\012NPUSHB[ ]	/* 17 values pushed */\0120 0 39 37 0 34 0 34 35 18 37 20 18 39 9 12 28 \012CALL[ ]	/* CallFunction */";
};
width = 1482;
}
);
leftKerningGroup = C;
note = uni023B;
rightKerningGroup = C;
unicode = 023B;
},
{
glyphname = D;
lastChange = "2024-07-06 18:41:23 +0000";
layers = (
{
layerId = "4A7900B8-4B55-405E-9DE7-28127A08AA09";
paths = (
{
closed = 1;
nodes = (
"769.333 0 OFFCURVE",
"898.833 30.167 OFFCURVE",
"1006.5 90.5 CURVE SMOOTH",
"1114.167 150.833 OFFCURVE",
"1196.5 236.833 OFFCURVE",
"1253.5 348.5 CURVE SMOOTH",
"1310.5 460.167 OFFCURVE",
"1339 593 OFFCURVE",
"1339 747 CURVE SMOOTH",
"1339 900.333 OFFCURVE",
"1310.667 1032.5 OFFCURVE",
"1254 1143.5 CURVE SMOOTH",
"1197.333 1254.5 OFFCURVE",
"1116.167 1340 OFFCURVE",
"1010.5 1400 CURVE SMOOTH",
"904.833 1460 OFFCURVE",
"779 1490 OFFCURVE",
"633 1490 CURVE SMOOTH",
"254 1490 LINE SMOOTH",
"178 1490 OFFCURVE",
"136 1448 OFFCURVE",
"136 1372 CURVE SMOOTH",
"136 118 LINE SMOOTH",
"136 42 OFFCURVE",
"178 0 OFFCURVE",
"254 0 CURVE SMOOTH",
"618 0 LINE SMOOTH"
);
},
{
closed = 1;
nodes = (
"358 193 LINE",
"358 1297 LINE",
"619 1297 LINE SMOOTH",
"785 1297 OFFCURVE",
"909.333 1248.5 OFFCURVE",
"992 1151.5 CURVE SMOOTH",
"1074.667 1054.5 OFFCURVE",
"1116 919.667 OFFCURVE",
"1116 747 CURVE SMOOTH",
"1116 573.667 OFFCURVE",
"1074.167 438 OFFCURVE",
"990.5 340 CURVE SMOOTH",
"906.833 242 OFFCURVE",
"778 193 OFFCURVE",
"604 193 CURVE SMOOTH"
);
}
);
userData = {
assembly = "NPUSHB[ ]	/* 37 values pushed */\0120 3 3 1 95 0 1 1 103 77 0 2 2 0 95 4 1 0 0 104 0 78 1 0 19 17 13 11 4 2 0 10 1 10 5 12 22 \012CALL[ ]	/* CallFunction */";
};
width = 1420;
}
);
leftKerningGroup = B;
note = D;
rightKerningGroup = Oopen;
unicode = 0044;
},
{
glyphname = Dhook;
lastChange = "2024-07-06 18:41:23 +0000";
layers = (
{
layerId = "4A7900B8-4B55-405E-9DE7-28127A08AA09";
paths = (
{
closed = 1;
nodes = (
"40 1162 LINE SMOOTH",
"40 1086 OFFCURVE",
"77 1044 OFFCURVE",
"144 1044 CURVE SMOOTH",
"211 1044 OFFCURVE",
"247 1086 OFFCURVE",
"247 1162 CURVE SMOOTH",
"247 1204 LINE SMOOTH",
"247 1236.667 OFFCURVE",
"255.5 1260.5 OFFCURVE",
"272.5 1275.5 CURVE SMOOTH",
"289.5 1290.5 OFFCURVE",
"317.333 1298 OFFCURVE",
"356 1298 CURVE SMOOTH",
"452 1298 LINE",
"452 118 LINE SMOOTH",
"452 42 OFFCURVE",
"494 0 OFFCURVE",
"570 0 CURVE SMOOTH",
"934 0 LINE SMOOTH",
"1085.333 0 OFFCURVE",
"1214.833 30.167 OFFCURVE",
"1322.5 90.5 CURVE SMOOTH",
"1430.167 150.833 OFFCURVE",
"1512.5 236.833 OFFCURVE",
"1569.5 348.5 CURVE SMOOTH",
"1626.5 460.167 OFFCURVE",
"1655 593 OFFCURVE",
"1655 747 CURVE SMOOTH",
"1655 900.333 OFFCURVE",
"1626.667 1032.5 OFFCURVE",
"1570 1143.5 CURVE SMOOTH",
"1513.333 1254.5 OFFCURVE",
"1432.167 1340 OFFCURVE",
"1326.5 1400 CURVE SMOOTH",
"1220.833 1460 OFFCURVE",
"1095 1490 OFFCURVE",
"949 1490 CURVE SMOOTH",
"329 1490 LINE SMOOTH",
"136.333 1490 OFFCURVE",
"40 1399 OFFCURVE",
"40 1217 CURVE SMOOTH"
);
},
{
closed = 1;
nodes = (
"674 193 LINE",
"674 1297 LINE",
"935 1297 LINE SMOOTH",
"1101 1297 OFFCURVE",
"1225.333 1248.5 OFFCURVE",
"1308 1151.5 CURVE SMOOTH",
"1390.667 1054.5 OFFCURVE",
"1432 919.667 OFFCURVE",
"1432 747 CURVE SMOOTH",
"1432 573.667 OFFCURVE",
"1390.167 438 OFFCURVE",
"1306.5 340 CURVE SMOOTH",
"1222.833 242 OFFCURVE",
"1094 193 OFFCURVE",
"920 193 CURVE SMOOTH"
);
}
);
userData = {
assembly = "MPPEM[ ]	/* MeasurePixelPerEm */\012PUSHB[ ]	/* 1 value pushed */\01210 \012LT[ ]	/* LessThan */\012IF[ ]	/* If */\012NPUSHB[ ]	/* 30 values pushed */\0126 1 3 2 4 2 3 114 5 1 2 2 0 95 0 0 0 103 77 0 4 4 1 95 0 1 1 104 1 78 \012ELSE[ ]	/* Else */\012NPUSHB[ ]	/* 31 values pushed */\0126 1 3 2 4 2 3 4 128 5 1 2 2 0 95 0 0 0 103 77 0 4 4 1 95 0 1 1 104 1 78 \012EIF[ ]	/* EndIf */\012NPUSHB[ ]	/* 16 values pushed */\0120 0 28 26 22 20 0 19 0 19 33 38 50 7 12 25 \012CALL[ ]	/* CallFunction */";
};
width = 1736;
}
);
leftKerningGroup = B;
note = uni018A;
rightKerningGroup = Oopen;
unicode = 018A;
},
{
glyphname = Dtopbar;
lastChange = "2024-07-06 18:41:23 +0000";
layers = (
{
layerId = "4A7900B8-4B55-405E-9DE7-28127A08AA09";
paths = (
{
closed = 1;
nodes = (
"1049 0 LINE SMOOTH",
"1125 0 OFFCURVE",
"1167 42 OFFCURVE",
"1167 118 CURVE SMOOTH",
"1167 1348 LINE SMOOTH",
"1167 1424 OFFCURVE",
"1125 1466 OFFCURVE",
"1049 1466 CURVE SMOOTH",
"362 1466 LINE SMOOTH",
"286 1466 OFFCURVE",
"244 1431 OFFCURVE",
"244 1368 CURVE SMOOTH",
"244 1304 OFFCURVE",
"286 1269 OFFCURVE",
"362 1269 CURVE SMOOTH",
"928 1269 LINE",
"928 892 LINE",
"611 892 LINE SMOOTH",
"446.333 892 OFFCURVE",
"318.667 851.5 OFFCURVE",
"228 770.5 CURVE SMOOTH",
"137.333 689.5 OFFCURVE",
"92 583 OFFCURVE",
"92 451 CURVE SMOOTH",
"92 362.333 OFFCURVE",
"112.333 284.167 OFFCURVE",
"153 216.5 CURVE SMOOTH",
"193.667 148.833 OFFCURVE",
"252.667 95.833 OFFCURVE",
"330 57.5 CURVE SMOOTH",
"407.333 19.167 OFFCURVE",
"501 0 OFFCURVE",
"611 0 CURVE SMOOTH"
);
},
{
closed = 1;
nodes = (
"928 192 LINE",
"611 192 LINE SMOOTH",
"545.667 192 OFFCURVE",
"492.5 204.167 OFFCURVE",
"451.5 228.5 CURVE SMOOTH",
"410.5 252.833 OFFCURVE",
"380.333 284.833 OFFCURVE",
"361 324.5 CURVE SMOOTH",
"341.667 364.167 OFFCURVE",
"332 407 OFFCURVE",
"332 453 CURVE SMOOTH",
"332 521 OFFCURVE",
"354 578.833 OFFCURVE",
"398 626.5 CURVE SMOOTH",
"442 674.167 OFFCURVE",
"513 698 OFFCURVE",
"611 698 CURVE SMOOTH",
"928 698 LINE"
);
}
);
userData = {
assembly = "MPPEM[ ]	/* MeasurePixelPerEm */\012PUSHB[ ]	/* 1 value pushed */\01243 \012LT[ ]	/* LessThan */\012IF[ ]	/* If */\012NPUSHB[ ]	/* 30 values pushed */\0120 1 0 4 5 1 4 103 0 2 2 3 95 0 3 3 103 77 6 1 5 5 0 95 0 0 0 104 0 78 \012ELSE[ ]	/* Else */\012NPUSHB[ ]	/* 28 values pushed */\0120 3 0 2 1 3 2 103 0 1 0 4 5 1 4 103 6 1 5 5 0 95 0 0 0 104 0 78 \012EIF[ ]	/* EndIf */\012NPUSHB[ ]	/* 14 values pushed */\01214 14 14 23 14 22 34 17 17 37 32 7 12 27 \012CALL[ ]	/* CallFunction */";
};
width = 1258;
}
);
note = uni018B;
unicode = 018B;
},
{
glyphname = E;
lastChange = "2024-07-06 18:41:23 +0000";
layers = (
{
layerId = "4A7900B8-4B55-405E-9DE7-28127A08AA09";
paths = (
{
closed = 1;
nodes = (
"136 118 LINE SMOOTH",
"136 42 OFFCURVE",
"178 0 OFFCURVE",
"254 0 CURVE SMOOTH",
"1020 0 LINE SMOOTH",
"1096 0 OFFCURVE",
"1138 35 OFFCURVE",
"1138 98 CURVE SMOOTH",
"1138 161 OFFCURVE",
"1096 195 OFFCURVE",
"1020 195 CURVE SMOOTH",
"358 195 LINE",
"358 663 LINE",
"962 663 LINE SMOOTH",
"1038 663 OFFCURVE",
"1080 697 OFFCURVE",
"1080 760 CURVE SMOOTH",
"1080 822 OFFCURVE",
"1038 856 OFFCURVE",
"962 856 CURVE SMOOTH",
"358 856 LINE",
"358 1295 LINE",
"1020 1295 LINE SMOOTH",
"1096 1295 OFFCURVE",
"1138 1330 OFFCURVE",
"1138 1393 CURVE SMOOTH",
"1138 1456 OFFCURVE",
"1096 1490 OFFCURVE",
"1020 1490 CURVE SMOOTH",
"254 1490 LINE SMOOTH",
"178 1490 OFFCURVE",
"136 1448 OFFCURVE",
"136 1372 CURVE SMOOTH"
);
}
);
userData = {
assembly = "NPUSHB[ ]	/* 44 values pushed */\0120 2 0 3 4 2 3 103 0 1 1 0 95 0 0 0 103 77 0 4 4 5 95 6 1 5 5 104 5 78 0 0 0 11 0 11 17 17 17 17 17 7 12 27 \012CALL[ ]	/* CallFunction */";
};
width = 1206;
}
);
leftKerningGroup = B;
note = E;
rightKerningGroup = AE;
unicode = 0045;
},
{
glyphname = Eopen;
lastChange = "2024-07-06 18:41:23 +0000";
layers = (
{
layerId = "4A7900B8-4B55-405E-9DE7-28127A08AA09";
paths = (
{
closed = 1;
nodes = (
"724 -24 OFFCURVE",
"819.333 -2.333 OFFCURVE",
"900 41 CURVE SMOOTH",
"980.667 84.333 OFFCURVE",
"1043 143.667 OFFCURVE",
"1087 219 CURVE SMOOTH",
"1111 260 OFFCURVE",
"1129 305 OFFCURVE",
"1140 352 CURVE SMOOTH",
"1157 430 OFFCURVE",
"1113 476 OFFCURVE",
"1043 476 CURVE SMOOTH",
"970 476 OFFCURVE",
"939 438 OFFCURVE",
"919 366 CURVE SMOOTH",
"906 318 OFFCURVE",
"883 277 OFFCURVE",
"850 244 CURVE SMOOTH",
"794.667 188.667 OFFCURVE",
"717.333 161 OFFCURVE",
"618 161 CURVE SMOOTH",
"523.333 161 OFFCURVE",
"446.5 185 OFFCURVE",
"387.5 233 CURVE SMOOTH",
"328.5 281 OFFCURVE",
"299 345.333 OFFCURVE",
"299 426 CURVE SMOOTH",
"299 500 OFFCURVE",
"330.667 559.5 OFFCURVE",
"394 604.5 CURVE SMOOTH",
"457.333 649.5 OFFCURVE",
"540 672 OFFCURVE",
"642 672 CURVE SMOOTH",
"649 672 LINE SMOOTH",
"725 672 OFFCURVE",
"767 704 OFFCURVE",
"767 763 CURVE SMOOTH",
"767 821 OFFCURVE",
"725 853 OFFCURVE",
"649 853 CURVE SMOOTH",
"642 853 LINE SMOOTH",
"551.333 853 OFFCURVE",
"478.333 873.667 OFFCURVE",
"423 915 CURVE SMOOTH",
"367.667 956.333 OFFCURVE",
"340 1011.333 OFFCURVE",
"340 1080 CURVE SMOOTH",
"340 1157.333 OFFCURVE",
"365.833 1218.333 OFFCURVE",
"417.5 1263 CURVE SMOOTH",
"469.167 1307.667 OFFCURVE",
"537.667 1330 OFFCURVE",
"623 1330 CURVE SMOOTH",
"711 1330 OFFCURVE",
"780.667 1305.333 OFFCURVE",
"832 1256 CURVE SMOOTH",
"860 1229 OFFCURVE",
"880 1197 OFFCURVE",
"893 1160 CURVE SMOOTH",
"916 1090 OFFCURVE",
"945 1052 OFFCURVE",
"1015 1052 CURVE SMOOTH",
"1082 1052 OFFCURVE",
"1126 1098 OFFCURVE",
"1106 1176 CURVE SMOOTH",
"1096 1217 OFFCURVE",
"1080 1256 OFFCURVE",
"1058.5 1291.5 CURVE SMOOTH",
"1016.833 1361.167 OFFCURVE",
"958.5 1415.667 OFFCURVE",
"883.5 1455 CURVE SMOOTH",
"808.5 1494.333 OFFCURVE",
"721.667 1514 OFFCURVE",
"623 1514 CURVE SMOOTH",
"528.333 1514 OFFCURVE",
"443.5 1496.167 OFFCURVE",
"368.5 1460.5 CURVE SMOOTH",
"293.5 1424.833 OFFCURVE",
"234.5 1375.5 OFFCURVE",
"191.5 1312.5 CURVE SMOOTH",
"148.5 1249.5 OFFCURVE",
"127 1177.667 OFFCURVE",
"127 1097 CURVE SMOOTH",
"127 1018.333 OFFCURVE",
"151.667 950.167 OFFCURVE",
"201 892.5 CURVE SMOOTH",
"250.333 834.833 OFFCURVE",
"316.667 794.667 OFFCURVE",
"400 772 CURVE",
"400 769 LINE",
"302 753.667 OFFCURVE",
"224.333 713.667 OFFCURVE",
"167 649 CURVE SMOOTH",
"109.667 584.333 OFFCURVE",
"81 508 OFFCURVE",
"81 420 CURVE SMOOTH",
"81 333.333 OFFCURVE",
"104 256.667 OFFCURVE",
"150 190 CURVE SMOOTH",
"196 123.333 OFFCURVE",
"259.167 71 OFFCURVE",
"339.5 33 CURVE SMOOTH",
"419.833 -5 OFFCURVE",
"511.333 -24 OFFCURVE",
"614 -24 CURVE SMOOTH"
);
}
);
userData = {
assembly = "PUSHB[ ]	/* 6 values pushed */\0127 1 5 4 1 76 \012MPPEM[ ]	/* MeasurePixelPerEm */\012PUSHB[ ]	/* 1 value pushed */\01250 \012LT[ ]	/* LessThan */\012IF[ ]	/* If */\012NPUSHB[ ]	/* 46 values pushed */\0120 2 3 4 3 2 4 128 0 7 5 6 5 7 6 128 0 4 0 5 7 4 5 105 0 3 3 1 97 0 1 1 109 77 0 6 6 0 97 8 1 0 0 110 0 78 \012ELSE[ ]	/* Else */\012NPUSHB[ ]	/* 44 values pushed */\0120 2 3 4 3 2 4 128 0 7 5 6 5 7 6 128 0 1 0 3 2 1 3 105 0 4 0 5 7 4 5 105 0 6 6 0 97 8 1 0 0 110 0 78 \012EIF[ ]	/* EndIf */\012NPUSHB[ ]	/* 23 values pushed */\0121 0 42 41 39 37 33 31 30 28 24 22 20 19 16 14 0 45 1 45 9 12 22 \012CALL[ ]	/* CallFunction */";
};
width = 1240;
}
);
note = Epsilon1;
unicode = 0190;
},
{
glyphname = Ereversed;
lastChange = "2024-07-06 18:41:23 +0000";
layers = (
{
layerId = "4A7900B8-4B55-405E-9DE7-28127A08AA09";
paths = (
{
closed = 1;
nodes = (
"1071 1372 LINE SMOOTH",
"1071 1448 OFFCURVE",
"1029 1490 OFFCURVE",
"953 1490 CURVE SMOOTH",
"186 1490 LINE SMOOTH",
"110 1490 OFFCURVE",
"68 1456 OFFCURVE",
"68 1393 CURVE SMOOTH",
"68 1330 OFFCURVE",
"110 1295 OFFCURVE",
"186 1295 CURVE SMOOTH",
"848 1295 LINE",
"848 827 LINE",
"244 827 LINE SMOOTH",
"168 827 OFFCURVE",
"126 793 OFFCURVE",
"126 731 CURVE SMOOTH",
"126 669 OFFCURVE",
"168 634 OFFCURVE",
"244 634 CURVE SMOOTH",
"848 634 LINE",
"848 195 LINE",
"186 195 LINE SMOOTH",
"110 195 OFFCURVE",
"68 161 OFFCURVE",
"68 98 CURVE SMOOTH",
"68 35 OFFCURVE",
"110 0 OFFCURVE",
"186 0 CURVE SMOOTH",
"953 0 LINE SMOOTH",
"1029 0 OFFCURVE",
"1071 42 OFFCURVE",
"1071 118 CURVE SMOOTH"
);
}
);
userData = {
assembly = "NPUSHB[ ]	/* 44 values pushed */\0120 3 0 2 1 3 2 103 0 4 4 5 95 6 1 5 5 103 77 0 1 1 0 95 0 0 0 104 0 78 0 0 0 11 0 11 17 17 17 17 17 7 12 27 \012CALL[ ]	/* CallFunction */";
};
width = 1206;
}
);
note = Eturn;
rightKerningGroup = Ereversed;
unicode = 018E;
},
{
glyphname = Estroke;
lastChange = "2024-07-06 18:41:23 +0000";
layers = (
{
layerId = "4A7900B8-4B55-405E-9DE7-28127A08AA09";
paths = (
{
closed = 1;
nodes = (
"432 -190 OFFCURVE",
"469 -158 OFFCURVE",
"488 -91 CURVE SMOOTH",
"514 0 LINE",
"1020 0 LINE SMOOTH",
"1096 0 OFFCURVE",
"1138 35 OFFCURVE",
"1138 98 CURVE SMOOTH",
"1138 161 OFFCURVE",
"1096 195 OFFCURVE",
"1020 195 CURVE SMOOTH",
"570 195 LINE",
"705 663 LINE",
"962 663 LINE SMOOTH",
"1038 663 OFFCURVE",
"1080 697 OFFCURVE",
"1080 760 CURVE SMOOTH",
"1080 822 OFFCURVE",
"1038 856 OFFCURVE",
"962 856 CURVE SMOOTH",
"760 856 LINE",
"887 1295 LINE",
"1020 1295 LINE SMOOTH",
"1096 1295 OFFCURVE",
"1138 1330 OFFCURVE",
"1138 1393 CURVE SMOOTH",
"1138 1456 OFFCURVE",
"1096 1490 OFFCURVE",
"1020 1490 CURVE SMOOTH",
"943 1490 LINE",
"970 1584 LINE SMOOTH",
"987 1642 OFFCURVE",
"965 1678 OFFCURVE",
"915 1678 CURVE SMOOTH",
"860 1678 OFFCURVE",
"823 1647 OFFCURVE",
"804 1579 CURVE SMOOTH",
"779 1490 LINE",
"254 1490 LINE SMOOTH",
"178 1490 OFFCURVE",
"136 1448 OFFCURVE",
"136 1372 CURVE SMOOTH",
"136 118 LINE SMOOTH",
"136 42 OFFCURVE",
"178 0 OFFCURVE",
"254 0 CURVE SMOOTH",
"348 0 LINE",
"321 -95 LINE SMOOTH",
"304 -153 OFFCURVE",
"325 -190 OFFCURVE",
"376 -190 CURVE SMOOTH"
);
},
{
closed = 1;
nodes = (
"358 856 LINE",
"358 1295 LINE",
"722 1295 LINE",
"595 856 LINE"
);
},
{
closed = 1;
nodes = (
"358 195 LINE",
"358 663 LINE",
"540 663 LINE",
"404 195 LINE"
);
}
);
userData = {
assembly = "MPPEM[ ]	/* MeasurePixelPerEm */\012PUSHB[ ]	/* 1 value pushed */\01214 \012LT[ ]	/* LessThan */\012IF[ ]	/* If */\012NPUSHB[ ]	/* 49 values pushed */\0120 2 1 1 2 112 15 11 2 5 12 1 6 7 5 6 103 14 1 9 7 9 83 10 1 4 4 1 95 3 1 1 1 103 77 16 13 2 7 7 0 95 8 1 0 0 104 0 78 \012ELSE[ ]	/* Else */\012NPUSHB[ ]	/* 48 values pushed */\0120 2 1 2 133 15 11 2 5 12 1 6 7 5 6 103 14 1 9 7 9 83 10 1 4 4 1 95 3 1 1 1 103 77 16 13 2 7 7 0 95 8 1 0 0 104 0 78 \012EIF[ ]	/* EndIf */\012NPUSHB[ ]	/* 34 values pushed */\01224 24 20 20 0 0 24 27 24 27 26 25 20 23 20 23 22 21 0 19 0 19 17 17 17 17 17 17 17 17 17 17 12 31 \012CALL[ ]	/* CallFunction */";
};
width = 1206;
}
);
leftKerningGroup = B;
note = uni0246;
rightKerningGroup = AE;
unicode = 0246;
},
{
glyphname = Ezh;
lastChange = "2024-07-06 18:41:23 +0000";
layers = (
{
layerId = "4A7900B8-4B55-405E-9DE7-28127A08AA09";
paths = (
{
closed = 1;
nodes = (
"84 -101 OFFCURVE",
"106 -149 OFFCURVE",
"136.5 -192.5 CURVE SMOOTH",
"190.167 -270.167 OFFCURVE",
"261.333 -330.833 OFFCURVE",
"350 -374.5 CURVE SMOOTH",
"438.667 -418.167 OFFCURVE",
"537.667 -440 OFFCURVE",
"647 -440 CURVE SMOOTH",
"767 -440 OFFCURVE",
"872.5 -413 OFFCURVE",
"963.5 -359 CURVE SMOOTH",
"1054.5 -305 OFFCURVE",
"1125.5 -230.833 OFFCURVE",
"1176.5 -136.5 CURVE SMOOTH",
"1227.5 -42.167 OFFCURVE",
"1253 66 OFFCURVE",
"1253 188 CURVE SMOOTH",
"1253 302.667 OFFCURVE",
"1229.667 404.5 OFFCURVE",
"1183 493.5 CURVE SMOOTH",
"1136.333 582.5 OFFCURVE",
"1071.5 653.333 OFFCURVE",
"988.5 706 CURVE SMOOTH",
"905.5 758.667 OFFCURVE",
"809.667 788 OFFCURVE",
"701 794 CURVE",
"701 808 LINE",
"1155 1268 LINE SMOOTH",
"1197 1311 OFFCURVE",
"1215 1353 OFFCURVE",
"1215 1410 CURVE SMOOTH",
"1215 1462 OFFCURVE",
"1173 1490 OFFCURVE",
"1097 1490 CURVE SMOOTH",
"251 1490 LINE SMOOTH",
"175 1490 OFFCURVE",
"133 1456 OFFCURVE",
"133 1393 CURVE SMOOTH",
"133 1330 OFFCURVE",
"175 1296 OFFCURVE",
"251 1296 CURVE SMOOTH",
"922 1296 LINE",
"922 1284 LINE",
"509 867 LINE SMOOTH",
"467 824 OFFCURVE",
"449 782 OFFCURVE",
"449 722 CURVE SMOOTH",
"449 721 LINE SMOOTH",
"449 665 OFFCURVE",
"491 634 OFFCURVE",
"567 634 CURVE SMOOTH",
"576 634 LINE SMOOTH",
"664.667 634 OFFCURVE",
"743.167 615.667 OFFCURVE",
"811.5 579 CURVE SMOOTH",
"879.833 542.333 OFFCURVE",
"933.5 490.333 OFFCURVE",
"972.5 423 CURVE SMOOTH",
"1011.5 355.667 OFFCURVE",
"1031 276 OFFCURVE",
"1031 184 CURVE SMOOTH",
"1031 102.667 OFFCURVE",
"1015.5 29.333 OFFCURVE",
"984.5 -36 CURVE SMOOTH",
"953.5 -101.333 OFFCURVE",
"909.5 -152.833 OFFCURVE",
"852.5 -190.5 CURVE SMOOTH",
"795.5 -228.167 OFFCURVE",
"727.667 -247 OFFCURVE",
"649 -247 CURVE SMOOTH",
"583 -247 OFFCURVE",
"522.167 -233.333 OFFCURVE",
"466.5 -206 CURVE SMOOTH",
"410.833 -178.667 OFFCURVE",
"365.5 -140.667 OFFCURVE",
"330.5 -92 CURVE SMOOTH",
"313 -67 OFFCURVE",
"299 -41 OFFCURVE",
"289 -12 CURVE SMOOTH",
"269 47 OFFCURVE",
"237 77 OFFCURVE",
"166 77 CURVE SMOOTH",
"160 77 LINE SMOOTH",
"90 77 OFFCURVE",
"46 29 OFFCURVE",
"69 -50 CURVE SMOOTH"
);
}
);
userData = {
assembly = "NPUSHB[ ]	/* 11 values pushed */\01221 1 3 4 22 15 2 2 3 2 76 \012MPPEM[ ]	/* MeasurePixelPerEm */\012PUSHB[ ]	/* 1 value pushed */\01247 \012LT[ ]	/* LessThan */\012IF[ ]	/* If */\012NPUSHB[ ]	/* 36 values pushed */\0120 2 3 0 3 2 0 128 0 0 1 3 0 1 126 0 3 3 4 95 0 4 4 103 77 0 1 1 5 97 0 5 5 108 5 78 \012ELSE[ ]	/* Else */\012NPUSHB[ ]	/* 33 values pushed */\0120 2 3 0 3 2 0 128 0 0 1 3 0 1 126 0 1 0 5 1 5 101 0 3 3 4 95 0 4 4 103 3 78 \012EIF[ ]	/* EndIf */\012NPUSHB[ ]	/* 9 values pushed */\01242 17 34 38 35 16 6 12 28 \012CALL[ ]	/* CallFunction */";
};
width = 1325;
}
);
note = uni01B7;
rightKerningGroup = B;
unicode = 01B7;
},
{
glyphname = Ezhreversed;
lastChange = "2024-07-06 18:41:23 +0000";
layers = (
{
layerId = "4A7900B8-4B55-405E-9DE7-28127A08AA09";
paths = (
{
closed = 1;
nodes = (
"1159 77 LINE SMOOTH",
"1088 77 OFFCURVE",
"1056 41 OFFCURVE",
"1030 -26 CURVE SMOOTH",
"1021 -49 OFFCURVE",
"1009 -71 OFFCURVE",
"994 -92 CURVE SMOOTH",
"959.333 -140.667 OFFCURVE",
"914.333 -178.667 OFFCURVE",
"859 -206 CURVE SMOOTH",
"803.667 -233.333 OFFCURVE",
"742.667 -247 OFFCURVE",
"676 -247 CURVE SMOOTH",
"597.333 -247 OFFCURVE",
"529.5 -228.167 OFFCURVE",
"472.5 -190.5 CURVE SMOOTH",
"415.5 -152.833 OFFCURVE",
"371.667 -101.333 OFFCURVE",
"341 -36 CURVE SMOOTH",
"310.333 29.333 OFFCURVE",
"295 102.667 OFFCURVE",
"295 184 CURVE SMOOTH",
"295 276 OFFCURVE",
"314.333 355.667 OFFCURVE",
"353 423 CURVE SMOOTH",
"391.667 490.333 OFFCURVE",
"445.333 542.333 OFFCURVE",
"514 579 CURVE SMOOTH",
"582.667 615.667 OFFCURVE",
"661.333 634 OFFCURVE",
"750 634 CURVE SMOOTH",
"758 634 LINE SMOOTH",
"834 634 OFFCURVE",
"876 665 OFFCURVE",
"876 722 CURVE SMOOTH",
"876 782 OFFCURVE",
"858 824 OFFCURVE",
"816 867 CURVE SMOOTH",
"402 1284 LINE",
"402 1296 LINE",
"1075 1296 LINE SMOOTH",
"1151 1296 OFFCURVE",
"1193 1330 OFFCURVE",
"1193 1393 CURVE SMOOTH",
"1193 1456 OFFCURVE",
"1151 1490 OFFCURVE",
"1075 1490 CURVE SMOOTH",
"228 1490 LINE SMOOTH",
"152 1490 OFFCURVE",
"110 1462 OFFCURVE",
"110 1410 CURVE SMOOTH",
"110 1353 OFFCURVE",
"128 1311 OFFCURVE",
"170 1268 CURVE SMOOTH",
"624 808 LINE",
"624 794 LINE",
"515.333 788 OFFCURVE",
"419.5 758.667 OFFCURVE",
"336.5 706 CURVE SMOOTH",
"253.5 653.333 OFFCURVE",
"188.667 582.5 OFFCURVE",
"142 493.5 CURVE SMOOTH",
"95.333 404.5 OFFCURVE",
"72 302.667 OFFCURVE",
"72 188 CURVE SMOOTH",
"72 66 OFFCURVE",
"97.5 -42.167 OFFCURVE",
"148.5 -136.5 CURVE SMOOTH",
"199.5 -230.833 OFFCURVE",
"270.333 -305 OFFCURVE",
"361 -359 CURVE SMOOTH",
"451.667 -413 OFFCURVE",
"557.333 -440 OFFCURVE",
"678 -440 CURVE SMOOTH",
"787.333 -440 OFFCURVE",
"886.333 -418.167 OFFCURVE",
"975 -374.5 CURVE SMOOTH",
"1063.667 -330.833 OFFCURVE",
"1134.833 -270.167 OFFCURVE",
"1188.5 -192.5 CURVE SMOOTH",
"1219 -149 OFFCURVE",
"1241 -101 OFFCURVE",
"1256 -50 CURVE SMOOTH",
"1279 29 OFFCURVE",
"1235 77 OFFCURVE",
"1165 77 CURVE SMOOTH"
);
}
);
userData = {
assembly = "NPUSHB[ ]	/* 10 values pushed */\01214 1 3 2 20 1 1 3 2 76 \012MPPEM[ ]	/* MeasurePixelPerEm */\012PUSHB[ ]	/* 1 value pushed */\01247 \012LT[ ]	/* LessThan */\012IF[ ]	/* If */\012NPUSHB[ ]	/* 44 values pushed */\0120 1 3 4 3 1 4 128 0 4 6 3 4 6 126 7 1 6 5 3 6 5 126 0 3 3 2 95 0 2 2 103 77 0 5 5 0 98 0 0 0 108 0 78 \012ELSE[ ]	/* Else */\012NPUSHB[ ]	/* 41 values pushed */\0120 1 3 4 3 1 4 128 0 4 6 3 4 6 126 7 1 6 5 3 6 5 126 0 5 0 0 5 0 102 0 3 3 2 95 0 2 2 103 3 78 \012EIF[ ]	/* EndIf */\012NPUSHB[ ]	/* 15 values pushed */\0120 0 0 34 0 34 38 35 17 19 22 35 8 12 28 \012CALL[ ]	/* CallFunction */";
};
width = 1325;
}
);
note = uni01B8;
unicode = 01B8;
},
{
glyphname = F;
lastChange = "2024-07-06 18:41:23 +0000";
layers = (
{
layerId = "4A7900B8-4B55-405E-9DE7-28127A08AA09";
paths = (
{
closed = 1;
nodes = (
"136 118 LINE SMOOTH",
"136 42 OFFCURVE",
"175 0 OFFCURVE",
"247 0 CURVE SMOOTH",
"319 0 OFFCURVE",
"358 42 OFFCURVE",
"358 118 CURVE SMOOTH",
"358 657 LINE",
"931 657 LINE SMOOTH",
"1007 657 OFFCURVE",
"1049 691 OFFCURVE",
"1049 753 CURVE SMOOTH",
"1049 815 OFFCURVE",
"1007 849 OFFCURVE",
"931 849 CURVE SMOOTH",
"358 849 LINE",
"358 1295 LINE",
"988 1295 LINE SMOOTH",
"1064 1295 OFFCURVE",
"1106 1330 OFFCURVE",
"1106 1393 CURVE SMOOTH",
"1106 1456 OFFCURVE",
"1064 1490 OFFCURVE",
"988 1490 CURVE SMOOTH",
"254 1490 LINE SMOOTH",
"178 1490 OFFCURVE",
"136 1448 OFFCURVE",
"136 1372 CURVE SMOOTH"
);
}
);
userData = {
assembly = "NPUSHB[ ]	/* 38 values pushed */\0120 2 0 3 4 2 3 103 0 1 1 0 95 0 0 0 103 77 5 1 4 4 104 4 78 0 0 0 9 0 9 17 17 17 17 6 12 26 \012CALL[ ]	/* CallFunction */";
};
width = 1154;
}
);
leftKerningGroup = B;
note = F;
rightKerningGroup = F;
unicode = 0046;
},
{
glyphname = Fhook;
lastChange = "2024-07-06 18:41:23 +0000";
layers = (
{
layerId = "4A7900B8-4B55-405E-9DE7-28127A08AA09";
paths = (
{
closed = 1;
nodes = (
"-79 -385 OFFCURVE",
"-37 -418 OFFCURVE",
"39 -418 CURVE SMOOTH",
"50 -418 LINE SMOOTH",
"255.333 -418 OFFCURVE",
"358 -327.333 OFFCURVE",
"358 -146 CURVE SMOOTH",
"358 657 LINE",
"931 657 LINE SMOOTH",
"1007 657 OFFCURVE",
"1049 691 OFFCURVE",
"1049 753 CURVE SMOOTH",
"1049 815 OFFCURVE",
"1007 849 OFFCURVE",
"931 849 CURVE SMOOTH",
"358 849 LINE",
"358 1295 LINE",
"988 1295 LINE SMOOTH",
"1064 1295 OFFCURVE",
"1106 1330 OFFCURVE",
"1106 1393 CURVE SMOOTH",
"1106 1456 OFFCURVE",
"1064 1490 OFFCURVE",
"988 1490 CURVE SMOOTH",
"254 1490 LINE SMOOTH",
"178 1490 OFFCURVE",
"136 1448 OFFCURVE",
"136 1372 CURVE SMOOTH",
"136 -136 LINE SMOOTH",
"136 -170 OFFCURVE",
"127.833 -194.5 OFFCURVE",
"111.5 -209.5 CURVE SMOOTH",
"95.167 -224.5 OFFCURVE",
"67 -232 OFFCURVE",
"27 -232 CURVE SMOOTH",
"-42 -232 OFFCURVE",
"-79 -265 OFFCURVE",
"-79 -325 CURVE SMOOTH"
);
}
);
userData = {
assembly = "NPUSHB[ ]	/* 44 values pushed */\0120 3 0 4 0 3 4 103 0 2 2 1 95 0 1 1 103 77 0 0 0 5 97 6 1 5 5 108 5 78 0 0 0 16 0 15 17 17 17 19 33 7 12 27 \012CALL[ ]	/* CallFunction */";
};
width = 1154;
}
);
leftKerningGroup = Fhook;
note = uni0191;
rightKerningGroup = F;
unicode = 0191;
},
{
glyphname = G;
lastChange = "2024-07-06 18:41:23 +0000";
layers = (
{
layerId = "4A7900B8-4B55-405E-9DE7-28127A08AA09";
paths = (
{
closed = 1;
nodes = (
"893 -24 OFFCURVE",
"1002.167 2.5 OFFCURVE",
"1098.5 55.5 CURVE SMOOTH",
"1194.833 108.5 OFFCURVE",
"1271 181.167 OFFCURVE",
"1327 273.5 CURVE SMOOTH",
"1383 365.833 OFFCURVE",
"1411 471.333 OFFCURVE",
"1411 590 CURVE SMOOTH",
"1411 643 LINE SMOOTH",
"1411 719 OFFCURVE",
"1369 761 OFFCURVE",
"1293 761 CURVE SMOOTH",
"941 761 LINE SMOOTH",
"865 761 OFFCURVE",
"823 728 OFFCURVE",
"823 669 CURVE SMOOTH",
"823 609 OFFCURVE",
"865 576 OFFCURVE",
"941 576 CURVE SMOOTH",
"1192 576 LINE",
"1191.333 497.333 OFFCURVE",
"1172.5 428.167 OFFCURVE",
"1135.5 368.5 CURVE SMOOTH",
"1098.5 308.833 OFFCURVE",
"1048.5 262.333 OFFCURVE",
"985.5 229 CURVE SMOOTH",
"922.5 195.667 OFFCURVE",
"852 179 OFFCURVE",
"774 179 CURVE SMOOTH",
"679.333 179 OFFCURVE",
"596.833 202.5 OFFCURVE",
"526.5 249.5 CURVE SMOOTH",
"456.167 296.5 OFFCURVE",
"401.5 362.5 OFFCURVE",
"362.5 447.5 CURVE SMOOTH",
"323.5 532.5 OFFCURVE",
"304 631.333 OFFCURVE",
"304 744 CURVE SMOOTH",
"304 857.333 OFFCURVE",
"323.5 956.5 OFFCURVE",
"362.5 1041.5 CURVE SMOOTH",
"401.5 1126.5 OFFCURVE",
"456.167 1192.667 OFFCURVE",
"526.5 1240 CURVE SMOOTH",
"596.833 1287.333 OFFCURVE",
"679 1311 OFFCURVE",
"773 1311 CURVE SMOOTH",
"875.667 1311 OFFCURVE",
"963.333 1282.5 OFFCURVE",
"1036 1225.5 CURVE SMOOTH",
"1082 1190 OFFCURVE",
"1117 1147 OFFCURVE",
"1142 1097 CURVE SMOOTH",
"1173 1034 OFFCURVE",
"1209 1002 OFFCURVE",
"1277 1002 CURVE SMOOTH",
"1289 1002 LINE SMOOTH",
"1358 1002 OFFCURVE",
"1397 1054 OFFCURVE",
"1366 1134 CURVE SMOOTH",
"1347 1182 OFFCURVE",
"1321 1228 OFFCURVE",
"1289.5 1269 CURVE SMOOTH",
"1230.5 1345.667 OFFCURVE",
"1156.167 1405.667 OFFCURVE",
"1066.5 1449 CURVE SMOOTH",
"976.833 1492.333 OFFCURVE",
"878 1514 OFFCURVE",
"770 1514 CURVE SMOOTH",
"636.667 1514 OFFCURVE",
"518.167 1481.667 OFFCURVE",
"414.5 1417 CURVE SMOOTH",
"310.833 1352.333 OFFCURVE",
"229.333 1262.333 OFFCURVE",
"170 1147 CURVE SMOOTH",
"110.667 1031.667 OFFCURVE",
"81 897.333 OFFCURVE",
"81 744 CURVE SMOOTH",
"81 593.333 OFFCURVE",
"110.333 460.333 OFFCURVE",
"169 345 CURVE SMOOTH",
"227.667 229.667 OFFCURVE",
"309 139.333 OFFCURVE",
"413 74 CURVE SMOOTH",
"517 8.667 OFFCURVE",
"636.333 -24 OFFCURVE",
"771 -24 CURVE SMOOTH"
);
}
);
userData = {
assembly = "MPPEM[ ]	/* MeasurePixelPerEm */\012PUSHB[ ]	/* 1 value pushed */\01250 \012LT[ ]	/* LessThan */\012IF[ ]	/* If */\012NPUSHB[ ]	/* 38 values pushed */\0120 2 3 6 3 2 6 128 0 6 0 5 4 6 5 103 0 3 3 1 97 0 1 1 109 77 0 4 4 0 97 7 1 0 0 110 0 78 \012ELSE[ ]	/* Else */\012NPUSHB[ ]	/* 36 values pushed */\0120 2 3 6 3 2 6 128 0 1 0 3 2 1 3 105 0 6 0 5 4 6 5 103 0 4 4 0 97 7 1 0 0 110 0 78 \012EIF[ ]	/* EndIf */\012NPUSHB[ ]	/* 21 values pushed */\0121 0 31 30 29 28 25 23 17 15 13 12 9 7 0 35 1 35 8 12 22 \012CALL[ ]	/* CallFunction */";
};
width = 1500;
}
);
leftKerningGroup = C;
note = G;
rightKerningGroup = G;
unicode = 0047;
},
{
glyphname = Ghook;
lastChange = "2024-07-06 18:41:23 +0000";
layers = (
{
layerId = "4A7900B8-4B55-405E-9DE7-28127A08AA09";
paths = (
{
closed = 1;
nodes = (
"893 -24 OFFCURVE",
"1002.167 2.5 OFFCURVE",
"1098.5 55.5 CURVE SMOOTH",
"1194.833 108.5 OFFCURVE",
"1271 181.167 OFFCURVE",
"1327 273.5 CURVE SMOOTH",
"1383 365.833 OFFCURVE",
"1411 471.333 OFFCURVE",
"1411 590 CURVE SMOOTH",
"1411 643 LINE SMOOTH",
"1411 719 OFFCURVE",
"1369 761 OFFCURVE",
"1293 761 CURVE SMOOTH",
"941 761 LINE SMOOTH",
"865 761 OFFCURVE",
"823 728 OFFCURVE",
"823 669 CURVE SMOOTH",
"823 609 OFFCURVE",
"865 576 OFFCURVE",
"941 576 CURVE SMOOTH",
"1192 576 LINE",
"1191.333 497.333 OFFCURVE",
"1172.5 428.167 OFFCURVE",
"1135.5 368.5 CURVE SMOOTH",
"1098.5 308.833 OFFCURVE",
"1048.5 262.333 OFFCURVE",
"985.5 229 CURVE SMOOTH",
"922.5 195.667 OFFCURVE",
"852 179 OFFCURVE",
"774 179 CURVE SMOOTH",
"679.333 179 OFFCURVE",
"596.833 202.5 OFFCURVE",
"526.5 249.5 CURVE SMOOTH",
"456.167 296.5 OFFCURVE",
"401.5 362.5 OFFCURVE",
"362.5 447.5 CURVE SMOOTH",
"323.5 532.5 OFFCURVE",
"304 631.333 OFFCURVE",
"304 744 CURVE SMOOTH",
"304 857.333 OFFCURVE",
"323.5 956.5 OFFCURVE",
"362.5 1041.5 CURVE SMOOTH",
"401.5 1126.5 OFFCURVE",
"456.167 1192.667 OFFCURVE",
"526.5 1240 CURVE SMOOTH",
"596.833 1287.333 OFFCURVE",
"679 1311 OFFCURVE",
"773 1311 CURVE SMOOTH",
"875.667 1311 OFFCURVE",
"963.333 1282.5 OFFCURVE",
"1036 1225.5 CURVE SMOOTH",
"1082 1190 OFFCURVE",
"1117 1147 OFFCURVE",
"1142 1097 CURVE SMOOTH",
"1173 1034 OFFCURVE",
"1209 1002 OFFCURVE",
"1277 1002 CURVE SMOOTH",
"1289 1002 LINE SMOOTH",
"1362 1002 OFFCURVE",
"1401 1044 OFFCURVE",
"1401 1120 CURVE SMOOTH",
"1401 1400 LINE SMOOTH",
"1401 1434.667 OFFCURVE",
"1409.833 1459.667 OFFCURVE",
"1427.5 1475 CURVE SMOOTH",
"1445.167 1490.333 OFFCURVE",
"1474 1498 OFFCURVE",
"1514 1498 CURVE SMOOTH",
"1583 1498 OFFCURVE",
"1620 1530 OFFCURVE",
"1620 1587 CURVE SMOOTH",
"1620 1644 OFFCURVE",
"1578 1676 OFFCURVE",
"1502 1676 CURVE SMOOTH",
"1499 1676 LINE SMOOTH",
"1295.667 1676 OFFCURVE",
"1194 1585.333 OFFCURVE",
"1194 1404 CURVE SMOOTH",
"1194 1368 LINE",
"1138 1414 OFFCURVE",
"1073.833 1449.833 OFFCURVE",
"1001.5 1475.5 CURVE SMOOTH",
"929.167 1501.167 OFFCURVE",
"852 1514 OFFCURVE",
"770 1514 CURVE SMOOTH",
"636.667 1514 OFFCURVE",
"518.167 1481.667 OFFCURVE",
"414.5 1417 CURVE SMOOTH",
"310.833 1352.333 OFFCURVE",
"229.333 1262.333 OFFCURVE",
"170 1147 CURVE SMOOTH",
"110.667 1031.667 OFFCURVE",
"81 897.333 OFFCURVE",
"81 744 CURVE SMOOTH",
"81 593.333 OFFCURVE",
"110.333 460.333 OFFCURVE",
"169 345 CURVE SMOOTH",
"227.667 229.667 OFFCURVE",
"309 139.333 OFFCURVE",
"413 74 CURVE SMOOTH",
"517 8.667 OFFCURVE",
"636.333 -24 OFFCURVE",
"771 -24 CURVE SMOOTH"
);
}
);
userData = {
assembly = "PUSHB[ ]	/* 6 values pushed */\01211 1 5 3 1 76 \012MPPEM[ ]	/* MeasurePixelPerEm */\012PUSHB[ ]	/* 1 value pushed */\01250 \012LT[ ]	/* LessThan */\012IF[ ]	/* If */\012NPUSHB[ ]	/* 46 values pushed */\0120 4 5 8 5 4 8 128 0 2 0 3 5 2 3 105 0 8 0 7 6 8 7 103 0 5 5 1 97 0 1 1 109 77 0 6 6 0 97 9 1 0 0 110 0 78 \012ELSE[ ]	/* Else */\012NPUSHB[ ]	/* 44 values pushed */\0120 4 5 8 5 4 8 128 0 2 0 3 5 2 3 105 0 1 0 5 4 1 5 105 0 8 0 7 6 8 7 103 0 6 6 0 97 9 1 0 0 110 0 78 \012EIF[ ]	/* EndIf */\012NPUSHB[ ]	/* 25 values pushed */\0121 0 40 39 38 37 34 32 26 24 22 21 18 16 15 13 9 7 0 44 1 44 10 12 22 \012CALL[ ]	/* CallFunction */";
};
width = 1500;
}
);
leftKerningGroup = C;
note = uni0193;
rightKerningGroup = G;
unicode = 0193;
},
{
glyphname = Glottalstop;
lastChange = "2024-07-06 18:41:23 +0000";
layers = (
{
layerId = "4A7900B8-4B55-405E-9DE7-28127A08AA09";
paths = (
{
closed = 1;
nodes = (
"438 472 OFFCURVE",
"399 430 OFFCURVE",
"399 354 CURVE SMOOTH",
"399 118 LINE SMOOTH",
"399 42 OFFCURVE",
"441 0 OFFCURVE",
"517 0 CURVE SMOOTH",
"524 0 LINE SMOOTH",
"600 0 OFFCURVE",
"642 42 OFFCURVE",
"642 118 CURVE SMOOTH",
"642 287 LINE",
"724 306.333 OFFCURVE",
"792.5 341.667 OFFCURVE",
"847.5 393 CURVE SMOOTH",
"902.5 444.333 OFFCURVE",
"943.667 506.333 OFFCURVE",
"971 579 CURVE SMOOTH",
"998.333 651.667 OFFCURVE",
"1012 730 OFFCURVE",
"1012 814 CURVE SMOOTH",
"1012 965 LINE SMOOTH",
"1012 1063.667 OFFCURVE",
"993.333 1154.333 OFFCURVE",
"956 1237 CURVE SMOOTH",
"918.667 1319.667 OFFCURVE",
"862.667 1385.833 OFFCURVE",
"788 1435.5 CURVE SMOOTH",
"713.333 1485.167 OFFCURVE",
"620 1510 OFFCURVE",
"508 1510 CURVE SMOOTH",
"420.667 1510 OFFCURVE",
"343.5 1492 OFFCURVE",
"276.5 1456 CURVE SMOOTH",
"209.5 1420 OFFCURVE",
"156.833 1370.5 OFFCURVE",
"118.5 1307.5 CURVE SMOOTH",
"99 1275 OFFCURVE",
"84 1241 OFFCURVE",
"74 1204 CURVE SMOOTH",
"55 1134 OFFCURVE",
"103 1092 OFFCURVE",
"179 1092 CURVE SMOOTH",
"249 1092 OFFCURVE",
"278 1128 OFFCURVE",
"309 1193 CURVE SMOOTH",
"319 1214 OFFCURVE",
"332 1232 OFFCURVE",
"348 1249 CURVE SMOOTH",
"387.333 1289.667 OFFCURVE",
"441.333 1310 OFFCURVE",
"510 1310 CURVE SMOOTH",
"580.667 1310 OFFCURVE",
"634.833 1292.667 OFFCURVE",
"672.5 1258 CURVE SMOOTH",
"710.167 1223.333 OFFCURVE",
"736 1179.5 OFFCURVE",
"750 1126.5 CURVE SMOOTH",
"764 1073.5 OFFCURVE",
"771 1019.667 OFFCURVE",
"771 965 CURVE SMOOTH",
"771 814 LINE SMOOTH",
"771 755.333 OFFCURVE",
"763.833 699.833 OFFCURVE",
"749.5 647.5 CURVE SMOOTH",
"735.167 595.167 OFFCURVE",
"709 552.833 OFFCURVE",
"671 520.5 CURVE SMOOTH",
"633 488.167 OFFCURVE",
"579.333 472 OFFCURVE",
"510 472 CURVE SMOOTH"
);
}
);
userData = {
assembly = "NPUSHB[ ]	/* 53 values pushed */\01227 1 4 0 1 76 0 2 1 0 1 2 0 128 0 1 1 3 97 0 3 3 109 77 5 1 0 0 4 95 0 4 4 104 4 78 2 0 29 28 19 17 14 13 11 9 0 30 2 30 6 12 22 \012CALL[ ]	/* CallFunction */";
};
width = 1070;
}
);
note = uni0241;
unicode = 0241;
},
{
glyphname = Yogh;
lastChange = "2024-07-06 18:41:23 +0000";
layers = (
{
layerId = "4A7900B8-4B55-405E-9DE7-28127A08AA09";
paths = (
{
closed = 1;
nodes = (
"409 387 OFFCURVE",
"483 412 OFFCURVE",
"553 439.5 CURVE SMOOTH",
"660.333 481.833 OFFCURVE",
"754.333 530.333 OFFCURVE",
"835 585 CURVE",
"864.333 563 OFFCURVE",
"885.333 532.333 OFFCURVE",
"898 493 CURVE SMOOTH",
"910.667 453.667 OFFCURVE",
"917 404.333 OFFCURVE",
"917 345 CURVE SMOOTH",
"917 228.333 OFFCURVE",
"888.5 132 OFFCURVE",
"831.5 56 CURVE SMOOTH",
"774.5 -20 OFFCURVE",
"692.333 -81.5 OFFCURVE",
"585 -128.5 CURVE SMOOTH",
"503 -164 OFFCURVE",
"409 -195 OFFCURVE",
"303 -221 CURVE SMOOTH",
"233 -238 OFFCURVE",
"198 -276 OFFCURVE",
"198 -340 CURVE SMOOTH",
"198 -400 OFFCURVE",
"247 -428 OFFCURVE",
"328 -410 CURVE SMOOTH",
"418 -389 OFFCURVE",
"503 -365 OFFCURVE",
"583 -338 CURVE SMOOTH",
"700.333 -298 OFFCURVE",
"802 -248 OFFCURVE",
"888 -188 CURVE SMOOTH",
"974 -128 OFFCURVE",
"1040.667 -55.333 OFFCURVE",
"1088 30 CURVE SMOOTH",
"1135.333 115.333 OFFCURVE",
"1159 216 OFFCURVE",
"1159 332 CURVE SMOOTH",
"1159 423.333 OFFCURVE",
"1143.167 499.833 OFFCURVE",
"1111.5 561.5 CURVE SMOOTH",
"1079.833 623.167 OFFCURVE",
"1035.333 671.333 OFFCURVE",
"978 706 CURVE",
"1028.667 760 OFFCURVE",
"1067.667 818.167 OFFCURVE",
"1095 880.5 CURVE SMOOTH",
"1122.333 942.833 OFFCURVE",
"1136 1009.333 OFFCURVE",
"1136 1080 CURVE SMOOTH",
"1136 1173.333 OFFCURVE",
"1114.167 1251.833 OFFCURVE",
"1070.5 1315.5 CURVE SMOOTH",
"1026.833 1379.167 OFFCURVE",
"966.333 1427.5 OFFCURVE",
"889 1460.5 CURVE SMOOTH",
"811.667 1493.5 OFFCURVE",
"723 1510 OFFCURVE",
"623 1510 CURVE SMOOTH",
"521.667 1510 OFFCURVE",
"431.667 1493.167 OFFCURVE",
"353 1459.5 CURVE SMOOTH",
"274.333 1425.833 OFFCURVE",
"212.5 1378.5 OFFCURVE",
"167.5 1317.5 CURVE SMOOTH",
"145 1286 OFFCURVE",
"127 1253 OFFCURVE",
"116 1216 CURVE SMOOTH",
"95 1146 OFFCURVE",
"148 1103 OFFCURVE",
"228 1103 CURVE SMOOTH",
"238 1103 LINE SMOOTH",
"307 1103 OFFCURVE",
"331 1139 OFFCURVE",
"367 1201 CURVE SMOOTH",
"379 1222 OFFCURVE",
"396 1240 OFFCURVE",
"417.5 1257 CURVE SMOOTH",
"468.5 1296.333 OFFCURVE",
"537 1316 OFFCURVE",
"623 1316 CURVE SMOOTH",
"711.667 1316 OFFCURVE",
"779.667 1293.5 OFFCURVE",
"827 1248.5 CURVE SMOOTH",
"874.333 1203.5 OFFCURVE",
"898 1138.667 OFFCURVE",
"898 1054 CURVE SMOOTH",
"898 966.667 OFFCURVE",
"872.167 890.833 OFFCURVE",
"820.5 826.5 CURVE SMOOTH",
"768.833 762.167 OFFCURVE",
"691.167 704.667 OFFCURVE",
"587.5 654 CURVE SMOOTH",
"507 614 OFFCURVE",
"410 576 OFFCURVE",
"297 539 CURVE SMOOTH",
"230 517 OFFCURVE",
"198 479 OFFCURVE",
"198 420 CURVE SMOOTH",
"198 366 OFFCURVE",
"249 343 OFFCURVE",
"330 365 CURVE SMOOTH"
);
}
);
userData = {
assembly = "NPUSHB[ ]	/* 31 values pushed */\01239 32 31 23 1 0 6 1 73 0 1 0 1 134 0 0 0 2 97 0 2 2 109 0 78 35 18 39 3 12 25 \012CALL[ ]	/* CallFunction */";
};
width = 1258;
}
);
note = uni021C;
unicode = 021C;
},
{
glyphname = H;
lastChange = "2024-07-06 18:41:23 +0000";
layers = (
{
layerId = "4A7900B8-4B55-405E-9DE7-28127A08AA09";
paths = (
{
closed = 1;
nodes = (
"136 118 LINE SMOOTH",
"136 42 OFFCURVE",
"175 0 OFFCURVE",
"247 0 CURVE SMOOTH",
"319 0 OFFCURVE",
"358 42 OFFCURVE",
"358 118 CURVE SMOOTH",
"358 665 LINE",
"1099 665 LINE",
"1099 118 LINE SMOOTH",
"1099 42 OFFCURVE",
"1138 0 OFFCURVE",
"1210 0 CURVE SMOOTH",
"1282 0 OFFCURVE",
"1321 42 OFFCURVE",
"1321 118 CURVE SMOOTH",
"1321 1372 LINE SMOOTH",
"1321 1448 OFFCURVE",
"1282 1490 OFFCURVE",
"1210 1490 CURVE SMOOTH",
"1138 1490 OFFCURVE",
"1099 1448 OFFCURVE",
"1099 1372 CURVE SMOOTH",
"1099 859 LINE",
"358 859 LINE",
"358 1372 LINE SMOOTH",
"358 1448 OFFCURVE",
"319 1490 OFFCURVE",
"247 1490 CURVE SMOOTH",
"175 1490 OFFCURVE",
"136 1448 OFFCURVE",
"136 1372 CURVE SMOOTH"
);
}
);
userData = {
assembly = "NPUSHB[ ]	/* 36 values pushed */\0120 1 0 4 3 1 4 103 2 1 0 0 103 77 6 5 2 3 3 104 3 78 0 0 0 11 0 11 17 17 17 17 17 7 12 27 \012CALL[ ]	/* CallFunction */";
};
width = 1457;
}
);
leftKerningGroup = B;
note = H;
rightKerningGroup = Ereversed;
unicode = 0048;
},
{
glyphname = Hbar;
lastChange = "2024-07-06 18:41:23 +0000";
layers = (
{
layerId = "4A7900B8-4B55-405E-9DE7-28127A08AA09";
paths = (
{
closed = 1;
nodes = (
"1478 1165 OFFCURVE",
"1436 1193 OFFCURVE",
"1360 1193 CURVE SMOOTH",
"1354 1193 LINE",
"1354 1372 LINE SMOOTH",
"1354 1448 OFFCURVE",
"1315 1490 OFFCURVE",
"1243 1490 CURVE SMOOTH",
"1171 1490 OFFCURVE",
"1132 1448 OFFCURVE",
"1132 1372 CURVE SMOOTH",
"1132 1193 LINE",
"391 1193 LINE",
"391 1372 LINE SMOOTH",
"391 1448 OFFCURVE",
"352 1490 OFFCURVE",
"280 1490 CURVE SMOOTH",
"208 1490 OFFCURVE",
"169 1448 OFFCURVE",
"169 1372 CURVE SMOOTH",
"169 1193 LINE",
"109 1193 LINE SMOOTH",
"70 1193 OFFCURVE",
"48 1165 OFFCURVE",
"48 1113 CURVE SMOOTH",
"48 1061 OFFCURVE",
"90 1033 OFFCURVE",
"166 1033 CURVE SMOOTH",
"169 1033 LINE",
"169 118 LINE SMOOTH",
"169 42 OFFCURVE",
"208 0 OFFCURVE",
"280 0 CURVE SMOOTH",
"352 0 OFFCURVE",
"391 42 OFFCURVE",
"391 118 CURVE SMOOTH",
"391 665 LINE",
"1132 665 LINE",
"1132 118 LINE SMOOTH",
"1132 42 OFFCURVE",
"1171 0 OFFCURVE",
"1243 0 CURVE SMOOTH",
"1315 0 OFFCURVE",
"1354 42 OFFCURVE",
"1354 118 CURVE SMOOTH",
"1354 1033 LINE",
"1416 1033 LINE SMOOTH",
"1456 1033 OFFCURVE",
"1478 1061 OFFCURVE",
"1478 1113 CURVE SMOOTH"
);
},
{
closed = 1;
nodes = (
"1132 1033 LINE",
"1132 859 LINE",
"391 859 LINE",
"391 1033 LINE"
);
}
);
userData = {
assembly = "NPUSHB[ ]	/* 56 values pushed */\01212 9 7 3 5 10 4 2 0 11 5 0 103 0 11 0 2 1 11 2 103 8 1 6 6 103 77 3 1 1 1 104 1 78 0 0 23 22 21 20 0 19 0 19 17 17 17 17 17 17 17 17 17 13 12 31 \012CALL[ ]	/* CallFunction */";
};
width = 1526;
}
);
leftKerningGroup = B;
note = Hbar;
rightKerningGroup = Ereversed;
unicode = 0126;
},
{
glyphname = Hwair;
lastChange = "2024-07-06 18:41:23 +0000";
layers = (
{
layerId = "4A7900B8-4B55-405E-9DE7-28127A08AA09";
paths = (
{
closed = 1;
nodes = (
"1653.333 -21 OFFCURVE",
"1734.5 -3.333 OFFCURVE",
"1803.5 32 CURVE SMOOTH",
"1872.5 67.333 OFFCURVE",
"1926 117.167 OFFCURVE",
"1964 181.5 CURVE SMOOTH",
"2002 245.833 OFFCURVE",
"2021 321.333 OFFCURVE",
"2021 408 CURVE SMOOTH",
"2021 938 LINE SMOOTH",
"2021 1014 OFFCURVE",
"1984 1056 OFFCURVE",
"1915 1056 CURVE SMOOTH",
"1846 1056 OFFCURVE",
"1809 1014 OFFCURVE",
"1809 938 CURVE SMOOTH",
"1809 420 LINE SMOOTH",
"1809 338.667 OFFCURVE",
"1787.333 275.833 OFFCURVE",
"1744 231.5 CURVE SMOOTH",
"1700.667 187.167 OFFCURVE",
"1639.667 165 OFFCURVE",
"1561 165 CURVE SMOOTH",
"1483 165 OFFCURVE",
"1423.5 187.167 OFFCURVE",
"1382.5 231.5 CURVE SMOOTH",
"1341.5 275.833 OFFCURVE",
"1321 338.667 OFFCURVE",
"1321 420 CURVE SMOOTH",
"1321 1372 LINE SMOOTH",
"1321 1448 OFFCURVE",
"1282 1490 OFFCURVE",
"1210 1490 CURVE SMOOTH",
"1138 1490 OFFCURVE",
"1099 1448 OFFCURVE",
"1099 1372 CURVE SMOOTH",
"1099 859 LINE",
"358 859 LINE",
"358 1372 LINE SMOOTH",
"358 1448 OFFCURVE",
"319 1490 OFFCURVE",
"247 1490 CURVE SMOOTH",
"175 1490 OFFCURVE",
"136 1448 OFFCURVE",
"136 1372 CURVE SMOOTH",
"136 118 LINE SMOOTH",
"136 42 OFFCURVE",
"175 0 OFFCURVE",
"247 0 CURVE SMOOTH",
"319 0 OFFCURVE",
"358 42 OFFCURVE",
"358 118 CURVE SMOOTH",
"358 665 LINE",
"1099 665 LINE",
"1099 408 LINE SMOOTH",
"1099 321.333 OFFCURVE",
"1118 245.833 OFFCURVE",
"1156 181.5 CURVE SMOOTH",
"1194 117.167 OFFCURVE",
"1247.5 67.333 OFFCURVE",
"1316.5 32 CURVE SMOOTH",
"1385.5 -3.333 OFFCURVE",
"1466.667 -21 OFFCURVE",
"1560 -21 CURVE SMOOTH"
);
}
);
userData = {
assembly = "MPPEM[ ]	/* MeasurePixelPerEm */\012PUSHB[ ]	/* 1 value pushed */\01224 \012LT[ ]	/* LessThan */\012IF[ ]	/* If */\012NPUSHB[ ]	/* 32 values pushed */\0120 4 0 1 6 4 1 103 5 1 3 3 103 77 0 7 7 106 77 0 6 6 0 97 2 8 2 0 0 110 0 78 \012ELSE[ ]	/* Else */\012NPUSHB[ ]	/* 36 values pushed */\0120 4 0 1 6 4 1 103 5 1 3 3 103 77 0 7 7 106 77 0 2 2 104 77 0 6 6 0 97 8 1 0 0 110 0 78 \012EIF[ ]	/* EndIf */\012NPUSHB[ ]	/* 23 values pushed */\0121 0 23 22 19 17 14 13 12 11 10 9 8 7 6 5 0 27 1 27 9 12 22 \012CALL[ ]	/* CallFunction */";
};
width = 2140;
}
);
leftKerningGroup = B;
note = uni01F6;
rightKerningGroup = Hwair;
unicode = 01F6;
},
{
glyphname = I;
lastChange = "2024-07-06 18:41:23 +0000";
layers = (
{
layerId = "4A7900B8-4B55-405E-9DE7-28127A08AA09";
paths = (
{
closed = 1;
nodes = (
"358 1372 LINE SMOOTH",
"358 1448 OFFCURVE",
"319 1490 OFFCURVE",
"247 1490 CURVE SMOOTH",
"175 1490 OFFCURVE",
"136 1448 OFFCURVE",
"136 1372 CURVE SMOOTH",
"136 118 LINE SMOOTH",
"136 42 OFFCURVE",
"175 0 OFFCURVE",
"247 0 CURVE SMOOTH",
"319 0 OFFCURVE",
"358 42 OFFCURVE",
"358 118 CURVE SMOOTH"
);
}
);
userData = {
assembly = "NPUSHB[ ]	/* 22 values pushed */\0122 1 1 1 103 77 0 0 0 104 0 78 0 0 0 3 0 3 17 3 12 23 \012CALL[ ]	/* CallFunction */";
};
width = 494;
}
);
leftKerningGroup = B;
note = I;
rightKerningGroup = Ereversed;
unicode = 0049;
},
{
glyphname = J;
lastChange = "2024-07-06 18:41:23 +0000";
layers = (
{
layerId = "4A7900B8-4B55-405E-9DE7-28127A08AA09";
paths = (
{
closed = 1;
nodes = (
"663 -21 OFFCURVE",
"774.167 18 OFFCURVE",
"858.5 96 CURVE SMOOTH",
"942.833 174 OFFCURVE",
"985 285.667 OFFCURVE",
"985 431 CURVE SMOOTH",
"985 1372 LINE SMOOTH",
"985 1448 OFFCURVE",
"946 1490 OFFCURVE",
"874 1490 CURVE SMOOTH",
"802 1490 OFFCURVE",
"762 1448 OFFCURVE",
"762 1372 CURVE SMOOTH",
"762 432 LINE SMOOTH",
"762 348 OFFCURVE",
"740.333 283.667 OFFCURVE",
"697 239 CURVE SMOOTH",
"653.667 194.333 OFFCURVE",
"596 172 OFFCURVE",
"524 172 CURVE SMOOTH",
"452 172 OFFCURVE",
"394.333 194.333 OFFCURVE",
"351 239 CURVE SMOOTH",
"307.667 283.667 OFFCURVE",
"286 348 OFFCURVE",
"286 432 CURVE SMOOTH",
"286 489 OFFCURVE",
"248 520 OFFCURVE",
"178 520 CURVE SMOOTH",
"108 520 OFFCURVE",
"70 489 OFFCURVE",
"70 433 CURVE SMOOTH",
"70 287.667 OFFCURVE",
"111.667 175.667 OFFCURVE",
"195 97 CURVE SMOOTH",
"278.333 18.333 OFFCURVE",
"388.333 -21 OFFCURVE",
"525 -21 CURVE SMOOTH"
);
}
);
userData = {
assembly = "NPUSHB[ ]	/* 40 values pushed */\0120 1 3 2 3 1 2 128 0 3 3 103 77 0 2 2 0 97 4 1 0 0 110 0 78 1 0 14 13 10 8 5 4 0 17 1 17 5 12 22 \012CALL[ ]	/* CallFunction */";
};
width = 1114;
}
);
leftKerningGroup = J;
note = J;
rightKerningGroup = J;
unicode = 004A;
},
{
glyphname = K;
lastChange = "2024-07-06 18:41:23 +0000";
layers = (
{
layerId = "4A7900B8-4B55-405E-9DE7-28127A08AA09";
paths = (
{
closed = 1;
nodes = (
"136 118 LINE SMOOTH",
"136 42 OFFCURVE",
"175 0 OFFCURVE",
"247 0 CURVE SMOOTH",
"319 0 OFFCURVE",
"358 42 OFFCURVE",
"358 118 CURVE SMOOTH",
"358 462 LINE",
"568 694 LINE",
"1001 74 LINE SMOOTH",
"1037 22 OFFCURVE",
"1081 0 OFFCURVE",
"1144 0 CURVE SMOOTH",
"1183 0 LINE SMOOTH",
"1255 0 OFFCURVE",
"1268 63 OFFCURVE",
"1212 143 CURVE SMOOTH",
"720 845 LINE",
"1176 1345 LINE SMOOTH",
"1246 1421 OFFCURVE",
"1216 1490 OFFCURVE",
"1114 1490 CURVE SMOOTH",
"1053 1490 OFFCURVE",
"1010 1471 OFFCURVE",
"969 1426 CURVE SMOOTH",
"603 1023 LINE SMOOTH",
"561.667 976.333 OFFCURVE",
"520.667 930.333 OFFCURVE",
"480 885 CURVE SMOOTH",
"358 748 LINE",
"358 1372 LINE SMOOTH",
"358 1448 OFFCURVE",
"319 1490 OFFCURVE",
"247 1490 CURVE SMOOTH",
"175 1490 OFFCURVE",
"136 1448 OFFCURVE",
"136 1372 CURVE SMOOTH"
);
}
);
userData = {
assembly = "NPUSHB[ ]	/* 35 values pushed */\01213 12 9 3 4 2 0 1 76 1 1 0 0 103 77 4 3 2 2 2 104 2 78 0 0 0 14 0 14 18 21 17 5 12 25 \012CALL[ ]	/* CallFunction */";
};
width = 1334;
}
);
leftKerningGroup = B;
note = K;
rightKerningGroup = K;
unicode = 004B;
},
{
glyphname = Khook;
lastChange = "2024-07-06 18:41:23 +0000";
layers = (
{
layerId = "4A7900B8-4B55-405E-9DE7-28127A08AA09";
paths = (
{
closed = 1;
nodes = (
"136 118 LINE SMOOTH",
"136 42 OFFCURVE",
"175 0 OFFCURVE",
"246 0 CURVE SMOOTH",
"317 0 OFFCURVE",
"356 42 OFFCURVE",
"356 118 CURVE SMOOTH",
"356 452 LINE",
"541 658 LINE",
"981 72 LINE SMOOTH",
"1019 21 OFFCURVE",
"1062 0 OFFCURVE",
"1125 0 CURVE SMOOTH",
"1168 0 LINE SMOOTH",
"1241 0 OFFCURVE",
"1251 65 OFFCURVE",
"1191 144 CURVE SMOOTH",
"680 813 LINE",
"1082 1242 LINE SMOOTH",
"1118 1280.667 OFFCURVE",
"1152.167 1303.167 OFFCURVE",
"1184.5 1309.5 CURVE SMOOTH",
"1201 1313 OFFCURVE",
"1219 1312 OFFCURVE",
"1236 1308 CURVE SMOOTH",
"1271 1300 OFFCURVE",
"1298 1315 OFFCURVE",
"1325 1369 CURVE SMOOTH",
"1351 1422 OFFCURVE",
"1332 1478 OFFCURVE",
"1257 1498 CURVE SMOOTH",
"1221 1507 OFFCURVE",
"1184 1510 OFFCURVE",
"1145.5 1506 CURVE SMOOTH",
"1068.5 1498 OFFCURVE",
"998 1459.667 OFFCURVE",
"934 1391 CURVE SMOOTH",
"374 780 LINE",
"356 780 LINE",
"356 1372 LINE SMOOTH",
"356 1448 OFFCURVE",
"317 1490 OFFCURVE",
"246 1490 CURVE SMOOTH",
"175 1490 OFFCURVE",
"136 1448 OFFCURVE",
"136 1372 CURVE SMOOTH"
);
}
);
userData = {
assembly = "NPUSHB[ ]	/* 35 values pushed */\01217 16 13 9 8 3 6 1 0 1 76 0 0 0 103 77 3 2 2 1 1 104 1 78 0 0 0 18 0 18 28 17 4 12 24 \012CALL[ ]	/* CallFunction */";
};
width = 1353;
}
);
leftKerningGroup = B;
note = uni0198;
rightKerningGroup = K;
unicode = 0198;
},
{
glyphname = L;
lastChange = "2024-07-06 18:41:23 +0000";
layers = (
{
layerId = "4A7900B8-4B55-405E-9DE7-28127A08AA09";
paths = (
{
closed = 1;
nodes = (
"136 118 LINE SMOOTH",
"136 42 OFFCURVE",
"178 0 OFFCURVE",
"254 0 CURVE SMOOTH",
"945 0 LINE SMOOTH",
"1021 0 OFFCURVE",
"1063 35 OFFCURVE",
"1063 98 CURVE SMOOTH",
"1063 161 OFFCURVE",
"1021 195 OFFCURVE",
"945 195 CURVE SMOOTH",
"358 195 LINE",
"358 1372 LINE SMOOTH",
"358 1448 OFFCURVE",
"319 1490 OFFCURVE",
"247 1490 CURVE SMOOTH",
"175 1490 OFFCURVE",
"136 1448 OFFCURVE",
"136 1372 CURVE SMOOTH"
);
}
);
userData = {
assembly = "NPUSHB[ ]	/* 28 values pushed */\0120 0 0 103 77 0 1 1 2 96 3 1 2 2 104 2 78 0 0 0 5 0 5 17 17 4 12 24 \012CALL[ ]	/* CallFunction */";
};
width = 1111;
}
);
leftKerningGroup = B;
note = L;
rightKerningGroup = L;
unicode = 004C;
},
{
glyphname = M;
lastChange = "2024-07-06 18:41:23 +0000";
layers = (
{
layerId = "4A7900B8-4B55-405E-9DE7-28127A08AA09";
paths = (
{
closed = 1;
nodes = (
"136 118 LINE SMOOTH",
"136 42 OFFCURVE",
"175 0 OFFCURVE",
"246 0 CURVE SMOOTH",
"317 0 OFFCURVE",
"355 42 OFFCURVE",
"355 118 CURVE SMOOTH",
"355 812 LINE SMOOTH",
"355 862.667 OFFCURVE",
"354.333 921.333 OFFCURVE",
"353 988 CURVE SMOOTH",
"351.667 1054.667 OFFCURVE",
"350 1122 OFFCURVE",
"348 1190 CURVE",
"424.5 973.5 LINE SMOOTH",
"448.167 906.5 OFFCURVE",
"467.667 852.667 OFFCURVE",
"483 812 CURVE SMOOTH",
"764 93 LINE SMOOTH",
"789 29 OFFCURVE",
"829 0 OFFCURVE",
"891 0 CURVE SMOOTH",
"953 0 OFFCURVE",
"994 30 OFFCURVE",
"1018 93 CURVE SMOOTH",
"1296 812 LINE SMOOTH",
"1312 854.667 OFFCURVE",
"1332.167 911.667 OFFCURVE",
"1356.5 983 CURVE SMOOTH",
"1434 1211 LINE",
"1432 1140.333 OFFCURVE",
"1430.333 1069.5 OFFCURVE",
"1429 998.5 CURVE SMOOTH",
"1427.667 927.5 OFFCURVE",
"1427 865.333 OFFCURVE",
"1427 812 CURVE SMOOTH",
"1427 118 LINE SMOOTH",
"1427 42 OFFCURVE",
"1466 0 OFFCURVE",
"1536 0 CURVE SMOOTH",
"1606 0 OFFCURVE",
"1645 42 OFFCURVE",
"1645 118 CURVE SMOOTH",
"1645 1372 LINE SMOOTH",
"1645 1448 OFFCURVE",
"1603 1490 OFFCURVE",
"1527 1490 CURVE SMOOTH",
"1431 1490 LINE SMOOTH",
"1363 1490 OFFCURVE",
"1320 1459 OFFCURVE",
"1296 1396 CURVE SMOOTH",
"1002 617 LINE",
"950 467.5 LINE SMOOTH",
"928.667 405.833 OFFCURVE",
"909.667 349 OFFCURVE",
"893 297 CURVE",
"875.667 349 OFFCURVE",
"856.333 405.833 OFFCURVE",
"835 467.5 CURVE SMOOTH",
"783 617 LINE",
"485 1397 LINE SMOOTH",
"461 1460 OFFCURVE",
"417 1490 OFFCURVE",
"349 1490 CURVE SMOOTH",
"254 1490 LINE SMOOTH",
"178 1490 OFFCURVE",
"136 1448 OFFCURVE",
"136 1372 CURVE SMOOTH"
);
}
);
userData = {
assembly = "NPUSHB[ ]	/* 36 values pushed */\01226 17 6 3 2 0 1 76 1 1 0 0 103 77 5 4 3 3 2 2 104 2 78 0 0 0 30 0 30 24 17 24 17 6 12 26 \012CALL[ ]	/* CallFunction */";
};
width = 1781;
}
);
leftKerningGroup = B;
note = M;
rightKerningGroup = Ereversed;
unicode = 004D;
},
{
glyphname = Mturned;
lastChange = "2024-07-06 18:41:23 +0000";
layers = (
{
layerId = "4A7900B8-4B55-405E-9DE7-28127A08AA09";
paths = (
{
closed = 1;
nodes = (
"869.667 100.333 OFFCURVE",
"911.333 51.667 OFFCURVE",
"966 23 CURVE SMOOTH",
"1020.667 -5.667 OFFCURVE",
"1084.333 -20 OFFCURVE",
"1157 -20 CURVE SMOOTH",
"1226.333 -20 OFFCURVE",
"1286.667 -7.833 OFFCURVE",
"1338 16.5 CURVE SMOOTH",
"1389.333 40.833 OFFCURVE",
"1431.667 74.667 OFFCURVE",
"1465 118 CURVE",
"1470 59 LINE SMOOTH",
"1473 21 OFFCURVE",
"1511 0 OFFCURVE",
"1581 0 CURVE SMOOTH",
"1650 0 OFFCURVE",
"1688 42 OFFCURVE",
"1688 118 CURVE SMOOTH",
"1688 1372 LINE SMOOTH",
"1688 1448 OFFCURVE",
"1647 1490 OFFCURVE",
"1573 1490 CURVE SMOOTH",
"1499 1490 OFFCURVE",
"1458 1448 OFFCURVE",
"1458 1372 CURVE SMOOTH",
"1458 346 LINE",
"1440.667 293.333 OFFCURVE",
"1412 250.833 OFFCURVE",
"1372 218.5 CURVE SMOOTH",
"1332 186.167 OFFCURVE",
"1276.667 170 OFFCURVE",
"1206 170 CURVE SMOOTH",
"1174.667 170 OFFCURVE",
"1145.333 177.667 OFFCURVE",
"1118 193 CURVE SMOOTH",
"1090.667 208.333 OFFCURVE",
"1068.5 235.333 OFFCURVE",
"1051.5 274 CURVE SMOOTH",
"1034.5 312.667 OFFCURVE",
"1026 367 OFFCURVE",
"1026 437 CURVE SMOOTH",
"1026 1372 LINE SMOOTH",
"1026 1448 OFFCURVE",
"986 1490 OFFCURVE",
"912 1490 CURVE SMOOTH",
"838 1490 OFFCURVE",
"797 1448 OFFCURVE",
"797 1372 CURVE SMOOTH",
"797 437 LINE SMOOTH",
"797 407 OFFCURVE",
"798 378.667 OFFCURVE",
"800 352 CURVE",
"783.333 297.333 OFFCURVE",
"754.5 253.333 OFFCURVE",
"713.5 220 CURVE SMOOTH",
"672.5 186.667 OFFCURVE",
"615.667 170 OFFCURVE",
"543 170 CURVE SMOOTH",
"512.333 170 OFFCURVE",
"483.667 177.667 OFFCURVE",
"457 193 CURVE SMOOTH",
"430.333 208.333 OFFCURVE",
"408.667 235.333 OFFCURVE",
"392 274 CURVE SMOOTH",
"375.333 312.667 OFFCURVE",
"366.667 367 OFFCURVE",
"366 437 CURVE",
"366 1372 LINE SMOOTH",
"366 1448 OFFCURVE",
"325 1490 OFFCURVE",
"251 1490 CURVE SMOOTH",
"176 1490 OFFCURVE",
"135 1448 OFFCURVE",
"135 1372 CURVE SMOOTH",
"135 437 LINE SMOOTH",
"135 323.667 OFFCURVE",
"149.333 233.667 OFFCURVE",
"178 167 CURVE SMOOTH",
"206.667 100.333 OFFCURVE",
"247.833 52.5 OFFCURVE",
"301.5 23.5 CURVE SMOOTH",
"355.167 -5.5 OFFCURVE",
"419.333 -20 OFFCURVE",
"494 -20 CURVE SMOOTH",
"577.333 -20 OFFCURVE",
"647.667 -3.167 OFFCURVE",
"705 30.5 CURVE SMOOTH",
"762.333 64.167 OFFCURVE",
"807.667 110.333 OFFCURVE",
"841 169 CURVE"
);
}
);
userData = {
assembly = "MPPEM[ ]	/* MeasurePixelPerEm */\012PUSHB[ ]	/* 1 value pushed */\01226 \012LT[ ]	/* LessThan */\012IF[ ]	/* If */\012NPUSHB[ ]	/* 10 values pushed */\01229 1 2 1 34 1 0 2 2 76 \012ELSE[ ]	/* Else */\012NPUSHB[ ]	/* 10 values pushed */\01229 1 2 1 34 1 6 2 2 76 \012EIF[ ]	/* EndIf */\012MPPEM[ ]	/* MeasurePixelPerEm */\012PUSHB[ ]	/* 1 value pushed */\01226 \012LT[ ]	/* LessThan */\012IF[ ]	/* If */\012NPUSHB[ ]	/* 21 values pushed */\0125 3 2 1 1 103 77 4 1 2 2 0 97 7 6 2 0 0 110 0 78 \012ELSE[ ]	/* Else */\012NPUSHB[ ]	/* 25 values pushed */\0125 3 2 1 1 103 77 0 6 6 104 77 4 1 2 2 0 97 7 1 0 0 110 0 78 \012EIF[ ]	/* EndIf */\012NPUSHB[ ]	/* 11 values pushed */\01235 17 19 36 21 36 20 34 8 12 30 \012CALL[ ]	/* CallFunction */";
};
width = 1823;
}
);
note = mcapturn;
unicode = 019C;
},
{
glyphname = N;
lastChange = "2024-07-06 18:41:23 +0000";
layers = (
{
layerId = "4A7900B8-4B55-405E-9DE7-28127A08AA09";
paths = (
{
closed = 1;
nodes = (
"136 118 LINE SMOOTH",
"136 42 OFFCURVE",
"175 0 OFFCURVE",
"247 0 CURVE SMOOTH",
"319 0 OFFCURVE",
"358 42 OFFCURVE",
"358 118 CURVE SMOOTH",
"358 806 LINE SMOOTH",
"358 839.333 OFFCURVE",
"357.5 887.5 OFFCURVE",
"356.5 950.5 CURVE SMOOTH",
"355.5 1013.5 OFFCURVE",
"353.333 1088.667 OFFCURVE",
"350 1176 CURVE",
"399.333 1091.333 OFFCURVE",
"443.5 1016.5 OFFCURVE",
"482.5 951.5 CURVE SMOOTH",
"521.5 886.5 OFFCURVE",
"551.333 837.667 OFFCURVE",
"572 805 CURVE SMOOTH",
"1032 78 LINE SMOOTH",
"1066 24 OFFCURVE",
"1109 0 OFFCURVE",
"1173 0 CURVE SMOOTH",
"1211 0 LINE SMOOTH",
"1287 0 OFFCURVE",
"1329 42 OFFCURVE",
"1329 118 CURVE SMOOTH",
"1329 1372 LINE SMOOTH",
"1329 1448 OFFCURVE",
"1290 1490 OFFCURVE",
"1218 1490 CURVE SMOOTH",
"1146 1490 OFFCURVE",
"1106 1448 OFFCURVE",
"1106 1372 CURVE SMOOTH",
"1106 603 LINE SMOOTH",
"1106 575.667 OFFCURVE",
"1106.5 534.167 OFFCURVE",
"1107.5 478.5 CURVE SMOOTH",
"1108.5 422.833 OFFCURVE",
"1110 368 OFFCURVE",
"1112 314 CURVE",
"1082 366.667 OFFCURVE",
"1052 418.667 OFFCURVE",
"1022 470 CURVE SMOOTH",
"992 521.333 OFFCURVE",
"968.333 561 OFFCURVE",
"951 589 CURVE SMOOTH",
"431 1412 LINE SMOOTH",
"397 1466 OFFCURVE",
"354 1490 OFFCURVE",
"290 1490 CURVE SMOOTH",
"254 1490 LINE SMOOTH",
"178 1490 OFFCURVE",
"136 1448 OFFCURVE",
"136 1372 CURVE SMOOTH"
);
}
);
userData = {
assembly = "NPUSHB[ ]	/* 33 values pushed */\01217 6 2 2 0 1 76 1 1 0 0 103 77 4 3 2 2 2 104 2 78 0 0 0 21 0 21 17 24 17 5 12 25 \012CALL[ ]	/* CallFunction */";
};
width = 1464;
}
);
leftKerningGroup = B;
note = N;
rightKerningGroup = Ereversed;
unicode = 004E;
},
{
glyphname = Eng;
lastChange = "2024-07-06 18:41:23 +0000";
layers = (
{
layerId = "4A7900B8-4B55-405E-9DE7-28127A08AA09";
paths = (
{
closed = 1;
nodes = (
"891 -385 OFFCURVE",
"933 -418 OFFCURVE",
"1009 -418 CURVE SMOOTH",
"1020 -418 LINE SMOOTH",
"1226 -418 OFFCURVE",
"1329 -327.333 OFFCURVE",
"1329 -146 CURVE SMOOTH",
"1329 1372 LINE SMOOTH",
"1329 1448 OFFCURVE",
"1290 1490 OFFCURVE",
"1218 1490 CURVE SMOOTH",
"1146 1490 OFFCURVE",
"1106 1448 OFFCURVE",
"1106 1372 CURVE SMOOTH",
"1106 603 LINE SMOOTH",
"1106 575.667 OFFCURVE",
"1106.5 534.167 OFFCURVE",
"1107.5 478.5 CURVE SMOOTH",
"1108.5 422.833 OFFCURVE",
"1110 368 OFFCURVE",
"1112 314 CURVE",
"1082 366.667 OFFCURVE",
"1052 418.667 OFFCURVE",
"1022 470 CURVE SMOOTH",
"992 521.333 OFFCURVE",
"968.333 561 OFFCURVE",
"951 589 CURVE SMOOTH",
"431 1412 LINE SMOOTH",
"397 1466 OFFCURVE",
"354 1490 OFFCURVE",
"290 1490 CURVE SMOOTH",
"254 1490 LINE SMOOTH",
"178 1490 OFFCURVE",
"136 1448 OFFCURVE",
"136 1372 CURVE SMOOTH",
"136 118 LINE SMOOTH",
"136 42 OFFCURVE",
"175 0 OFFCURVE",
"247 0 CURVE SMOOTH",
"319 0 OFFCURVE",
"358 42 OFFCURVE",
"358 118 CURVE SMOOTH",
"358 806 LINE SMOOTH",
"358 839.333 OFFCURVE",
"357.5 887.5 OFFCURVE",
"356.5 950.5 CURVE SMOOTH",
"355.5 1013.5 OFFCURVE",
"353.333 1088.667 OFFCURVE",
"350 1176 CURVE",
"399.333 1091.333 OFFCURVE",
"443.5 1016.5 OFFCURVE",
"482.5 951.5 CURVE SMOOTH",
"521.5 886.5 OFFCURVE",
"551.333 837.667 OFFCURVE",
"572 805 CURVE SMOOTH",
"1081 0 LINE",
"1106 0 LINE",
"1106 -136 LINE SMOOTH",
"1106 -170 OFFCURVE",
"1097.833 -194.5 OFFCURVE",
"1081.5 -209.5 CURVE SMOOTH",
"1065.167 -224.5 OFFCURVE",
"1037.333 -232 OFFCURVE",
"998 -232 CURVE SMOOTH",
"928 -232 OFFCURVE",
"891 -265 OFFCURVE",
"891 -325 CURVE SMOOTH"
);
}
);
userData = {
assembly = "NPUSHB[ ]	/* 45 values pushed */\01222 11 2 1 3 1 76 4 1 3 3 103 77 2 1 1 1 104 77 0 0 0 5 98 6 1 5 5 108 5 78 0 0 0 30 0 29 24 17 24 19 33 7 12 27 \012CALL[ ]	/* CallFunction */";
};
width = 1464;
}
);
leftKerningGroup = B;
note = Eng;
rightKerningGroup = Ereversed;
unicode = 014A;
},
{
glyphname = Nhookleft;
lastChange = "2024-07-06 18:41:23 +0000";
layers = (
{
layerId = "4A7900B8-4B55-405E-9DE7-28127A08AA09";
paths = (
{
closed = 1;
nodes = (
"-79 -385 OFFCURVE",
"-37 -418 OFFCURVE",
"39 -418 CURVE SMOOTH",
"50 -418 LINE SMOOTH",
"255.333 -418 OFFCURVE",
"358 -327.333 OFFCURVE",
"358 -146 CURVE SMOOTH",
"358 806 LINE SMOOTH",
"358 839.333 OFFCURVE",
"357.5 887.5 OFFCURVE",
"356.5 950.5 CURVE SMOOTH",
"355.5 1013.5 OFFCURVE",
"353.333 1088.667 OFFCURVE",
"350 1176 CURVE",
"399.333 1091.333 OFFCURVE",
"443.5 1016.5 OFFCURVE",
"482.5 951.5 CURVE SMOOTH",
"521.5 886.5 OFFCURVE",
"551.333 837.667 OFFCURVE",
"572 805 CURVE SMOOTH",
"1032 78 LINE SMOOTH",
"1066 24 OFFCURVE",
"1109 0 OFFCURVE",
"1173 0 CURVE SMOOTH",
"1211 0 LINE SMOOTH",
"1287 0 OFFCURVE",
"1329 42 OFFCURVE",
"1329 118 CURVE SMOOTH",
"1329 1372 LINE SMOOTH",
"1329 1448 OFFCURVE",
"1290 1490 OFFCURVE",
"1218 1490 CURVE SMOOTH",
"1146 1490 OFFCURVE",
"1106 1448 OFFCURVE",
"1106 1372 CURVE SMOOTH",
"1106 603 LINE SMOOTH",
"1106 575.667 OFFCURVE",
"1106.5 534.167 OFFCURVE",
"1107.5 478.5 CURVE SMOOTH",
"1108.5 422.833 OFFCURVE",
"1110 368 OFFCURVE",
"1112 314 CURVE",
"1082 366.667 OFFCURVE",
"1052 418.667 OFFCURVE",
"1022 470 CURVE SMOOTH",
"992 521.333 OFFCURVE",
"968.333 561 OFFCURVE",
"951 589 CURVE SMOOTH",
"431 1412 LINE SMOOTH",
"397 1466 OFFCURVE",
"354 1490 OFFCURVE",
"290 1490 CURVE SMOOTH",
"254 1490 LINE SMOOTH",
"178 1490 OFFCURVE",
"136 1448 OFFCURVE",
"136 1372 CURVE SMOOTH",
"136 -136 LINE SMOOTH",
"136 -170 OFFCURVE",
"127.833 -194.5 OFFCURVE",
"111.5 -209.5 CURVE SMOOTH",
"95.167 -224.5 OFFCURVE",
"67 -232 OFFCURVE",
"27 -232 CURVE SMOOTH",
"-42 -232 OFFCURVE",
"-79 -265 OFFCURVE",
"-79 -325 CURVE SMOOTH"
);
}
);
userData = {
assembly = "NPUSHB[ ]	/* 43 values pushed */\01222 11 2 3 1 1 76 2 1 1 1 103 77 0 3 3 104 77 0 0 0 4 98 5 1 4 4 108 4 78 0 0 0 28 0 27 17 24 19 33 6 12 26 \012CALL[ ]	/* CallFunction */";
};
width = 1464;
}
);
leftKerningGroup = Fhook;
note = Nhook;
rightKerningGroup = Ereversed;
unicode = 019D;
},
{
glyphname = Nlongrightleg;
lastChange = "2024-07-06 18:41:23 +0000";
layers = (
{
layerId = "4A7900B8-4B55-405E-9DE7-28127A08AA09";
paths = (
{
closed = 1;
nodes = (
"1125 -416 OFFCURVE",
"1166 -374 OFFCURVE",
"1166 -298 CURVE SMOOTH",
"1166 1031 LINE SMOOTH",
"1166 1135.667 OFFCURVE",
"1141.833 1223.667 OFFCURVE",
"1093.5 1295 CURVE SMOOTH",
"1045.167 1366.333 OFFCURVE",
"981.333 1420 OFFCURVE",
"902 1456 CURVE SMOOTH",
"822.667 1492 OFFCURVE",
"737 1510 OFFCURVE",
"645 1510 CURVE SMOOTH",
"585 1510 OFFCURVE",
"528.167 1502.833 OFFCURVE",
"474.5 1488.5 CURVE SMOOTH",
"420.833 1474.167 OFFCURVE",
"371.667 1454.667 OFFCURVE",
"327 1430 CURVE",
"327 1460 LINE SMOOTH",
"327 1479 OFFCURVE",
"286 1490 OFFCURVE",
"212 1490 CURVE SMOOTH",
"138 1490 OFFCURVE",
"97 1448 OFFCURVE",
"97 1372 CURVE SMOOTH",
"97 118 LINE SMOOTH",
"97 42 OFFCURVE",
"138 0 OFFCURVE",
"212 0 CURVE SMOOTH",
"286 0 OFFCURVE",
"327 42 OFFCURVE",
"327 118 CURVE SMOOTH",
"327 1240 LINE",
"370.333 1266 OFFCURVE",
"416.5 1286 OFFCURVE",
"465.5 1300 CURVE SMOOTH",
"514.5 1314 OFFCURVE",
"565.667 1321 OFFCURVE",
"619 1321 CURVE SMOOTH",
"719 1321 OFFCURVE",
"796.333 1297.833 OFFCURVE",
"851 1251.5 CURVE SMOOTH",
"905.667 1205.167 OFFCURVE",
"932.667 1131.667 OFFCURVE",
"932 1031 CURVE SMOOTH",
"932 -298 LINE SMOOTH",
"932 -374 OFFCURVE",
"973 -416 OFFCURVE",
"1049 -416 CURVE SMOOTH"
);
}
);
userData = {
assembly = "NPUSHB[ ]	/* 10 values pushed */\01213 1 1 3 8 1 2 1 2 76 \012MPPEM[ ]	/* MeasurePixelPerEm */\012PUSHB[ ]	/* 1 value pushed */\01226 \012LT[ ]	/* LessThan */\012IF[ ]	/* If */\012NPUSHB[ ]	/* 22 values pushed */\0120 1 1 3 97 4 1 3 3 103 77 0 2 2 104 77 0 0 0 108 0 78 \012ELSE[ ]	/* Else */\012NPUSHB[ ]	/* 26 values pushed */\0120 3 3 103 77 0 1 1 4 97 0 4 4 109 77 0 2 2 104 77 0 0 0 108 0 78 \012EIF[ ]	/* EndIf */\012PUSHB[ ]	/* 8 values pushed */\01235 17 19 35 16 5 12 27 \012CALL[ ]	/* CallFunction */";
};
width = 1259;
}
);
note = uni0220;
unicode = 0220;
},
{
glyphname = O;
lastChange = "2024-07-06 18:41:23 +0000";
layers = (
{
layerId = "4A7900B8-4B55-405E-9DE7-28127A08AA09";
paths = (
{
closed = 1;
nodes = (
"898.667 -24 OFFCURVE",
"1016.667 8.333 OFFCURVE",
"1120 73 CURVE SMOOTH",
"1223.333 137.667 OFFCURVE",
"1304.5 227.667 OFFCURVE",
"1363.5 343 CURVE SMOOTH",
"1422.5 458.333 OFFCURVE",
"1452 592 OFFCURVE",
"1452 744 CURVE SMOOTH",
"1452 896.667 OFFCURVE",
"1422.5 1030.833 OFFCURVE",
"1363.5 1146.5 CURVE SMOOTH",
"1304.5 1262.167 OFFCURVE",
"1223.333 1352.333 OFFCURVE",
"1120 1417 CURVE SMOOTH",
"1016.667 1481.667 OFFCURVE",
"898.667 1514 OFFCURVE",
"766 1514 CURVE SMOOTH",
"634 1514 OFFCURVE",
"516.333 1481.667 OFFCURVE",
"413 1417 CURVE SMOOTH",
"309.667 1352.333 OFFCURVE",
"228.5 1262.167 OFFCURVE",
"169.5 1146.5 CURVE SMOOTH",
"110.5 1030.833 OFFCURVE",
"81 896.667 OFFCURVE",
"81 744 CURVE SMOOTH",
"81 592 OFFCURVE",
"110.5 458.333 OFFCURVE",
"169.5 343 CURVE SMOOTH",
"228.5 227.667 OFFCURVE",
"309.667 137.667 OFFCURVE",
"413 73 CURVE SMOOTH",
"516.333 8.333 OFFCURVE",
"634 -24 OFFCURVE",
"766 -24 CURVE SMOOTH"
);
},
{
closed = 1;
nodes = (
"680.667 179 OFFCURVE",
"603 200.833 OFFCURVE",
"533 244.5 CURVE SMOOTH",
"463 288.167 OFFCURVE",
"407.333 352.167 OFFCURVE",
"366 436.5 CURVE SMOOTH",
"324.667 520.833 OFFCURVE",
"304 623.333 OFFCURVE",
"304 744 CURVE SMOOTH",
"304 865.333 OFFCURVE",
"324.667 968.333 OFFCURVE",
"366 1053 CURVE SMOOTH",
"407.333 1137.667 OFFCURVE",
"463 1201.833 OFFCURVE",
"533 1245.5 CURVE SMOOTH",
"603 1289.167 OFFCURVE",
"680.667 1311 OFFCURVE",
"766 1311 CURVE SMOOTH",
"852 1311 OFFCURVE",
"930 1289.167 OFFCURVE",
"1000 1245.5 CURVE SMOOTH",
"1070 1201.833 OFFCURVE",
"1125.667 1137.667 OFFCURVE",
"1167 1053 CURVE SMOOTH",
"1208.333 968.333 OFFCURVE",
"1229 865.333 OFFCURVE",
"1229 744 CURVE SMOOTH",
"1229 623.333 OFFCURVE",
"1208.333 520.833 OFFCURVE",
"1167 436.5 CURVE SMOOTH",
"1125.667 352.167 OFFCURVE",
"1070 288.167 OFFCURVE",
"1000 244.5 CURVE SMOOTH",
"930 200.833 OFFCURVE",
"852 179 OFFCURVE",
"766 179 CURVE SMOOTH"
);
}
);
userData = {
assembly = "MPPEM[ ]	/* MeasurePixelPerEm */\012PUSHB[ ]	/* 1 value pushed */\01250 \012LT[ ]	/* LessThan */\012IF[ ]	/* If */\012NPUSHB[ ]	/* 23 values pushed */\0120 3 3 1 97 0 1 1 109 77 5 1 2 2 0 97 4 1 0 0 110 0 78 \012ELSE[ ]	/* Else */\012NPUSHB[ ]	/* 21 values pushed */\0120 1 0 3 2 1 3 105 5 1 2 2 0 97 4 1 0 0 110 0 78 \012EIF[ ]	/* EndIf */\012NPUSHB[ ]	/* 19 values pushed */\01217 16 1 0 25 23 16 31 17 31 9 7 0 15 1 15 6 12 22 \012CALL[ ]	/* CallFunction */";
};
width = 1533;
}
);
leftKerningGroup = C;
note = O;
rightKerningGroup = Oopen;
unicode = 004F;
},
{
glyphname = OU;
lastChange = "2024-07-06 18:41:23 +0000";
layers = (
{
layerId = "4A7900B8-4B55-405E-9DE7-28127A08AA09";
paths = (
{
closed = 1;
nodes = (
"553.667 914 OFFCURVE",
"501.5 918.833 OFFCURVE",
"454.5 928.5 CURVE SMOOTH",
"407.5 938.167 OFFCURVE",
"370.167 958.167 OFFCURVE",
"342.5 988.5 CURVE SMOOTH",
"314.833 1018.833 OFFCURVE",
"301 1064.333 OFFCURVE",
"301 1125 CURVE SMOOTH",
"301 1183 OFFCURVE",
"315 1227.667 OFFCURVE",
"343 1259 CURVE SMOOTH",
"358 1276 OFFCURVE",
"377 1290 OFFCURVE",
"401 1302 CURVE SMOOTH",
"446 1324 OFFCURVE",
"470 1356 OFFCURVE",
"470 1418 CURVE SMOOTH",
"470 1476 OFFCURVE",
"423 1513 OFFCURVE",
"345 1493 CURVE SMOOTH",
"315 1485 OFFCURVE",
"287 1475 OFFCURVE",
"260 1462.5 CURVE SMOOTH",
"198 1433.5 OFFCURVE",
"149.167 1391 OFFCURVE",
"113.5 1335 CURVE SMOOTH",
"77.833 1279 OFFCURVE",
"60 1209 OFFCURVE",
"60 1125 CURVE SMOOTH",
"60 1044.333 OFFCURVE",
"77.333 978 OFFCURVE",
"112 926 CURVE SMOOTH",
"146.667 874 OFFCURVE",
"193.667 833.333 OFFCURVE",
"253 804 CURVE",
"193 766 OFFCURVE",
"145.833 716.833 OFFCURVE",
"111.5 656.5 CURVE SMOOTH",
"77.167 596.167 OFFCURVE",
"60 525 OFFCURVE",
"60 443 CURVE SMOOTH",
"60 341 OFFCURVE",
"84.333 255.667 OFFCURVE",
"133 187 CURVE SMOOTH",
"181.667 118.333 OFFCURVE",
"248 66.667 OFFCURVE",
"332 32 CURVE SMOOTH",
"416 -2.667 OFFCURVE",
"511.333 -20 OFFCURVE",
"618 -20 CURVE SMOOTH",
"641 -20 LINE SMOOTH",
"747.667 -20 OFFCURVE",
"842.833 -2.667 OFFCURVE",
"926.5 32 CURVE SMOOTH",
"1010.167 66.667 OFFCURVE",
"1076.333 118.5 OFFCURVE",
"1125 187.5 CURVE SMOOTH",
"1173.667 256.5 OFFCURVE",
"1198 342.333 OFFCURVE",
"1198 445 CURVE SMOOTH",
"1198 527 OFFCURVE",
"1180.833 598 OFFCURVE",
"1146.5 658 CURVE SMOOTH",
"1112.167 718 OFFCURVE",
"1065.333 766.667 OFFCURVE",
"1006 804 CURVE",
"1064.667 833.333 OFFCURVE",
"1111.5 874 OFFCURVE",
"1146.5 926 CURVE SMOOTH",
"1181.5 978 OFFCURVE",
"1199 1044.333 OFFCURVE",
"1199 1125 CURVE SMOOTH",
"1199 1209 OFFCURVE",
"1181.333 1279 OFFCURVE",
"1146 1335 CURVE SMOOTH",
"1110.667 1391 OFFCURVE",
"1062 1433.5 OFFCURVE",
"1000 1462.5 CURVE SMOOTH",
"968 1477 OFFCURVE",
"934 1489 OFFCURVE",
"897 1497 CURVE SMOOTH",
"829 1512 OFFCURVE",
"789 1476 OFFCURVE",
"789 1418 CURVE SMOOTH",
"789 1356 OFFCURVE",
"824 1326 OFFCURVE",
"881 1289 CURVE SMOOTH",
"895 1280 OFFCURVE",
"907 1270 OFFCURVE",
"916.5 1259 CURVE SMOOTH",
"944.833 1227.667 OFFCURVE",
"959 1183 OFFCURVE",
"959 1125 CURVE SMOOTH",
"959 1064.333 OFFCURVE",
"945 1019 OFFCURVE",
"917 989 CURVE SMOOTH",
"889 959 OFFCURVE",
"851.5 939 OFFCURVE",
"804.5 929 CURVE SMOOTH",
"757.5 919 OFFCURVE",
"705 914 OFFCURVE",
"647 914 CURVE SMOOTH",
"611 914 LINE SMOOTH"
);
},
{
closed = 1;
nodes = (
"737 717 OFFCURVE",
"813.833 694.333 OFFCURVE",
"871.5 649 CURVE SMOOTH",
"929.167 603.667 OFFCURVE",
"958 535.667 OFFCURVE",
"958 445 CURVE SMOOTH",
"958 351.667 OFFCURVE",
"929.167 283.333 OFFCURVE",
"871.5 240 CURVE SMOOTH",
"813.833 196.667 OFFCURVE",
"737 175.333 OFFCURVE",
"641 176 CURVE SMOOTH",
"618 176 LINE SMOOTH",
"522 176 OFFCURVE",
"445.167 197.5 OFFCURVE",
"387.5 240.5 CURVE SMOOTH",
"329.833 283.5 OFFCURVE",
"301 351 OFFCURVE",
"301 443 CURVE SMOOTH",
"301 534.333 OFFCURVE",
"329.833 602.833 OFFCURVE",
"387.5 648.5 CURVE SMOOTH",
"445.167 694.167 OFFCURVE",
"522 717 OFFCURVE",
"618 717 CURVE SMOOTH",
"641 717 LINE SMOOTH"
);
}
);
userData = {
assembly = "NPUSHB[ ]	/* 62 values pushed */\01239 8 2 0 1 31 16 2 4 0 2 76 6 1 0 7 1 4 5 0 4 105 3 1 1 1 109 77 0 5 5 2 98 0 2 2 110 2 78 48 46 2 0 55 52 46 59 48 59 38 37 25 22 10 9 0 45 2 45 8 12 22 \012CALL[ ]	/* CallFunction */";
};
width = 1258;
}
);
note = uni0222;
unicode = 0222;
},
{
glyphname = Ohorn;
lastChange = "2024-07-06 18:41:23 +0000";
layers = (
{
layerId = "4A7900B8-4B55-405E-9DE7-28127A08AA09";
paths = (
{
closed = 1;
nodes = (
"898.667 -24 OFFCURVE",
"1016.667 8.333 OFFCURVE",
"1120 73 CURVE SMOOTH",
"1223.333 137.667 OFFCURVE",
"1304.5 227.667 OFFCURVE",
"1363.5 343 CURVE SMOOTH",
"1422.5 458.333 OFFCURVE",
"1452 592 OFFCURVE",
"1452 744 CURVE SMOOTH",
"1452 868 OFFCURVE",
"1432 980.333 OFFCURVE",
"1392 1081 CURVE SMOOTH",
"1352 1181.667 OFFCURVE",
"1296.667 1266 OFFCURVE",
"1226 1334 CURVE",
"1239.333 1333.333 OFFCURVE",
"1252.667 1333 OFFCURVE",
"1266 1333 CURVE SMOOTH",
"1326 1333 OFFCURVE",
"1372 1347.667 OFFCURVE",
"1404 1377 CURVE SMOOTH",
"1436 1406.333 OFFCURVE",
"1452 1451 OFFCURVE",
"1452 1511 CURVE SMOOTH",
"1452 1612 LINE SMOOTH",
"1452 1688 OFFCURVE",
"1416 1730 OFFCURVE",
"1351 1730 CURVE SMOOTH",
"1286 1730 OFFCURVE",
"1250 1688 OFFCURVE",
"1250 1612 CURVE SMOOTH",
"1250 1511 LINE SMOOTH",
"1250 1497 OFFCURVE",
"1243 1490 OFFCURVE",
"1229 1490 CURVE SMOOTH",
"1160.333 1490 OFFCURVE",
"1104.5 1491.167 OFFCURVE",
"1061.5 1493.5 CURVE SMOOTH",
"1018.5 1495.833 OFFCURVE",
"982.167 1498.667 OFFCURVE",
"952.5 1502 CURVE SMOOTH",
"922.833 1505.333 OFFCURVE",
"894 1508.167 OFFCURVE",
"866 1510.5 CURVE SMOOTH",
"838 1512.833 OFFCURVE",
"804.667 1514 OFFCURVE",
"766 1514 CURVE SMOOTH",
"634 1514 OFFCURVE",
"516.333 1481.667 OFFCURVE",
"413 1417 CURVE SMOOTH",
"309.667 1352.333 OFFCURVE",
"228.5 1262.167 OFFCURVE",
"169.5 1146.5 CURVE SMOOTH",
"110.5 1030.833 OFFCURVE",
"81 896.667 OFFCURVE",
"81 744 CURVE SMOOTH",
"81 592 OFFCURVE",
"110.5 458.333 OFFCURVE",
"169.5 343 CURVE SMOOTH",
"228.5 227.667 OFFCURVE",
"309.667 137.667 OFFCURVE",
"413 73 CURVE SMOOTH",
"516.333 8.333 OFFCURVE",
"634 -24 OFFCURVE",
"766 -24 CURVE SMOOTH"
);
},
{
closed = 1;
nodes = (
"680.667 179 OFFCURVE",
"603 200.833 OFFCURVE",
"533 244.5 CURVE SMOOTH",
"463 288.167 OFFCURVE",
"407.333 352.167 OFFCURVE",
"366 436.5 CURVE SMOOTH",
"324.667 520.833 OFFCURVE",
"304 623.333 OFFCURVE",
"304 744 CURVE SMOOTH",
"304 865.333 OFFCURVE",
"324.667 968.333 OFFCURVE",
"366 1053 CURVE SMOOTH",
"407.333 1137.667 OFFCURVE",
"463 1201.833 OFFCURVE",
"533 1245.5 CURVE SMOOTH",
"603 1289.167 OFFCURVE",
"680.667 1311 OFFCURVE",
"766 1311 CURVE SMOOTH",
"852 1311 OFFCURVE",
"930 1289.167 OFFCURVE",
"1000 1245.5 CURVE SMOOTH",
"1070 1201.833 OFFCURVE",
"1125.667 1137.667 OFFCURVE",
"1167 1053 CURVE SMOOTH",
"1208.333 968.333 OFFCURVE",
"1229 865.333 OFFCURVE",
"1229 744 CURVE SMOOTH",
"1229 623.333 OFFCURVE",
"1208.333 520.833 OFFCURVE",
"1167 436.5 CURVE SMOOTH",
"1125.667 352.167 OFFCURVE",
"1070 288.167 OFFCURVE",
"1000 244.5 CURVE SMOOTH",
"930 200.833 OFFCURVE",
"852 179 OFFCURVE",
"766 179 CURVE SMOOTH"
);
}
);
userData = {
assembly = "MPPEM[ ]	/* MeasurePixelPerEm */\012PUSHB[ ]	/* 1 value pushed */\01212 \012LT[ ]	/* LessThan */\012IF[ ]	/* If */\012NPUSHB[ ]	/* 31 values pushed */\0120 3 1 1 3 112 6 1 4 4 1 97 2 1 1 1 109 77 8 1 5 5 0 97 7 1 0 0 110 0 78 \012ELSE[ ]	/* Else */\012MPPEM[ ]	/* MeasurePixelPerEm */\012PUSHB[ ]	/* 1 value pushed */\01223 \012LT[ ]	/* LessThan */\012IF[ ]	/* If */\012NPUSHB[ ]	/* 30 values pushed */\0120 3 1 3 133 6 1 4 4 1 97 2 1 1 1 109 77 8 1 5 5 0 97 7 1 0 0 110 0 78 \012ELSE[ ]	/* Else */\012MPPEM[ ]	/* MeasurePixelPerEm */\012PUSHB[ ]	/* 1 value pushed */\01224 \012LT[ ]	/* LessThan */\012IF[ ]	/* If */\012NPUSHB[ ]	/* 40 values pushed */\0120 3 1 3 133 0 4 4 1 97 2 1 1 1 109 77 0 6 6 1 97 2 1 1 1 109 77 8 1 5 5 0 97 7 1 0 0 110 0 78 \012ELSE[ ]	/* Else */\012MPPEM[ ]	/* MeasurePixelPerEm */\012PUSHB[ ]	/* 1 value pushed */\01250 \012LT[ ]	/* LessThan */\012IF[ ]	/* If */\012NPUSHB[ ]	/* 38 values pushed */\0120 3 1 3 133 0 4 4 2 97 0 2 2 109 77 0 6 6 1 97 0 1 1 109 77 8 1 5 5 0 97 7 1 0 0 110 0 78 \012ELSE[ ]	/* Else */\012NPUSHB[ ]	/* 36 values pushed */\0120 3 1 3 133 0 1 0 6 5 1 6 105 0 4 4 2 97 0 2 2 109 77 8 1 5 5 0 97 7 1 0 0 110 0 78 \012EIF[ ]	/* EndIf */\012EIF[ ]	/* EndIf */\012EIF[ ]	/* EndIf */\012EIF[ ]	/* EndIf */\012NPUSHB[ ]	/* 25 values pushed */\01231 30 1 0 39 37 30 45 31 45 23 20 17 16 14 11 9 7 0 29 1 29 9 12 22 \012CALL[ ]	/* CallFunction */";
};
width = 1533;
}
);
leftKerningGroup = C;
note = Ohorn;
rightKerningGroup = Ohorn;
unicode = 01A0;
},
{
glyphname = Oi;
lastChange = "2024-07-06 18:41:23 +0000";
layers = (
{
layerId = "4A7900B8-4B55-405E-9DE7-28127A08AA09";
paths = (
{
closed = 1;
nodes = (
"1618 1372 LINE SMOOTH",
"1618 1448 OFFCURVE",
"1582 1490 OFFCURVE",
"1517 1490 CURVE SMOOTH",
"1462 1490 OFFCURVE",
"1421 1482 OFFCURVE",
"1371 1461 CURVE SMOOTH",
"1167 1374 LINE",
"1117 1414.667 OFFCURVE",
"1054.667 1447.5 OFFCURVE",
"980 1472.5 CURVE SMOOTH",
"905.333 1497.5 OFFCURVE",
"824.333 1510 OFFCURVE",
"737 1510 CURVE SMOOTH",
"601 1510 OFFCURVE",
"484.5 1482.167 OFFCURVE",
"387.5 1426.5 CURVE SMOOTH",
"290.5 1370.833 OFFCURVE",
"216.167 1290.833 OFFCURVE",
"164.5 1186.5 CURVE SMOOTH",
"112.833 1082.167 OFFCURVE",
"87 956.667 OFFCURVE",
"87 810 CURVE SMOOTH",
"87 680 LINE SMOOTH",
"87 536 OFFCURVE",
"112.167 411.667 OFFCURVE",
"162.5 307 CURVE SMOOTH",
"212.833 202.333 OFFCURVE",
"285.5 121.667 OFFCURVE",
"380.5 65 CURVE SMOOTH",
"475.5 8.333 OFFCURVE",
"589.333 -20 OFFCURVE",
"722 -20 CURVE SMOOTH",
"838.667 -20 OFFCURVE",
"943.167 -0.333 OFFCURVE",
"1035.5 39 CURVE SMOOTH",
"1096 65 OFFCURVE",
"1147 96 OFFCURVE",
"1187 133 CURVE SMOOTH",
"1230 174 OFFCURVE",
"1241 218 OFFCURVE",
"1241 276 CURVE SMOOTH",
"1241 1185 LINE",
"1387 1242 LINE",
"1387 -300 LINE SMOOTH",
"1387 -376 OFFCURVE",
"1428 -418 OFFCURVE",
"1503 -418 CURVE SMOOTH",
"1578 -418 OFFCURVE",
"1618 -376 OFFCURVE",
"1618 -300 CURVE SMOOTH"
);
},
{
closed = 1;
nodes = (
"328 810 LINE SMOOTH",
"328 974.667 OFFCURVE",
"361.5 1100.167 OFFCURVE",
"428.5 1186.5 CURVE SMOOTH",
"495.5 1272.833 OFFCURVE",
"598.667 1316 OFFCURVE",
"738 1316 CURVE SMOOTH",
"794.667 1316 OFFCURVE",
"847.333 1307.667 OFFCURVE",
"896 1291 CURVE SMOOTH",
"944.667 1274.333 OFFCURVE",
"982.667 1251 OFFCURVE",
"1010 1221 CURVE",
"1010 266 LINE",
"980 235.333 OFFCURVE",
"940.833 212 OFFCURVE",
"892.5 196 CURVE SMOOTH",
"844.167 180 OFFCURVE",
"791.667 172 OFFCURVE",
"735 172 CURVE SMOOTH",
"596.333 172 OFFCURVE",
"493.833 216.833 OFFCURVE",
"427.5 306.5 CURVE SMOOTH",
"361.167 396.167 OFFCURVE",
"328 520.667 OFFCURVE",
"328 680 CURVE SMOOTH"
);
}
);
userData = {
assembly = "MPPEM[ ]	/* MeasurePixelPerEm */\012PUSHB[ ]	/* 1 value pushed */\01226 \012LT[ ]	/* LessThan */\012IF[ ]	/* If */\012NPUSHB[ ]	/* 14 values pushed */\01220 1 5 2 30 29 5 4 3 5 4 5 2 76 \012ELSE[ ]	/* Else */\012NPUSHB[ ]	/* 14 values pushed */\01220 1 5 3 30 29 5 4 3 5 4 5 2 76 \012EIF[ ]	/* EndIf */\012MPPEM[ ]	/* MeasurePixelPerEm */\012PUSHB[ ]	/* 1 value pushed */\01226 \012LT[ ]	/* LessThan */\012IF[ ]	/* If */\012NPUSHB[ ]	/* 28 values pushed */\0120 5 5 2 97 6 3 2 2 2 109 77 0 4 4 1 97 0 1 1 110 77 0 0 0 108 0 78 \012ELSE[ ]	/* Else */\012NPUSHB[ ]	/* 32 values pushed */\0126 1 3 3 103 77 0 5 5 2 97 0 2 2 109 77 0 4 4 1 97 0 1 1 110 77 0 0 0 108 0 78 \012EIF[ ]	/* EndIf */\012NPUSHB[ ]	/* 16 values pushed */\0120 0 34 32 27 25 0 21 0 21 39 37 17 7 12 25 \012CALL[ ]	/* CallFunction */";
};
width = 1753;
}
);
note = OI;
unicode = 01A2;
},
{
glyphname = Oopen;
lastChange = "2024-07-06 18:41:23 +0000";
layers = (
{
layerId = "4A7900B8-4B55-405E-9DE7-28127A08AA09";
paths = (
{
closed = 1;
nodes = (
"597 1514 OFFCURVE",
"498.833 1492.833 OFFCURVE",
"410.5 1450.5 CURVE SMOOTH",
"322.167 1408.167 OFFCURVE",
"248.833 1348.167 OFFCURVE",
"190.5 1270.5 CURVE SMOOTH",
"158 1227 OFFCURVE",
"132 1180 OFFCURVE",
"112 1128 CURVE SMOOTH",
"82 1048 OFFCURVE",
"125 996 OFFCURVE",
"201 996 CURVE SMOOTH",
"270 996 OFFCURVE",
"306 1029 OFFCURVE",
"336 1092 CURVE SMOOTH",
"362 1148 OFFCURVE",
"398 1193 OFFCURVE",
"445 1229 CURVE SMOOTH",
"516.333 1283.667 OFFCURVE",
"602.667 1311 OFFCURVE",
"704 1311 CURVE SMOOTH",
"802 1311 OFFCURVE",
"886.333 1287.333 OFFCURVE",
"957 1240 CURVE SMOOTH",
"1027.667 1192.667 OFFCURVE",
"1082.167 1126.667 OFFCURVE",
"1120.5 1042 CURVE SMOOTH",
"1158.833 957.333 OFFCURVE",
"1178 858.667 OFFCURVE",
"1178 746 CURVE SMOOTH",
"1178 633.333 OFFCURVE",
"1158.833 534.333 OFFCURVE",
"1120.5 449 CURVE SMOOTH",
"1082.167 363.667 OFFCURVE",
"1027.667 297.333 OFFCURVE",
"957 250 CURVE SMOOTH",
"886.333 202.667 OFFCURVE",
"802 179 OFFCURVE",
"704 179 CURVE SMOOTH",
"602 179 OFFCURVE",
"515.333 206.5 OFFCURVE",
"444 261.5 CURVE SMOOTH",
"397 297 OFFCURVE",
"361 343 OFFCURVE",
"336 399 CURVE SMOOTH",
"307 463 OFFCURVE",
"271 496 OFFCURVE",
"202 496 CURVE SMOOTH",
"191 496 LINE SMOOTH",
"121 496 OFFCURVE",
"82 444 OFFCURVE",
"113 364 CURVE SMOOTH",
"132 312 OFFCURVE",
"159 264 OFFCURVE",
"191 220.5 CURVE SMOOTH",
"249 142.833 OFFCURVE",
"322.167 82.667 OFFCURVE",
"410.5 40 CURVE SMOOTH",
"498.833 -2.667 OFFCURVE",
"597 -24 OFFCURVE",
"705 -24 CURVE SMOOTH",
"842.333 -24 OFFCURVE",
"963.333 8.333 OFFCURVE",
"1068 73 CURVE SMOOTH",
"1172.667 137.667 OFFCURVE",
"1254.333 227.667 OFFCURVE",
"1313 343 CURVE SMOOTH",
"1371.667 458.333 OFFCURVE",
"1401 592.667 OFFCURVE",
"1401 746 CURVE SMOOTH",
"1401 898 OFFCURVE",
"1371.5 1031.667 OFFCURVE",
"1312.5 1147 CURVE SMOOTH",
"1253.5 1262.333 OFFCURVE",
"1171.833 1352.333 OFFCURVE",
"1067.5 1417 CURVE SMOOTH",
"963.167 1481.667 OFFCURVE",
"842.333 1514 OFFCURVE",
"705 1514 CURVE SMOOTH"
);
}
);
userData = {
assembly = "MPPEM[ ]	/* MeasurePixelPerEm */\012PUSHB[ ]	/* 1 value pushed */\01250 \012LT[ ]	/* LessThan */\012IF[ ]	/* If */\012NPUSHB[ ]	/* 37 values pushed */\0120 5 4 2 4 5 2 128 0 2 3 4 2 3 126 0 4 4 0 97 6 1 0 0 109 77 0 3 3 1 97 0 1 1 110 1 78 \012ELSE[ ]	/* Else */\012NPUSHB[ ]	/* 35 values pushed */\0120 5 4 2 4 5 2 128 0 2 3 4 2 3 126 6 1 0 0 4 5 0 4 105 0 3 3 1 97 0 1 1 110 1 78 \012EIF[ ]	/* EndIf */\012NPUSHB[ ]	/* 19 values pushed */\0121 0 28 27 25 23 17 15 13 12 9 7 0 31 1 31 7 12 22 \012CALL[ ]	/* CallFunction */";
};
width = 1482;
}
);
leftKerningGroup = C;
note = uni0186;
rightKerningGroup = Oopen;
unicode = 0186;
},
{
glyphname = OE;
lastChange = "2024-07-06 18:41:23 +0000";
layers = (
{
layerId = "4A7900B8-4B55-405E-9DE7-28127A08AA09";
paths = (
{
closed = 1;
nodes = (
"1864 0 LINE SMOOTH",
"1940 0 OFFCURVE",
"1982 35 OFFCURVE",
"1982 98 CURVE SMOOTH",
"1982 161 OFFCURVE",
"1940 195 OFFCURVE",
"1864 195 CURVE SMOOTH",
"1202 195 LINE",
"1202 663 LINE",
"1806 663 LINE SMOOTH",
"1882 663 OFFCURVE",
"1924 697 OFFCURVE",
"1924 760 CURVE SMOOTH",
"1924 822 OFFCURVE",
"1882 856 OFFCURVE",
"1806 856 CURVE SMOOTH",
"1202 856 LINE",
"1202 1295 LINE",
"1864 1295 LINE SMOOTH",
"1940 1295 OFFCURVE",
"1982 1330 OFFCURVE",
"1982 1393 CURVE SMOOTH",
"1982 1456 OFFCURVE",
"1940 1490 OFFCURVE",
"1864 1490 CURVE SMOOTH",
"784 1490 LINE SMOOTH",
"637.333 1490 OFFCURVE",
"511.667 1460 OFFCURVE",
"407 1400 CURVE SMOOTH",
"302.333 1340 OFFCURVE",
"221.833 1254.5 OFFCURVE",
"165.5 1143.5 CURVE SMOOTH",
"109.167 1032.5 OFFCURVE",
"81 900.333 OFFCURVE",
"81 747 CURVE SMOOTH",
"81 593 OFFCURVE",
"109.167 460.167 OFFCURVE",
"165.5 348.5 CURVE SMOOTH",
"221.833 236.833 OFFCURVE",
"303.5 150.833 OFFCURVE",
"410.5 90.5 CURVE SMOOTH",
"517.5 30.167 OFFCURVE",
"647 0 OFFCURVE",
"799 0 CURVE SMOOTH"
);
},
{
closed = 1;
nodes = (
"980 193 LINE",
"812 193 LINE SMOOTH",
"638.667 193 OFFCURVE",
"509.833 242 OFFCURVE",
"425.5 340 CURVE SMOOTH",
"341.167 438 OFFCURVE",
"299 573.667 OFFCURVE",
"299 747 CURVE SMOOTH",
"299 919.667 OFFCURVE",
"340.667 1054.5 OFFCURVE",
"424 1151.5 CURVE SMOOTH",
"507.333 1248.5 OFFCURVE",
"632 1297 OFFCURVE",
"798 1297 CURVE SMOOTH",
"980 1297 LINE"
);
}
);
userData = {
assembly = "NPUSHB[ ]	/* 60 values pushed */\0120 3 0 4 5 3 4 103 6 1 2 2 1 95 0 1 1 103 77 9 7 2 5 5 0 95 8 1 0 0 104 0 78 19 19 1 0 19 27 19 26 22 20 17 16 15 14 13 12 11 10 9 7 0 18 1 18 10 12 22 \012CALL[ ]	/* CallFunction */";
};
width = 2050;
}
);
leftKerningGroup = C;
note = OE;
rightKerningGroup = AE;
unicode = 0152;
},
{
glyphname = P;
lastChange = "2024-07-06 18:41:23 +0000";
layers = (
{
layerId = "4A7900B8-4B55-405E-9DE7-28127A08AA09";
paths = (
{
closed = 1;
nodes = (
"136 118 LINE SMOOTH",
"136 42 OFFCURVE",
"175 0 OFFCURVE",
"247 0 CURVE SMOOTH",
"319 0 OFFCURVE",
"358 42 OFFCURVE",
"358 118 CURVE SMOOTH",
"358 561 LINE",
"681 561 LINE SMOOTH",
"787.667 561 OFFCURVE",
"880.333 579.833 OFFCURVE",
"959 617.5 CURVE SMOOTH",
"1037.667 655.167 OFFCURVE",
"1098.667 708.833 OFFCURVE",
"1142 778.5 CURVE SMOOTH",
"1185.333 848.167 OFFCURVE",
"1207 930.667 OFFCURVE",
"1207 1026 CURVE SMOOTH",
"1207 1168.667 OFFCURVE",
"1160.333 1281.667 OFFCURVE",
"1067 1365 CURVE SMOOTH",
"973.667 1448.333 OFFCURVE",
"847.333 1490 OFFCURVE",
"688 1490 CURVE SMOOTH",
"254 1490 LINE SMOOTH",
"178 1490 OFFCURVE",
"136 1448 OFFCURVE",
"136 1372 CURVE SMOOTH"
);
},
{
closed = 1;
nodes = (
"358 753 LINE",
"358 1297 LINE",
"677 1297 LINE SMOOTH",
"773 1297 OFFCURVE",
"848.833 1272.833 OFFCURVE",
"904.5 1224.5 CURVE SMOOTH",
"960.167 1176.167 OFFCURVE",
"988 1110 OFFCURVE",
"988 1026 CURVE SMOOTH",
"988 942 OFFCURVE",
"960.167 875.5 OFFCURVE",
"904.5 826.5 CURVE SMOOTH",
"848.833 777.5 OFFCURVE",
"773 753 OFFCURVE",
"677 753 CURVE SMOOTH"
);
}
);
userData = {
assembly = "NPUSHB[ ]	/* 40 values pushed */\0120 3 0 1 2 3 1 103 0 4 4 0 95 0 0 0 103 77 5 1 2 2 104 2 78 0 0 20 18 14 12 0 11 0 11 37 33 6 12 24 \012CALL[ ]	/* CallFunction */";
};
width = 1266;
}
);
leftKerningGroup = B;
note = P;
rightKerningGroup = P;
unicode = 0050;
},
{
glyphname = Phook;
lastChange = "2024-07-06 18:41:23 +0000";
layers = (
{
layerId = "4A7900B8-4B55-405E-9DE7-28127A08AA09";
paths = (
{
closed = 1;
nodes = (
"40 1162 LINE SMOOTH",
"40 1086 OFFCURVE",
"77 1044 OFFCURVE",
"144 1044 CURVE SMOOTH",
"211 1044 OFFCURVE",
"248 1086 OFFCURVE",
"248 1162 CURVE SMOOTH",
"248 1204 LINE SMOOTH",
"248 1236.667 OFFCURVE",
"256.5 1260.5 OFFCURVE",
"273.5 1275.5 CURVE SMOOTH",
"290.5 1290.5 OFFCURVE",
"318.333 1298 OFFCURVE",
"357 1298 CURVE SMOOTH",
"452 1298 LINE",
"452 118 LINE SMOOTH",
"452 42 OFFCURVE",
"491 0 OFFCURVE",
"563 0 CURVE SMOOTH",
"635 0 OFFCURVE",
"674 42 OFFCURVE",
"674 118 CURVE SMOOTH",
"674 561 LINE",
"997 561 LINE SMOOTH",
"1103.667 561 OFFCURVE",
"1196.333 579.833 OFFCURVE",
"1275 617.5 CURVE SMOOTH",
"1353.667 655.167 OFFCURVE",
"1414.667 708.833 OFFCURVE",
"1458 778.5 CURVE SMOOTH",
"1501.333 848.167 OFFCURVE",
"1523 930.667 OFFCURVE",
"1523 1026 CURVE SMOOTH",
"1523 1168.667 OFFCURVE",
"1476.333 1281.667 OFFCURVE",
"1383 1365 CURVE SMOOTH",
"1289.667 1448.333 OFFCURVE",
"1163.333 1490 OFFCURVE",
"1004 1490 CURVE SMOOTH",
"330 1490 LINE SMOOTH",
"136.667 1490 OFFCURVE",
"40 1399 OFFCURVE",
"40 1217 CURVE SMOOTH"
);
},
{
closed = 1;
nodes = (
"674 753 LINE",
"674 1297 LINE",
"993 1297 LINE SMOOTH",
"1089 1297 OFFCURVE",
"1164.833 1272.833 OFFCURVE",
"1220.5 1224.5 CURVE SMOOTH",
"1276.167 1176.167 OFFCURVE",
"1304 1110 OFFCURVE",
"1304 1026 CURVE SMOOTH",
"1304 942 OFFCURVE",
"1276.167 875.5 OFFCURVE",
"1220.5 826.5 CURVE SMOOTH",
"1164.833 777.5 OFFCURVE",
"1089 753 OFFCURVE",
"993 753 CURVE SMOOTH"
);
}
);
userData = {
assembly = "MPPEM[ ]	/* MeasurePixelPerEm */\012PUSHB[ ]	/* 1 value pushed */\01210 \012LT[ ]	/* LessThan */\012IF[ ]	/* If */\012NPUSHB[ ]	/* 33 values pushed */\0127 1 4 3 5 3 4 114 0 5 0 1 2 5 1 103 6 1 3 3 0 95 0 0 0 103 77 0 2 2 104 2 78 \012ELSE[ ]	/* Else */\012NPUSHB[ ]	/* 34 values pushed */\0127 1 4 3 5 3 4 5 128 0 5 0 1 2 5 1 103 6 1 3 3 0 95 0 0 0 103 77 0 2 2 104 2 78 \012EIF[ ]	/* EndIf */\012NPUSHB[ ]	/* 17 values pushed */\0120 0 29 27 23 21 0 20 0 20 33 17 37 50 8 12 26 \012CALL[ ]	/* CallFunction */";
};
width = 1582;
}
);
leftKerningGroup = B;
note = uni01A4;
rightKerningGroup = P;
unicode = 01A4;
},
{
glyphname = Thorn;
lastChange = "2024-07-06 18:41:23 +0000";
layers = (
{
layerId = "4A7900B8-4B55-405E-9DE7-28127A08AA09";
paths = (
{
closed = 1;
nodes = (
"165 1490 OFFCURVE",
"126 1448 OFFCURVE",
"126 1372 CURVE SMOOTH",
"126 118 LINE SMOOTH",
"126 42 OFFCURVE",
"166 0 OFFCURVE",
"238 0 CURVE SMOOTH",
"310 0 OFFCURVE",
"349 42 OFFCURVE",
"349 118 CURVE SMOOTH",
"349 320 LINE",
"615 320 LINE SMOOTH",
"725 320 OFFCURVE",
"817.833 339.5 OFFCURVE",
"893.5 378.5 CURVE SMOOTH",
"969.167 417.5 OFFCURVE",
"1026.667 469.833 OFFCURVE",
"1066 535.5 CURVE SMOOTH",
"1105.333 601.167 OFFCURVE",
"1125 674.667 OFFCURVE",
"1125 756 CURVE SMOOTH",
"1125 837.333 OFFCURVE",
"1105.333 910.833 OFFCURVE",
"1066 976.5 CURVE SMOOTH",
"1026.667 1042.167 OFFCURVE",
"969.167 1094.5 OFFCURVE",
"893.5 1133.5 CURVE SMOOTH",
"817.833 1172.5 OFFCURVE",
"725 1192 OFFCURVE",
"615 1192 CURVE SMOOTH",
"349 1192 LINE",
"349 1372 LINE SMOOTH",
"349 1448 OFFCURVE",
"310 1490 OFFCURVE",
"238 1490 CURVE SMOOTH"
);
},
{
closed = 1;
nodes = (
"349 505 LINE",
"349 1007 LINE",
"615 1007 LINE SMOOTH",
"714.333 1007 OFFCURVE",
"789.333 983.667 OFFCURVE",
"840 937 CURVE SMOOTH",
"890.667 890.333 OFFCURVE",
"916 828.667 OFFCURVE",
"916 752 CURVE SMOOTH",
"916 676 OFFCURVE",
"890.667 615.833 OFFCURVE",
"840 571.5 CURVE SMOOTH",
"789.333 527.167 OFFCURVE",
"714.333 505 OFFCURVE",
"615 505 CURVE SMOOTH"
);
}
);
userData = {
assembly = "NPUSHB[ ]	/* 36 values pushed */\0120 1 0 5 4 1 5 103 0 4 0 2 3 4 2 103 0 0 0 103 77 0 3 3 104 3 78 36 33 17 38 33 16 6 12 28 \012CALL[ ]	/* CallFunction */";
};
width = 1258;
}
);
leftKerningGroup = B;
note = Thorn;
unicode = 00DE;
},
{
glyphname = Q;
lastChange = "2024-07-06 18:41:23 +0000";
layers = (
{
layerId = "4A7900B8-4B55-405E-9DE7-28127A08AA09";
paths = (
{
closed = 1;
nodes = (
"858 -24 OFFCURVE",
"944 -7.667 OFFCURVE",
"1024 25 CURVE",
"1090 -63 LINE SMOOTH",
"1128 -114 OFFCURVE",
"1171 -135 OFFCURVE",
"1234 -135 CURVE SMOOTH",
"1257 -135 LINE SMOOTH",
"1319 -135 OFFCURVE",
"1320 -70 OFFCURVE",
"1259 9 CURVE SMOOTH",
"1178 114 LINE",
"1262.667 180.667 OFFCURVE",
"1329.5 268 OFFCURVE",
"1378.5 376 CURVE SMOOTH",
"1427.5 484 OFFCURVE",
"1452 606.667 OFFCURVE",
"1452 744 CURVE SMOOTH",
"1452 896.667 OFFCURVE",
"1422.5 1030.833 OFFCURVE",
"1363.5 1146.5 CURVE SMOOTH",
"1304.5 1262.167 OFFCURVE",
"1223.333 1352.333 OFFCURVE",
"1120 1417 CURVE SMOOTH",
"1016.667 1481.667 OFFCURVE",
"898.667 1514 OFFCURVE",
"766 1514 CURVE SMOOTH",
"634 1514 OFFCURVE",
"516.333 1481.667 OFFCURVE",
"413 1417 CURVE SMOOTH",
"309.667 1352.333 OFFCURVE",
"228.5 1262.167 OFFCURVE",
"169.5 1146.5 CURVE SMOOTH",
"110.5 1030.833 OFFCURVE",
"81 896.667 OFFCURVE",
"81 744 CURVE SMOOTH",
"81 592 OFFCURVE",
"110.5 458.333 OFFCURVE",
"169.5 343 CURVE SMOOTH",
"228.5 227.667 OFFCURVE",
"309.667 137.667 OFFCURVE",
"413 73 CURVE SMOOTH",
"516.333 8.333 OFFCURVE",
"634 -24 OFFCURVE",
"766 -24 CURVE SMOOTH"
);
},
{
closed = 1;
nodes = (
"734 481 OFFCURVE",
"725 416 OFFCURVE",
"785 337 CURVE SMOOTH",
"892 196 LINE",
"852 184.667 OFFCURVE",
"810 179 OFFCURVE",
"766 179 CURVE SMOOTH",
"680.667 179 OFFCURVE",
"603 200.833 OFFCURVE",
"533 244.5 CURVE SMOOTH",
"463 288.167 OFFCURVE",
"407.333 352.167 OFFCURVE",
"366 436.5 CURVE SMOOTH",
"324.667 520.833 OFFCURVE",
"304 623.333 OFFCURVE",
"304 744 CURVE SMOOTH",
"304 865.333 OFFCURVE",
"324.667 968.333 OFFCURVE",
"366 1053 CURVE SMOOTH",
"407.333 1137.667 OFFCURVE",
"463 1201.833 OFFCURVE",
"533 1245.5 CURVE SMOOTH",
"603 1289.167 OFFCURVE",
"680.667 1311 OFFCURVE",
"766 1311 CURVE SMOOTH",
"852 1311 OFFCURVE",
"930 1289.167 OFFCURVE",
"1000 1245.5 CURVE SMOOTH",
"1070 1201.833 OFFCURVE",
"1125.667 1137.667 OFFCURVE",
"1167 1053 CURVE SMOOTH",
"1208.333 968.333 OFFCURVE",
"1229 865.333 OFFCURVE",
"1229 744 CURVE SMOOTH",
"1229 638 OFFCURVE",
"1212.667 546 OFFCURVE",
"1180 468 CURVE SMOOTH",
"1147.333 390 OFFCURVE",
"1103.333 327.333 OFFCURVE",
"1048 280 CURVE",
"948 410 LINE SMOOTH",
"910 460 OFFCURVE",
"867 481 OFFCURVE",
"805 481 CURVE SMOOTH"
);
}
);
userData = {
assembly = "NPUSHB[ ]	/* 12 values pushed */\01239 22 2 5 3 18 15 2 0 5 2 76 \012MPPEM[ ]	/* MeasurePixelPerEm */\012PUSHB[ ]	/* 1 value pushed */\01250 \012LT[ ]	/* LessThan */\012IF[ ]	/* If */\012NPUSHB[ ]	/* 35 values pushed */\0120 3 4 5 4 3 5 128 0 2 0 2 134 0 4 4 1 97 0 1 1 109 77 0 5 5 0 98 6 1 0 0 110 0 78 \012ELSE[ ]	/* Else */\012NPUSHB[ ]	/* 33 values pushed */\0120 3 4 5 4 3 5 128 0 2 0 2 134 0 1 0 4 3 1 4 105 0 5 5 0 98 6 1 0 0 110 0 78 \012EIF[ ]	/* EndIf */\012NPUSHB[ ]	/* 19 values pushed */\0121 0 38 36 30 28 21 20 17 16 9 7 0 19 1 19 7 12 22 \012CALL[ ]	/* CallFunction */";
};
width = 1533;
}
);
leftKerningGroup = C;
note = Q;
rightKerningGroup = Oopen;
unicode = 0051;
},
{
glyphname = Q_rthook;
lastChange = "2024-07-06 18:41:23 +0000";
layers = (
{
layerId = "4A7900B8-4B55-405E-9DE7-28127A08AA09";
paths = (
{
closed = 1;
nodes = (
"1400 1372 LINE SMOOTH",
"1400 1448 OFFCURVE",
"1363 1490 OFFCURVE",
"1295 1490 CURVE SMOOTH",
"1227 1490 OFFCURVE",
"1189 1448 OFFCURVE",
"1189 1372 CURVE SMOOTH",
"1189 1265 LINE",
"1187 1265 LINE",
"1149.667 1341 OFFCURVE",
"1089.833 1401.333 OFFCURVE",
"1007.5 1446 CURVE SMOOTH",
"925.167 1490.667 OFFCURVE",
"833.333 1513 OFFCURVE",
"732 1513 CURVE SMOOTH",
"638 1513 OFFCURVE",
"551.333 1494 OFFCURVE",
"472 1456 CURVE SMOOTH",
"392.667 1418 OFFCURVE",
"323.833 1364.5 OFFCURVE",
"265.5 1295.5 CURVE SMOOTH",
"207.167 1226.5 OFFCURVE",
"161.833 1145.167 OFFCURVE",
"129.5 1051.5 CURVE SMOOTH",
"97.167 957.833 OFFCURVE",
"81 855.667 OFFCURVE",
"81 745 CURVE SMOOTH",
"81 633.667 OFFCURVE",
"97.167 531.333 OFFCURVE",
"129.5 438 CURVE SMOOTH",
"161.833 344.667 OFFCURVE",
"207.167 263.5 OFFCURVE",
"265.5 194.5 CURVE SMOOTH",
"323.833 125.5 OFFCURVE",
"392.667 72 OFFCURVE",
"472 34 CURVE SMOOTH",
"551.333 -4 OFFCURVE",
"638 -23 OFFCURVE",
"732 -23 CURVE SMOOTH",
"835.333 -23 OFFCURVE",
"927.667 -0.5 OFFCURVE",
"1009 44.5 CURVE SMOOTH",
"1090.333 89.5 OFFCURVE",
"1149.667 151.333 OFFCURVE",
"1187 230 CURVE",
"1189 230 LINE",
"1189 -146 LINE SMOOTH",
"1189 -327.333 OFFCURVE",
"1291 -418 OFFCURVE",
"1495 -418 CURVE SMOOTH",
"1497 -418 LINE SMOOTH",
"1573 -418 OFFCURVE",
"1615 -386 OFFCURVE",
"1615 -329 CURVE SMOOTH",
"1615 -272 OFFCURVE",
"1578 -240 OFFCURVE",
"1509 -240 CURVE SMOOTH",
"1469 -240 OFFCURVE",
"1440.833 -232.333 OFFCURVE",
"1424.5 -217 CURVE SMOOTH",
"1408.167 -201.667 OFFCURVE",
"1400 -176.667 OFFCURVE",
"1400 -142 CURVE SMOOTH"
);
},
{
closed = 1;
nodes = (
"660.333 178 OFFCURVE",
"582.333 201.667 OFFCURVE",
"515 249 CURVE SMOOTH",
"447.667 296.333 OFFCURVE",
"395.333 362.5 OFFCURVE",
"358 447.5 CURVE SMOOTH",
"320.667 532.5 OFFCURVE",
"302 631.667 OFFCURVE",
"302 745 CURVE SMOOTH",
"302 857 OFFCURVE",
"321 955.667 OFFCURVE",
"359 1041 CURVE SMOOTH",
"397 1126.333 OFFCURVE",
"449.667 1192.833 OFFCURVE",
"517 1240.5 CURVE SMOOTH",
"584.333 1288.167 OFFCURVE",
"662.333 1312 OFFCURVE",
"751 1312 CURVE SMOOTH",
"841 1312 OFFCURVE",
"918.833 1289 OFFCURVE",
"984.5 1243 CURVE SMOOTH",
"1050.167 1197 OFFCURVE",
"1100.833 1131.5 OFFCURVE",
"1136.5 1046.5 CURVE SMOOTH",
"1172.167 961.5 OFFCURVE",
"1190 861 OFFCURVE",
"1190 745 CURVE SMOOTH",
"1190 630.333 OFFCURVE",
"1171.833 530.5 OFFCURVE",
"1135.5 445.5 CURVE SMOOTH",
"1099.167 360.5 OFFCURVE",
"1048 294.667 OFFCURVE",
"982 248 CURVE SMOOTH",
"916 201.333 OFFCURVE",
"838.333 178 OFFCURVE",
"749 178 CURVE SMOOTH"
);
}
);
userData = {
assembly = "PUSHB[ ]	/* 7 values pushed */\01227 10 2 5 6 1 76 \012MPPEM[ ]	/* MeasurePixelPerEm */\012PUSHB[ ]	/* 1 value pushed */\01222 \012LT[ ]	/* LessThan */\012IF[ ]	/* If */\012NPUSHB[ ]	/* 34 values pushed */\0120 6 6 3 97 7 4 2 3 3 109 77 8 1 5 5 2 97 0 2 2 110 77 0 0 0 1 98 0 1 1 108 1 78 \012ELSE[ ]	/* Else */\012NPUSHB[ ]	/* 38 values pushed */\0127 1 4 4 103 77 0 6 6 3 97 0 3 3 109 77 8 1 5 5 2 97 0 2 2 110 77 0 0 0 1 98 0 1 1 108 1 78 \012EIF[ ]	/* EndIf */\012NPUSHB[ ]	/* 21 values pushed */\01231 30 0 0 39 37 30 45 31 45 0 29 0 29 40 37 33 35 9 12 26 \012CALL[ ]	/* CallFunction */";
};
width = 1536;
}
);
leftKerningGroup = C;
note = Q_rthook;
rightKerningGroup = Q_rthook;
},
{
glyphname = R;
lastChange = "2024-07-06 18:41:23 +0000";
layers = (
{
layerId = "4A7900B8-4B55-405E-9DE7-28127A08AA09";
paths = (
{
closed = 1;
nodes = (
"136 118 LINE SMOOTH",
"136 42 OFFCURVE",
"175 0 OFFCURVE",
"247 0 CURVE SMOOTH",
"319 0 OFFCURVE",
"358 42 OFFCURVE",
"358 118 CURVE SMOOTH",
"358 564 LINE",
"688 564 LINE",
"698 564 LINE",
"951 84 LINE SMOOTH",
"981 26 OFFCURVE",
"1025 0 OFFCURVE",
"1090 0 CURVE SMOOTH",
"1120 0 LINE SMOOTH",
"1192 0 OFFCURVE",
"1214 59 OFFCURVE",
"1170 140 CURVE SMOOTH",
"923 601 LINE",
"1015.667 634.333 OFFCURVE",
"1088.667 687.5 OFFCURVE",
"1142 760.5 CURVE SMOOTH",
"1195.333 833.5 OFFCURVE",
"1222 922 OFFCURVE",
"1222 1026 CURVE SMOOTH",
"1222 1168.667 OFFCURVE",
"1175.333 1281.667 OFFCURVE",
"1082 1365 CURVE SMOOTH",
"988.667 1448.333 OFFCURVE",
"862.333 1490 OFFCURVE",
"703 1490 CURVE SMOOTH",
"254 1490 LINE SMOOTH",
"178 1490 OFFCURVE",
"136 1448 OFFCURVE",
"136 1372 CURVE SMOOTH"
);
},
{
closed = 1;
nodes = (
"358 753 LINE",
"358 1298 LINE",
"693 1298 LINE SMOOTH",
"789 1298 OFFCURVE",
"864.667 1273.667 OFFCURVE",
"920 1225 CURVE SMOOTH",
"975.333 1176.333 OFFCURVE",
"1003 1110 OFFCURVE",
"1003 1026 CURVE SMOOTH",
"1003 942 OFFCURVE",
"975.5 875.5 OFFCURVE",
"920.5 826.5 CURVE SMOOTH",
"865.5 777.5 OFFCURVE",
"790 753 OFFCURVE",
"694 753 CURVE SMOOTH"
);
}
);
userData = {
assembly = "NPUSHB[ ]	/* 48 values pushed */\0128 1 2 4 1 76 0 4 0 2 1 4 2 103 0 5 5 0 95 0 0 0 103 77 6 3 2 1 1 104 1 78 0 0 24 22 18 16 0 15 0 15 49 22 33 7 12 25 \012CALL[ ]	/* CallFunction */";
};
width = 1307;
}
);
leftKerningGroup = B;
note = R;
rightKerningGroup = G.1;
unicode = 0052;
},
{
glyphname = Rstroke;
lastChange = "2024-07-06 18:41:23 +0000";
layers = (
{
layerId = "4A7900B8-4B55-405E-9DE7-28127A08AA09";
paths = (
{
closed = 1;
nodes = (
"158 118 LINE SMOOTH",
"158 42 OFFCURVE",
"198 0 OFFCURVE",
"270 0 CURVE SMOOTH",
"342 0 OFFCURVE",
"381 42 OFFCURVE",
"381 118 CURVE SMOOTH",
"381 564 LINE",
"710 564 LINE",
"721 564 LINE",
"974 84 LINE SMOOTH",
"1004 26 OFFCURVE",
"1048 0 OFFCURVE",
"1113 0 CURVE SMOOTH",
"1143 0 LINE SMOOTH",
"1215 0 OFFCURVE",
"1237 59 OFFCURVE",
"1193 140 CURVE SMOOTH",
"946 601 LINE",
"1038.667 634.333 OFFCURVE",
"1111.667 687.5 OFFCURVE",
"1165 760.5 CURVE SMOOTH",
"1218.333 833.5 OFFCURVE",
"1245 922 OFFCURVE",
"1245 1026 CURVE SMOOTH",
"1245 1168.667 OFFCURVE",
"1198.333 1281.667 OFFCURVE",
"1105 1365 CURVE SMOOTH",
"1011.667 1448.333 OFFCURVE",
"885.333 1490 OFFCURVE",
"726 1490 CURVE SMOOTH",
"276 1490 LINE SMOOTH",
"200 1490 OFFCURVE",
"158 1448 OFFCURVE",
"158 1372 CURVE SMOOTH",
"158 756 LINE",
"76 756 LINE SMOOTH",
"23 756 OFFCURVE",
"-7 723 OFFCURVE",
"-7 664 CURVE SMOOTH",
"-7 605 OFFCURVE",
"35 572 OFFCURVE",
"111 572 CURVE SMOOTH",
"158 572 LINE"
);
},
{
closed = 1;
nodes = (
"381 753 LINE",
"381 1298 LINE",
"715 1298 LINE SMOOTH",
"811.667 1298 OFFCURVE",
"887.667 1273.667 OFFCURVE",
"943 1225 CURVE SMOOTH",
"998.333 1176.333 OFFCURVE",
"1026 1110 OFFCURVE",
"1026 1026 CURVE SMOOTH",
"1026 942 OFFCURVE",
"998.5 875.5 OFFCURVE",
"943.5 826.5 CURVE SMOOTH",
"888.5 777.5 OFFCURVE",
"813 753 OFFCURVE",
"717 753 CURVE SMOOTH"
);
}
);
userData = {
assembly = "NPUSHB[ ]	/* 52 values pushed */\01212 1 0 1 1 76 6 1 1 4 1 0 3 1 0 103 0 7 7 2 95 0 2 2 103 77 8 5 2 3 3 104 3 78 0 0 28 26 22 20 0 19 0 19 49 22 33 17 17 9 12 27 \012CALL[ ]	/* CallFunction */";
};
width = 1285;
}
);
leftKerningGroup = B;
note = uni024C;
rightKerningGroup = G.1;
unicode = 024C;
},
{
glyphname = S;
lastChange = "2024-07-06 18:41:23 +0000";
layers = (
{
layerId = "4A7900B8-4B55-405E-9DE7-28127A08AA09";
paths = (
{
closed = 1;
nodes = (
"764.667 -24 OFFCURVE",
"862.667 -5.667 OFFCURVE",
"946 31 CURVE SMOOTH",
"1029.333 67.667 OFFCURVE",
"1094 119.333 OFFCURVE",
"1140 186 CURVE SMOOTH",
"1186 252.667 OFFCURVE",
"1209 330.667 OFFCURVE",
"1209 420 CURVE SMOOTH",
"1209 526.667 OFFCURVE",
"1173.5 613.333 OFFCURVE",
"1102.5 680 CURVE SMOOTH",
"1031.5 746.667 OFFCURVE",
"921.333 797.667 OFFCURVE",
"772 833 CURVE SMOOTH",
"611 871 LINE SMOOTH",
"509 895.667 OFFCURVE",
"436 924.833 OFFCURVE",
"392 958.5 CURVE SMOOTH",
"348 992.167 OFFCURVE",
"326 1036 OFFCURVE",
"326 1090 CURVE SMOOTH",
"326 1157.333 OFFCURVE",
"354.667 1212.5 OFFCURVE",
"412 1255.5 CURVE SMOOTH",
"469.333 1298.5 OFFCURVE",
"543 1320 OFFCURVE",
"633 1320 CURVE SMOOTH",
"727 1320 OFFCURVE",
"802.667 1295.5 OFFCURVE",
"860 1246.5 CURVE SMOOTH",
"892 1219 OFFCURVE",
"916 1186 OFFCURVE",
"932 1148 CURVE SMOOTH",
"959 1080 OFFCURVE",
"989 1044 OFFCURVE",
"1060 1044 CURVE SMOOTH",
"1062 1044 LINE SMOOTH",
"1130 1044 OFFCURVE",
"1172 1091 OFFCURVE",
"1152 1170 CURVE SMOOTH",
"1129 1257 OFFCURVE",
"1085 1330 OFFCURVE",
"1019.5 1388 CURVE SMOOTH",
"924.5 1472 OFFCURVE",
"796.667 1514 OFFCURVE",
"636 1514 CURVE SMOOTH",
"529.333 1514 OFFCURVE",
"436.167 1496 OFFCURVE",
"356.5 1460 CURVE SMOOTH",
"276.833 1424 OFFCURVE",
"215 1373.333 OFFCURVE",
"171 1308 CURVE SMOOTH",
"127 1242.667 OFFCURVE",
"105 1166.333 OFFCURVE",
"105 1079 CURVE SMOOTH",
"105 975.667 OFFCURVE",
"139.5 891.833 OFFCURVE",
"208.5 827.5 CURVE SMOOTH",
"277.5 763.167 OFFCURVE",
"387.333 713 OFFCURVE",
"538 677 CURVE SMOOTH",
"701 638 LINE SMOOTH",
"804.333 613.333 OFFCURVE",
"877.833 583.167 OFFCURVE",
"921.5 547.5 CURVE SMOOTH",
"965.167 511.833 OFFCURVE",
"987 465.333 OFFCURVE",
"987 408 CURVE SMOOTH",
"987 335.333 OFFCURVE",
"956.5 277.5 OFFCURVE",
"895.5 234.5 CURVE SMOOTH",
"834.5 191.5 OFFCURVE",
"753.333 170 OFFCURVE",
"652 170 CURVE SMOOTH",
"540.667 170 OFFCURVE",
"453.833 197.667 OFFCURVE",
"391.5 253 CURVE SMOOTH",
"354 286 OFFCURVE",
"328 327 OFFCURVE",
"313 375 CURVE SMOOTH",
"291 445 OFFCURVE",
"260 483 OFFCURVE",
"188 483 CURVE SMOOTH",
"186 483 LINE SMOOTH",
"115 483 OFFCURVE",
"71 438 OFFCURVE",
"87 359 CURVE SMOOTH",
"108 259 OFFCURVE",
"155 177 OFFCURVE",
"229.5 111.5 CURVE SMOOTH",
"332.5 21.167 OFFCURVE",
"473.333 -24 OFFCURVE",
"652 -24 CURVE SMOOTH"
);
}
);
userData = {
assembly = "MPPEM[ ]	/* MeasurePixelPerEm */\012PUSHB[ ]	/* 1 value pushed */\01250 \012LT[ ]	/* LessThan */\012IF[ ]	/* If */\012NPUSHB[ ]	/* 37 values pushed */\0120 4 5 1 5 4 1 128 0 1 2 5 1 2 126 0 5 5 3 97 0 3 3 109 77 0 2 2 0 97 6 1 0 0 110 0 78 \012ELSE[ ]	/* Else */\012NPUSHB[ ]	/* 35 values pushed */\0120 4 5 1 5 4 1 128 0 1 2 5 1 2 126 0 3 0 5 4 3 5 105 0 2 2 0 97 6 1 0 0 110 0 78 \012EIF[ ]	/* EndIf */\012NPUSHB[ ]	/* 19 values pushed */\0121 0 29 27 25 24 22 20 8 6 4 3 0 41 1 41 7 12 22 \012CALL[ ]	/* CallFunction */";
};
width = 1284;
}
);
leftKerningGroup = S;
note = S;
rightKerningGroup = S;
unicode = 0053;
},
{
glyphname = Germandbls;
lastChange = "2024-07-06 18:41:23 +0000";
layers = (
{
layerId = "4A7900B8-4B55-405E-9DE7-28127A08AA09";
paths = (
{
closed = 1;
nodes = (
"136 118 LINE SMOOTH",
"136 42 OFFCURVE",
"175 0 OFFCURVE",
"246 0 CURVE SMOOTH",
"317 0 OFFCURVE",
"356 42 OFFCURVE",
"356 118 CURVE SMOOTH",
"356 984 LINE SMOOTH",
"356 1045.333 OFFCURVE",
"363.833 1101.667 OFFCURVE",
"379.5 1153 CURVE SMOOTH",
"395.167 1204.333 OFFCURVE",
"422.667 1245.333 OFFCURVE",
"462 1276 CURVE SMOOTH",
"501.333 1306.667 OFFCURVE",
"557 1322 OFFCURVE",
"629 1322 CURVE SMOOTH",
"687.667 1322 OFFCURVE",
"737.833 1312.667 OFFCURVE",
"779.5 1294 CURVE SMOOTH",
"821.167 1275.333 OFFCURVE",
"856.667 1255.667 OFFCURVE",
"886 1235 CURVE",
"647 919 LINE SMOOTH",
"612 872 OFFCURVE",
"598 830 OFFCURVE",
"598 772 CURVE SMOOTH",
"598 771 LINE SMOOTH",
"598 717 OFFCURVE",
"640 688 OFFCURVE",
"716 688 CURVE SMOOTH",
"741 688 LINE SMOOTH",
"761 688 OFFCURVE",
"788 685.833 OFFCURVE",
"822 681.5 CURVE SMOOTH",
"856 677.167 OFFCURVE",
"890.5 666.667 OFFCURVE",
"925.5 650 CURVE SMOOTH",
"960.5 633.333 OFFCURVE",
"990.167 607.167 OFFCURVE",
"1014.5 571.5 CURVE SMOOTH",
"1038.833 535.833 OFFCURVE",
"1051 487 OFFCURVE",
"1051 425 CURVE SMOOTH",
"1051 345 OFFCURVE",
"1026.333 281.833 OFFCURVE",
"977 235.5 CURVE SMOOTH",
"927.667 189.167 OFFCURVE",
"858.333 166 OFFCURVE",
"769 166 CURVE SMOOTH",
"724.333 166 OFFCURVE",
"683.333 171.167 OFFCURVE",
"646 181.5 CURVE SMOOTH",
"628 186 OFFCURVE",
"611 192 OFFCURVE",
"595 197 CURVE SMOOTH",
"563 208 OFFCURVE",
"534 184 OFFCURVE",
"513 125 CURVE SMOOTH",
"492 66 OFFCURVE",
"519 14 OFFCURVE",
"595 -2 CURVE SMOOTH",
"605 -4 OFFCURVE",
"615 -6 OFFCURVE",
"625.5 -7.5 CURVE SMOOTH",
"675.833 -15.833 OFFCURVE",
"725.333 -20 OFFCURVE",
"774 -20 CURVE SMOOTH",
"872.667 -20 OFFCURVE",
"960.333 -2.667 OFFCURVE",
"1037 32 CURVE SMOOTH",
"1113.667 66.667 OFFCURVE",
"1173.833 116.833 OFFCURVE",
"1217.5 182.5 CURVE SMOOTH",
"1261.167 248.167 OFFCURVE",
"1283 328 OFFCURVE",
"1283 422 CURVE SMOOTH",
"1283 546 OFFCURVE",
"1243.333 646.167 OFFCURVE",
"1164 722.5 CURVE SMOOTH",
"1084.667 798.833 OFFCURVE",
"974.333 842.667 OFFCURVE",
"833 854 CURVE",
"1093 1184 LINE SMOOTH",
"1140 1244 OFFCURVE",
"1136 1304 OFFCURVE",
"1075 1350 CURVE SMOOTH",
"1027 1384 OFFCURVE",
"976 1415 OFFCURVE",
"923 1442.5 CURVE SMOOTH",
"834.333 1487.5 OFFCURVE",
"734 1510 OFFCURVE",
"622 1510 CURVE SMOOTH",
"462 1510 OFFCURVE",
"341 1466 OFFCURVE",
"259 1378 CURVE SMOOTH",
"177 1290 OFFCURVE",
"136 1159.667 OFFCURVE",
"136 987 CURVE SMOOTH"
);
}
);
userData = {
assembly = "MPPEM[ ]	/* MeasurePixelPerEm */\012PUSHB[ ]	/* 1 value pushed */\01226 \012LT[ ]	/* LessThan */\012IF[ ]	/* If */\012NPUSHB[ ]	/* 17 values pushed */\01233 32 8 7 4 3 4 19 1 2 3 18 1 1 2 3 76 \012ELSE[ ]	/* Else */\012NPUSHB[ ]	/* 17 values pushed */\01233 32 8 7 4 3 4 19 1 2 3 18 1 5 2 3 76 \012EIF[ ]	/* EndIf */\012MPPEM[ ]	/* MeasurePixelPerEm */\012PUSHB[ ]	/* 1 value pushed */\01226 \012LT[ ]	/* LessThan */\012IF[ ]	/* If */\012NPUSHB[ ]	/* 31 values pushed */\0120 3 4 2 4 3 2 128 0 4 4 0 97 0 0 0 109 77 0 2 2 1 97 6 5 2 1 1 110 1 78 \012ELSE[ ]	/* Else */\012NPUSHB[ ]	/* 35 values pushed */\0120 3 4 2 4 3 2 128 0 4 4 0 97 0 0 0 109 77 6 1 5 5 104 77 0 2 2 1 97 0 1 1 110 1 78 \012EIF[ ]	/* EndIf */\012NPUSHB[ ]	/* 14 values pushed */\0120 0 0 41 0 41 36 38 37 41 35 7 12 27 \012CALL[ ]	/* CallFunction */";
};
width = 1358;
}
);
leftKerningGroup = B;
note = uni1E9E;
rightKerningGroup = S;
unicode = 1E9E;
},
{
glyphname = Schwa;
lastChange = "2024-07-06 18:41:23 +0000";
layers = (
{
layerId = "4A7900B8-4B55-405E-9DE7-28127A08AA09";
paths = (
{
closed = 1;
nodes = (
"871.333 -24 OFFCURVE",
"990 8.667 OFFCURVE",
"1092 74 CURVE SMOOTH",
"1194 139.333 OFFCURVE",
"1273.667 229.667 OFFCURVE",
"1331 345 CURVE SMOOTH",
"1388.333 460.333 OFFCURVE",
"1417 593.333 OFFCURVE",
"1417 744 CURVE SMOOTH",
"1417 897.333 OFFCURVE",
"1387.5 1031.667 OFFCURVE",
"1328.5 1147 CURVE SMOOTH",
"1269.5 1262.333 OFFCURVE",
"1188.167 1352.333 OFFCURVE",
"1084.5 1417 CURVE SMOOTH",
"980.833 1481.667 OFFCURVE",
"862.667 1514 OFFCURVE",
"730 1514 CURVE SMOOTH",
"622 1514 OFFCURVE",
"523.167 1492.333 OFFCURVE",
"433.5 1449 CURVE SMOOTH",
"343.833 1405.667 OFFCURVE",
"269.5 1345.667 OFFCURVE",
"210.5 1269 CURVE SMOOTH",
"179 1228 OFFCURVE",
"153 1183 OFFCURVE",
"134 1134 CURVE SMOOTH",
"102 1054 OFFCURVE",
"146 1002 OFFCURVE",
"223 1002 CURVE SMOOTH",
"291 1002 OFFCURVE",
"327 1034 OFFCURVE",
"358 1097 CURVE SMOOTH",
"383 1147 OFFCURVE",
"419 1190 OFFCURVE",
"464.5 1225.5 CURVE SMOOTH",
"537.5 1282.5 OFFCURVE",
"625.667 1311 OFFCURVE",
"729 1311 CURVE SMOOTH",
"821.667 1311 OFFCURVE",
"902.5 1288.167 OFFCURVE",
"971.5 1242.5 CURVE SMOOTH",
"1040.5 1196.833 OFFCURVE",
"1094.333 1132.667 OFFCURVE",
"1133 1050 CURVE SMOOTH",
"1171.667 967.333 OFFCURVE",
"1192 871 OFFCURVE",
"1194 761 CURVE",
"207 761 LINE SMOOTH",
"131 761 OFFCURVE",
"89 719 OFFCURVE",
"89 643 CURVE SMOOTH",
"89 590 LINE SMOOTH",
"89 471.333 OFFCURVE",
"117.5 365.833 OFFCURVE",
"174.5 273.5 CURVE SMOOTH",
"231.5 181.167 OFFCURVE",
"309 108.5 OFFCURVE",
"407 55.5 CURVE SMOOTH",
"505 2.5 OFFCURVE",
"614.667 -24 OFFCURVE",
"736 -24 CURVE SMOOTH"
);
},
{
closed = 1;
nodes = (
"1153.333 454 OFFCURVE",
"1102.5 357.333 OFFCURVE",
"1025.5 286 CURVE SMOOTH",
"948.5 214.667 OFFCURVE",
"851.667 179 OFFCURVE",
"735 179 CURVE SMOOTH",
"657 179 OFFCURVE",
"585.833 195.667 OFFCURVE",
"521.5 229 CURVE SMOOTH",
"457.167 262.333 OFFCURVE",
"405.667 308.833 OFFCURVE",
"367 368.5 CURVE SMOOTH",
"328.333 428.167 OFFCURVE",
"308.667 497.333 OFFCURVE",
"308 576 CURVE",
"1178 576 LINE"
);
}
);
userData = {
assembly = "MPPEM[ ]	/* MeasurePixelPerEm */\012PUSHB[ ]	/* 1 value pushed */\01250 \012LT[ ]	/* LessThan */\012IF[ ]	/* If */\012NPUSHB[ ]	/* 38 values pushed */\0120 3 2 1 2 3 1 128 0 1 0 5 6 1 5 103 0 2 2 4 97 0 4 4 109 77 0 6 6 0 97 7 1 0 0 110 0 78 \012ELSE[ ]	/* Else */\012NPUSHB[ ]	/* 36 values pushed */\0120 3 2 1 2 3 1 128 0 4 0 2 3 4 2 105 0 1 0 5 6 1 5 103 0 6 6 0 97 7 1 0 0 110 0 78 \012EIF[ ]	/* EndIf */\012NPUSHB[ ]	/* 21 values pushed */\0121 0 32 30 27 26 19 17 14 13 11 9 6 5 0 25 1 25 8 12 22 \012CALL[ ]	/* CallFunction */";
};
width = 1498;
}
);
note = uni018F;
unicode = 018F;
},
{
glyphname = T;
lastChange = "2024-07-06 18:41:23 +0000";
layers = (
{
layerId = "4A7900B8-4B55-405E-9DE7-28127A08AA09";
paths = (
{
closed = 1;
nodes = (
"48 1329 OFFCURVE",
"90 1295 OFFCURVE",
"166 1295 CURVE SMOOTH",
"523 1295 LINE",
"523 118 LINE SMOOTH",
"523 42 OFFCURVE",
"563 0 OFFCURVE",
"635 0 CURVE SMOOTH",
"707 0 OFFCURVE",
"746 42 OFFCURVE",
"746 118 CURVE SMOOTH",
"746 1295 LINE",
"1101 1295 LINE SMOOTH",
"1177 1295 OFFCURVE",
"1219 1330 OFFCURVE",
"1219 1393 CURVE SMOOTH",
"1219 1456 OFFCURVE",
"1177 1490 OFFCURVE",
"1101 1490 CURVE SMOOTH",
"166 1490 LINE SMOOTH",
"90 1490 OFFCURVE",
"48 1456 OFFCURVE",
"48 1393 CURVE SMOOTH"
);
}
);
userData = {
assembly = "NPUSHB[ ]	/* 30 values pushed */\0124 3 2 1 1 0 95 0 0 0 103 77 0 2 2 104 2 78 0 0 0 7 0 7 17 17 17 5 12 25 \012CALL[ ]	/* CallFunction */";
};
width = 1267;
}
);
leftKerningGroup = "Kabashkir-cy";
note = T;
rightKerningGroup = "Enghe-cy";
unicode = 0054;
},
{
glyphname = Tdiagonalstroke;
lastChange = "2024-07-06 18:41:23 +0000";
layers = (
{
layerId = "4A7900B8-4B55-405E-9DE7-28127A08AA09";
paths = (
{
closed = 1;
nodes = (
"309 -209 OFFCURVE",
"345 -180 OFFCURVE",
"370 -117 CURVE SMOOTH",
"523 270 LINE",
"523 118 LINE SMOOTH",
"523 42 OFFCURVE",
"563 0 OFFCURVE",
"635 0 CURVE SMOOTH",
"707 0 OFFCURVE",
"746 42 OFFCURVE",
"746 118 CURVE SMOOTH",
"746 832 LINE",
"929 1295 LINE",
"1101 1295 LINE SMOOTH",
"1177 1295 OFFCURVE",
"1219 1330 OFFCURVE",
"1219 1393 CURVE SMOOTH",
"1219 1456 OFFCURVE",
"1177 1490 OFFCURVE",
"1101 1490 CURVE SMOOTH",
"1006 1490 LINE",
"1048 1595 LINE SMOOTH",
"1073 1658 OFFCURVE",
"1058 1699 OFFCURVE",
"1013 1699 CURVE SMOOTH",
"961 1699 OFFCURVE",
"925 1670 OFFCURVE",
"900 1607 CURVE SMOOTH",
"854 1490 LINE",
"166 1490 LINE SMOOTH",
"90 1490 OFFCURVE",
"48 1456 OFFCURVE",
"48 1393 CURVE SMOOTH",
"48 1330 OFFCURVE",
"90 1295 OFFCURVE",
"166 1295 CURVE SMOOTH",
"523 1295 LINE",
"523 654 LINE",
"235 -72 LINE SMOOTH",
"203 -154 OFFCURVE",
"212 -209 OFFCURVE",
"257 -209 CURVE SMOOTH"
);
},
{
closed = 1;
nodes = (
"746 1295 LINE",
"777 1295 LINE",
"746 1216 LINE"
);
}
);
userData = {
assembly = "NPUSHB[ ]	/* 9 values pushed */\01217 15 12 1 4 5 0 1 76 \012MPPEM[ ]	/* MeasurePixelPerEm */\012PUSHB[ ]	/* 1 value pushed */\01212 \012LT[ ]	/* LessThan */\012IF[ ]	/* If */\012NPUSHB[ ]	/* 31 values pushed */\0120 2 1 1 2 112 8 1 6 5 6 134 7 4 2 0 0 1 95 3 1 1 1 103 77 0 5 5 104 5 78 \012ELSE[ ]	/* Else */\012NPUSHB[ ]	/* 30 values pushed */\0120 2 1 2 133 8 1 6 5 6 134 7 4 2 0 0 1 95 3 1 1 1 103 77 0 5 5 104 5 78 \012EIF[ ]	/* EndIf */\012NPUSHB[ ]	/* 17 values pushed */\0120 0 19 18 0 16 0 16 18 17 17 17 17 18 9 12 28 \012CALL[ ]	/* CallFunction */";
};
width = 1267;
}
);
leftKerningGroup = "Kabashkir-cy";
note = uni023E;
rightKerningGroup = "Enghe-cy";
unicode = 023E;
},
{
glyphname = Thook;
lastChange = "2024-07-06 18:41:23 +0000";
layers = (
{
layerId = "4A7900B8-4B55-405E-9DE7-28127A08AA09";
paths = (
{
closed = 1;
nodes = (
"54 1162 LINE SMOOTH",
"54 1086 OFFCURVE",
"91 1044 OFFCURVE",
"158 1044 CURVE SMOOTH",
"225 1044 OFFCURVE",
"262 1086 OFFCURVE",
"262 1162 CURVE SMOOTH",
"262 1204 LINE SMOOTH",
"262 1236.667 OFFCURVE",
"270.5 1260.5 OFFCURVE",
"287.5 1275.5 CURVE SMOOTH",
"304.5 1290.5 OFFCURVE",
"332.333 1298 OFFCURVE",
"371 1298 CURVE SMOOTH",
"466 1298 LINE",
"466 1296 OFFCURVE",
"496 1295 OFFCURVE",
"552 1295 CURVE",
"552 118 LINE SMOOTH",
"552 42 OFFCURVE",
"591 0 OFFCURVE",
"663 0 CURVE SMOOTH",
"735 0 OFFCURVE",
"774 42 OFFCURVE",
"774 118 CURVE SMOOTH",
"774 1295 LINE",
"1121 1295 LINE SMOOTH",
"1197 1295 OFFCURVE",
"1239 1330 OFFCURVE",
"1239 1393 CURVE SMOOTH",
"1239 1456 OFFCURVE",
"1197 1490 OFFCURVE",
"1121 1490 CURVE SMOOTH",
"344 1490 LINE SMOOTH",
"150.667 1490 OFFCURVE",
"54 1399 OFFCURVE",
"54 1217 CURVE SMOOTH"
);
}
);
userData = {
assembly = "MPPEM[ ]	/* MeasurePixelPerEm */\012PUSHB[ ]	/* 1 value pushed */\01210 \012LT[ ]	/* LessThan */\012IF[ ]	/* If */\012NPUSHB[ ]	/* 25 values pushed */\0125 1 4 1 2 1 4 114 3 1 1 1 0 95 0 0 0 103 77 0 2 2 104 2 78 \012ELSE[ ]	/* Else */\012NPUSHB[ ]	/* 26 values pushed */\0125 1 4 1 2 1 4 2 128 3 1 1 1 0 95 0 0 0 103 77 0 2 2 104 2 78 \012EIF[ ]	/* EndIf */\012NPUSHB[ ]	/* 13 values pushed */\0120 0 0 16 0 16 65 17 17 34 6 12 26 \012CALL[ ]	/* CallFunction */";
};
width = 1287;
}
);
leftKerningGroup = "Kabashkir-cy";
note = uni01AC;
rightKerningGroup = "Enghe-cy";
unicode = 01AC;
},
{
glyphname = Tonefive;
lastChange = "2024-07-06 18:41:23 +0000";
layers = (
{
layerId = "4A7900B8-4B55-405E-9DE7-28127A08AA09";
paths = (
{
closed = 1;
nodes = (
"782.333 -21 OFFCURVE",
"872.667 1 OFFCURVE",
"950 45 CURVE SMOOTH",
"1027.333 89 OFFCURVE",
"1087.5 149.667 OFFCURVE",
"1130.5 227 CURVE SMOOTH",
"1173.5 304.333 OFFCURVE",
"1195 393.333 OFFCURVE",
"1195 494 CURVE SMOOTH",
"1195 591.333 OFFCURVE",
"1174.5 678.167 OFFCURVE",
"1133.5 754.5 CURVE SMOOTH",
"1092.5 830.833 OFFCURVE",
"1036.5 890.833 OFFCURVE",
"965.5 934.5 CURVE SMOOTH",
"894.5 978.167 OFFCURVE",
"813.333 1000 OFFCURVE",
"722 1000 CURVE SMOOTH",
"586 1000 OFFCURVE",
"474.667 953.667 OFFCURVE",
"388 861 CURVE",
"386 861 LINE",
"419 1300 LINE",
"993 1300 LINE SMOOTH",
"1069 1300 OFFCURVE",
"1111 1334 OFFCURVE",
"1111 1395 CURVE SMOOTH",
"1111 1456 OFFCURVE",
"1069 1490 OFFCURVE",
"993 1490 CURVE SMOOTH",
"166 1490 LINE SMOOTH",
"90 1490 OFFCURVE",
"48 1456 OFFCURVE",
"48 1395 CURVE SMOOTH",
"48 1334 OFFCURVE",
"90 1300 OFFCURVE",
"166 1300 CURVE SMOOTH",
"209 1300 LINE",
"178 754 LINE SMOOTH",
"174 675 OFFCURVE",
"212 633 OFFCURVE",
"285 633 CURVE SMOOTH",
"350 633 OFFCURVE",
"384 663 OFFCURVE",
"427 714 CURVE SMOOTH",
"445 735 OFFCURVE",
"467 753 OFFCURVE",
"493 767.5 CURVE SMOOTH",
"547.667 798.5 OFFCURVE",
"613.333 814 OFFCURVE",
"690 814 CURVE SMOOTH",
"776.667 814 OFFCURVE",
"847 783.5 OFFCURVE",
"901 722.5 CURVE SMOOTH",
"955 661.5 OFFCURVE",
"982 584 OFFCURVE",
"982 490 CURVE SMOOTH",
"982 395.333 OFFCURVE",
"954 317.667 OFFCURVE",
"898 257 CURVE SMOOTH",
"842 196.333 OFFCURVE",
"769 166 OFFCURVE",
"679 166 CURVE SMOOTH",
"593.667 166 OFFCURVE",
"522.167 191.833 OFFCURVE",
"464.5 243.5 CURVE SMOOTH",
"433 271 OFFCURVE",
"410 304 OFFCURVE",
"393 340 CURVE SMOOTH",
"364 406 OFFCURVE",
"333 441 OFFCURVE",
"263 441 CURVE SMOOTH",
"260 441 LINE SMOOTH",
"192 441 OFFCURVE",
"149 393 OFFCURVE",
"174 314 CURVE SMOOTH",
"187 274 OFFCURVE",
"204 237 OFFCURVE",
"227.5 202.5 CURVE SMOOTH",
"273.833 132.833 OFFCURVE",
"335.833 78.167 OFFCURVE",
"413.5 38.5 CURVE SMOOTH",
"491.167 -1.167 OFFCURVE",
"579.667 -21 OFFCURVE",
"679 -21 CURVE SMOOTH"
);
}
);
userData = {
assembly = "NPUSHB[ ]	/* 77 values pushed */\01225 1 3 8 1 76 0 4 3 1 3 4 1 128 0 1 2 3 1 2 126 0 8 0 3 4 8 3 105 7 1 5 5 6 95 0 6 6 103 77 0 2 2 0 97 9 1 0 0 110 0 78 1 0 29 27 24 23 22 21 20 19 18 17 15 13 9 7 5 4 0 35 1 35 10 12 22 \012CALL[ ]	/* CallFunction */";
};
width = 1276;
}
);
note = uni01BC;
unicode = 01BC;
},
{
glyphname = Tonesix;
lastChange = "2024-07-06 18:41:23 +0000";
layers = (
{
layerId = "4A7900B8-4B55-405E-9DE7-28127A08AA09";
paths = (
{
closed = 1;
nodes = (
"566 887 LINE",
"566 1372 LINE SMOOTH",
"566 1448 OFFCURVE",
"524 1490 OFFCURVE",
"448 1490 CURVE SMOOTH",
"111 1490 LINE SMOOTH",
"35 1490 OFFCURVE",
"-7 1456 OFFCURVE",
"-7 1395 CURVE SMOOTH",
"-7 1334 OFFCURVE",
"35 1300 OFFCURVE",
"111 1300 CURVE SMOOTH",
"346 1300 LINE",
"346 118 LINE SMOOTH",
"346 42 OFFCURVE",
"388 0 OFFCURVE",
"464 0 CURVE SMOOTH",
"903 0 LINE SMOOTH",
"1013 0 OFFCURVE",
"1106.5 19 OFFCURVE",
"1183.5 57 CURVE SMOOTH",
"1260.5 95 OFFCURVE",
"1319.333 148 OFFCURVE",
"1360 216 CURVE SMOOTH",
"1400.667 284 OFFCURVE",
"1421 362.333 OFFCURVE",
"1421 451 CURVE SMOOTH",
"1421 583.667 OFFCURVE",
"1376 689.5 OFFCURVE",
"1286 768.5 CURVE SMOOTH",
"1196 847.5 OFFCURVE",
"1068.333 887 OFFCURVE",
"903 887 CURVE SMOOTH"
);
},
{
closed = 1;
nodes = (
"566 700 LINE",
"903 700 LINE SMOOTH",
"999.667 700 OFFCURVE",
"1074 675.833 OFFCURVE",
"1126 627.5 CURVE SMOOTH",
"1178 579.167 OFFCURVE",
"1204 521 OFFCURVE",
"1204 453 CURVE SMOOTH",
"1204 407 OFFCURVE",
"1192.333 363.667 OFFCURVE",
"1169 323 CURVE SMOOTH",
"1145.667 282.333 OFFCURVE",
"1111.667 249.333 OFFCURVE",
"1067 224 CURVE SMOOTH",
"1022.333 198.667 OFFCURVE",
"967.667 186.333 OFFCURVE",
"903 187 CURVE SMOOTH",
"566 187 LINE"
);
}
);
userData = {
assembly = "NPUSHB[ ]	/* 44 values pushed */\0120 0 6 1 5 4 0 5 103 0 2 2 3 95 0 3 3 103 77 0 4 4 1 95 0 1 1 104 1 78 14 14 14 23 14 22 34 17 17 37 32 7 12 27 \012CALL[ ]	/* CallFunction */";
};
width = 1449;
}
);
note = uni0184;
unicode = 0184;
},
{
glyphname = Tonetwo;
lastChange = "2024-07-06 18:41:23 +0000";
layers = (
{
layerId = "4A7900B8-4B55-405E-9DE7-28127A08AA09";
paths = (
{
closed = 1;
nodes = (
"811 -24 OFFCURVE",
"951.5 21.167 OFFCURVE",
"1054.5 111.5 CURVE SMOOTH",
"1129 177 OFFCURVE",
"1176 259 OFFCURVE",
"1197 359 CURVE SMOOTH",
"1213 438 OFFCURVE",
"1168 483 OFFCURVE",
"1096 483 CURVE SMOOTH",
"1024 483 OFFCURVE",
"993 445 OFFCURVE",
"971 375 CURVE SMOOTH",
"956 327 OFFCURVE",
"930 286 OFFCURVE",
"892.5 253 CURVE SMOOTH",
"830.167 197.667 OFFCURVE",
"743.333 170 OFFCURVE",
"632 170 CURVE SMOOTH",
"531.333 170 OFFCURVE",
"450.333 191.5 OFFCURVE",
"389 234.5 CURVE SMOOTH",
"327.667 277.5 OFFCURVE",
"297 335.333 OFFCURVE",
"297 408 CURVE SMOOTH",
"297 465.333 OFFCURVE",
"318.833 511.833 OFFCURVE",
"362.5 547.5 CURVE SMOOTH",
"406.167 583.167 OFFCURVE",
"479.667 613.333 OFFCURVE",
"583 638 CURVE SMOOTH",
"746 677 LINE SMOOTH",
"896.667 713 OFFCURVE",
"1006.5 763.167 OFFCURVE",
"1075.5 827.5 CURVE SMOOTH",
"1144.5 891.833 OFFCURVE",
"1179 975.667 OFFCURVE",
"1179 1079 CURVE SMOOTH",
"1179 1166.333 OFFCURVE",
"1157 1242.667 OFFCURVE",
"1113 1308 CURVE SMOOTH",
"1069 1373.333 OFFCURVE",
"1007.167 1424 OFFCURVE",
"927.5 1460 CURVE SMOOTH",
"847.833 1496 OFFCURVE",
"754.667 1514 OFFCURVE",
"648 1514 CURVE SMOOTH",
"487.333 1514 OFFCURVE",
"359.5 1472 OFFCURVE",
"264.5 1388 CURVE SMOOTH",
"199 1330 OFFCURVE",
"155 1257 OFFCURVE",
"133 1170 CURVE SMOOTH",
"113 1091 OFFCURVE",
"156 1044 OFFCURVE",
"224 1044 CURVE SMOOTH",
"295 1044 OFFCURVE",
"325 1080 OFFCURVE",
"352 1148 CURVE SMOOTH",
"368 1186 OFFCURVE",
"392 1219 OFFCURVE",
"424 1246.5 CURVE SMOOTH",
"481.333 1295.5 OFFCURVE",
"557 1320 OFFCURVE",
"651 1320 CURVE SMOOTH",
"741 1320 OFFCURVE",
"814.667 1298.5 OFFCURVE",
"872 1255.5 CURVE SMOOTH",
"929.333 1212.5 OFFCURVE",
"958 1157.333 OFFCURVE",
"958 1090 CURVE SMOOTH",
"958 1036 OFFCURVE",
"936 992.167 OFFCURVE",
"892 958.5 CURVE SMOOTH",
"848 924.833 OFFCURVE",
"775 895.667 OFFCURVE",
"673 871 CURVE SMOOTH",
"512 833 LINE SMOOTH",
"362.667 797.667 OFFCURVE",
"252.5 746.667 OFFCURVE",
"181.5 680 CURVE SMOOTH",
"110.5 613.333 OFFCURVE",
"75 526.667 OFFCURVE",
"75 420 CURVE SMOOTH",
"75 330.667 OFFCURVE",
"98 252.667 OFFCURVE",
"144 186 CURVE SMOOTH",
"190 119.333 OFFCURVE",
"254.667 67.667 OFFCURVE",
"338 31 CURVE SMOOTH",
"421.333 -5.667 OFFCURVE",
"519.667 -24 OFFCURVE",
"633 -24 CURVE SMOOTH"
);
}
);
userData = {
assembly = "MPPEM[ ]	/* MeasurePixelPerEm */\012PUSHB[ ]	/* 1 value pushed */\01250 \012LT[ ]	/* LessThan */\012IF[ ]	/* If */\012NPUSHB[ ]	/* 37 values pushed */\0120 2 1 5 1 2 5 128 0 5 4 1 5 4 126 0 1 1 3 97 0 3 3 109 77 0 4 4 0 97 6 1 0 0 110 0 78 \012ELSE[ ]	/* Else */\012NPUSHB[ ]	/* 35 values pushed */\0120 2 1 5 1 2 5 128 0 5 4 1 5 4 126 0 3 0 1 2 3 1 105 0 4 4 0 97 6 1 0 0 110 0 78 \012EIF[ ]	/* EndIf */\012NPUSHB[ ]	/* 19 values pushed */\0121 0 39 38 36 34 22 20 18 17 15 13 0 41 1 41 7 12 22 \012CALL[ ]	/* CallFunction */";
};
width = 1284;
}
);
leftKerningGroup = S;
note = uni01A7;
rightKerningGroup = B;
unicode = 01A7;
},
{
glyphname = Tretroflexhook;
lastChange = "2024-07-06 18:41:23 +0000";
layers = (
{
layerId = "4A7900B8-4B55-405E-9DE7-28127A08AA09";
paths = (
{
closed = 1;
nodes = (
"843 -418 LINE SMOOTH",
"919 -418 OFFCURVE",
"961 -386 OFFCURVE",
"961 -329 CURVE SMOOTH",
"961 -271 OFFCURVE",
"923 -239 OFFCURVE",
"854 -239 CURVE SMOOTH",
"814 -239 OFFCURVE",
"786 -231.167 OFFCURVE",
"770 -215.5 CURVE SMOOTH",
"754 -199.833 OFFCURVE",
"746 -175 OFFCURVE",
"746 -141 CURVE SMOOTH",
"746 1295 LINE",
"1101 1295 LINE SMOOTH",
"1177 1295 OFFCURVE",
"1219 1330 OFFCURVE",
"1219 1393 CURVE SMOOTH",
"1219 1456 OFFCURVE",
"1177 1490 OFFCURVE",
"1101 1490 CURVE SMOOTH",
"166 1490 LINE SMOOTH",
"90 1490 OFFCURVE",
"48 1456 OFFCURVE",
"48 1393 CURVE SMOOTH",
"48 1330 OFFCURVE",
"90 1295 OFFCURVE",
"166 1295 CURVE SMOOTH",
"523 1295 LINE",
"523 -146 LINE SMOOTH",
"523 -327.333 OFFCURVE",
"625 -418 OFFCURVE",
"829 -418 CURVE SMOOTH"
);
}
);
userData = {
assembly = "NPUSHB[ ]	/* 40 values pushed */\0123 1 1 1 2 95 0 2 2 103 77 0 4 4 0 97 5 1 0 0 108 0 78 1 0 13 11 8 7 6 5 4 3 0 14 1 14 6 12 22 \012CALL[ ]	/* CallFunction */";
};
width = 1267;
}
);
leftKerningGroup = "Kabashkir-cy";
note = Trthook;
rightKerningGroup = "Enghe-cy";
unicode = 01AE;
},
{
glyphname = U;
lastChange = "2024-07-06 18:41:23 +0000";
layers = (
{
layerId = "4A7900B8-4B55-405E-9DE7-28127A08AA09";
paths = (
{
closed = 1;
nodes = (
"839.333 -24 OFFCURVE",
"943.333 -1.167 OFFCURVE",
"1032 44.5 CURVE SMOOTH",
"1120.667 90.167 OFFCURVE",
"1189.5 153.333 OFFCURVE",
"1238.5 234 CURVE SMOOTH",
"1287.5 314.667 OFFCURVE",
"1312 406.667 OFFCURVE",
"1312 510 CURVE SMOOTH",
"1312 1372 LINE SMOOTH",
"1312 1448 OFFCURVE",
"1273 1490 OFFCURVE",
"1202 1490 CURVE SMOOTH",
"1131 1490 OFFCURVE",
"1091 1448 OFFCURVE",
"1091 1372 CURVE SMOOTH",
"1091 528 LINE SMOOTH",
"1091 426 OFFCURVE",
"1057.833 342 OFFCURVE",
"991.5 276 CURVE SMOOTH",
"925.167 210 OFFCURVE",
"834.667 177 OFFCURVE",
"720 177 CURVE SMOOTH",
"606 177 OFFCURVE",
"515.833 210 OFFCURVE",
"449.5 276 CURVE SMOOTH",
"383.167 342 OFFCURVE",
"350 426 OFFCURVE",
"350 528 CURVE SMOOTH",
"350 1372 LINE SMOOTH",
"350 1448 OFFCURVE",
"311 1490 OFFCURVE",
"240 1490 CURVE SMOOTH",
"169 1490 OFFCURVE",
"129 1448 OFFCURVE",
"129 1372 CURVE SMOOTH",
"129 510 LINE SMOOTH",
"129 406.667 OFFCURVE",
"153.5 314.667 OFFCURVE",
"202.5 234 CURVE SMOOTH",
"251.5 153.333 OFFCURVE",
"320.167 90.167 OFFCURVE",
"408.5 44.5 CURVE SMOOTH",
"496.833 -1.167 OFFCURVE",
"600.667 -24 OFFCURVE",
"720 -24 CURVE SMOOTH"
);
}
);
userData = {
assembly = "NPUSHB[ ]	/* 33 values pushed */\0123 1 1 1 103 77 0 2 2 0 97 4 1 0 0 110 0 78 1 0 15 14 11 9 6 5 0 19 1 19 5 12 22 \012CALL[ ]	/* CallFunction */";
};
width = 1441;
}
);
leftKerningGroup = U;
note = U;
rightKerningGroup = J;
unicode = 0055;
},
{
glyphname = Ubar;
lastChange = "2024-07-06 18:41:23 +0000";
layers = (
{
layerId = "4A7900B8-4B55-405E-9DE7-28127A08AA09";
paths = (
{
closed = 1;
nodes = (
"1507 835 OFFCURVE",
"1465 859 OFFCURVE",
"1389 859 CURVE SMOOTH",
"1323 859 LINE",
"1323 1372 LINE SMOOTH",
"1323 1448 OFFCURVE",
"1284 1490 OFFCURVE",
"1213 1490 CURVE SMOOTH",
"1142 1490 OFFCURVE",
"1102 1448 OFFCURVE",
"1102 1372 CURVE SMOOTH",
"1102 859 LINE",
"361 859 LINE",
"361 1372 LINE SMOOTH",
"361 1448 OFFCURVE",
"322 1490 OFFCURVE",
"251 1490 CURVE SMOOTH",
"180 1490 OFFCURVE",
"140 1448 OFFCURVE",
"140 1372 CURVE SMOOTH",
"140 859 LINE",
"52 859 LINE SMOOTH",
"-5 859 OFFCURVE",
"-36 834 OFFCURVE",
"-36 790 CURVE SMOOTH",
"-36 746 OFFCURVE",
"6 721 OFFCURVE",
"82 721 CURVE SMOOTH",
"140 721 LINE",
"140 510 LINE SMOOTH",
"140 406.667 OFFCURVE",
"164.5 314.667 OFFCURVE",
"213.5 234 CURVE SMOOTH",
"262.5 153.333 OFFCURVE",
"331.333 90.167 OFFCURVE",
"420 44.5 CURVE SMOOTH",
"508.667 -1.167 OFFCURVE",
"612.667 -24 OFFCURVE",
"732 -24 CURVE SMOOTH",
"850.667 -24 OFFCURVE",
"954.333 -1.167 OFFCURVE",
"1043 44.5 CURVE SMOOTH",
"1131.667 90.167 OFFCURVE",
"1200.5 153.333 OFFCURVE",
"1249.5 234 CURVE SMOOTH",
"1298.5 314.667 OFFCURVE",
"1323 406.667 OFFCURVE",
"1323 510 CURVE SMOOTH",
"1323 721 LINE",
"1415 721 LINE SMOOTH",
"1474 721 OFFCURVE",
"1507 746 OFFCURVE",
"1507 790 CURVE SMOOTH"
);
},
{
closed = 1;
nodes = (
"1102 721 LINE",
"1102 528 LINE SMOOTH",
"1102 426 OFFCURVE",
"1069 342 OFFCURVE",
"1003 276 CURVE SMOOTH",
"937 210 OFFCURVE",
"846.667 177 OFFCURVE",
"732 177 CURVE SMOOTH",
"617.333 177 OFFCURVE",
"526.833 210 OFFCURVE",
"460.5 276 CURVE SMOOTH",
"394.167 342 OFFCURVE",
"361 426 OFFCURVE",
"361 528 CURVE SMOOTH",
"361 721 LINE"
);
}
);
userData = {
assembly = "NPUSHB[ ]	/* 50 values pushed */\01210 7 5 3 3 8 2 2 0 9 3 0 103 6 1 4 4 103 77 0 9 9 1 97 0 1 1 110 1 78 0 0 29 27 24 23 0 22 0 22 17 17 17 17 20 36 17 11 12 29 \012CALL[ ]	/* CallFunction */";
};
width = 1471;
}
);
leftKerningGroup = U;
note = uni0244;
rightKerningGroup = J;
unicode = 0244;
},
{
glyphname = Uhorn;
lastChange = "2024-07-06 18:41:23 +0000";
layers = (
{
layerId = "4A7900B8-4B55-405E-9DE7-28127A08AA09";
paths = (
{
closed = 1;
nodes = (
"839.333 -24 OFFCURVE",
"943.333 -1.167 OFFCURVE",
"1032 44.5 CURVE SMOOTH",
"1120.667 90.167 OFFCURVE",
"1189.5 153.333 OFFCURVE",
"1238.5 234 CURVE SMOOTH",
"1287.5 314.667 OFFCURVE",
"1312 406.667 OFFCURVE",
"1312 510 CURVE SMOOTH",
"1312 1334 LINE",
"1430 1336.667 OFFCURVE",
"1489 1395.667 OFFCURVE",
"1489 1511 CURVE SMOOTH",
"1489 1612 LINE SMOOTH",
"1489 1688 OFFCURVE",
"1453 1730 OFFCURVE",
"1388 1730 CURVE SMOOTH",
"1323 1730 OFFCURVE",
"1287 1688 OFFCURVE",
"1287 1612 CURVE SMOOTH",
"1287 1511 LINE SMOOTH",
"1287 1497 OFFCURVE",
"1280 1490 OFFCURVE",
"1266 1490 CURVE SMOOTH",
"1209 1490 LINE SMOOTH",
"1133 1490 OFFCURVE",
"1091 1448 OFFCURVE",
"1091 1372 CURVE SMOOTH",
"1091 528 LINE SMOOTH",
"1091 426 OFFCURVE",
"1057.833 342 OFFCURVE",
"991.5 276 CURVE SMOOTH",
"925.167 210 OFFCURVE",
"834.667 177 OFFCURVE",
"720 177 CURVE SMOOTH",
"606 177 OFFCURVE",
"515.833 210 OFFCURVE",
"449.5 276 CURVE SMOOTH",
"383.167 342 OFFCURVE",
"350 426 OFFCURVE",
"350 528 CURVE SMOOTH",
"350 1372 LINE SMOOTH",
"350 1448 OFFCURVE",
"311 1490 OFFCURVE",
"240 1490 CURVE SMOOTH",
"169 1490 OFFCURVE",
"129 1448 OFFCURVE",
"129 1372 CURVE SMOOTH",
"129 510 LINE SMOOTH",
"129 406.667 OFFCURVE",
"153.5 314.667 OFFCURVE",
"202.5 234 CURVE SMOOTH",
"251.5 153.333 OFFCURVE",
"320.167 90.167 OFFCURVE",
"408.5 44.5 CURVE SMOOTH",
"496.833 -1.167 OFFCURVE",
"600.667 -24 OFFCURVE",
"720 -24 CURVE SMOOTH"
);
}
);
userData = {
assembly = "NPUSHB[ ]	/* 45 values pushed */\0120 4 0 5 2 4 5 105 3 1 1 1 103 77 0 2 2 0 97 6 1 0 0 110 0 78 1 0 22 21 19 18 16 14 11 9 6 5 0 26 1 26 7 12 22 \012CALL[ ]	/* CallFunction */";
};
width = 1441;
}
);
leftKerningGroup = U;
note = Uhorn;
rightKerningGroup = Uhorn;
unicode = 01AF;
},
{
glyphname = "Upsilon-latin";
lastChange = "2024-07-06 18:41:23 +0000";
layers = (
{
layerId = "4A7900B8-4B55-405E-9DE7-28127A08AA09";
paths = (
{
closed = 1;
nodes = (
"84 557 OFFCURVE",
"112.833 433 OFFCURVE",
"170.5 325 CURVE SMOOTH",
"228.167 217 OFFCURVE",
"307.5 132.5 OFFCURVE",
"408.5 71.5 CURVE SMOOTH",
"509.5 10.5 OFFCURVE",
"625.333 -20 OFFCURVE",
"756 -20 CURVE SMOOTH",
"886.667 -20 OFFCURVE",
"1002.5 10.5 OFFCURVE",
"1103.5 71.5 CURVE SMOOTH",
"1204.5 132.5 OFFCURVE",
"1283.833 217 OFFCURVE",
"1341.5 325 CURVE SMOOTH",
"1399.167 433 OFFCURVE",
"1428 557 OFFCURVE",
"1428 697 CURVE SMOOTH",
"1428 833 OFFCURVE",
"1400.833 950.833 OFFCURVE",
"1346.5 1050.5 CURVE SMOOTH",
"1292.167 1150.167 OFFCURVE",
"1218.667 1229.333 OFFCURVE",
"1126 1288 CURVE",
"1126 1300 LINE",
"1310 1300 LINE SMOOTH",
"1386 1300 OFFCURVE",
"1428 1334 OFFCURVE",
"1428 1395 CURVE SMOOTH",
"1428 1456 OFFCURVE",
"1386 1490 OFFCURVE",
"1310 1490 CURVE SMOOTH",
"998 1490 LINE SMOOTH",
"922 1490 OFFCURVE",
"880 1448 OFFCURVE",
"880 1372 CURVE SMOOTH",
"880 1344 LINE SMOOTH",
"880 1279 OFFCURVE",
"909 1241 OFFCURVE",
"963 1203 CURVE SMOOTH",
"992 1183 OFFCURVE",
"1020 1160 OFFCURVE",
"1045.5 1132 CURVE SMOOTH",
"1095.167 1079.333 OFFCURVE",
"1134.833 1016.667 OFFCURVE",
"1164.5 944 CURVE SMOOTH",
"1194.167 871.333 OFFCURVE",
"1209 791.333 OFFCURVE",
"1209 704 CURVE SMOOTH",
"1209 606 OFFCURVE",
"1189.667 517.5 OFFCURVE",
"1151 438.5 CURVE SMOOTH",
"1112.333 359.5 OFFCURVE",
"1059 296.833 OFFCURVE",
"991 250.5 CURVE SMOOTH",
"923 204.167 OFFCURVE",
"844.667 181 OFFCURVE",
"756 181 CURVE SMOOTH",
"667.333 181 OFFCURVE",
"588.833 204.167 OFFCURVE",
"520.5 250.5 CURVE SMOOTH",
"452.167 296.833 OFFCURVE",
"398.5 359.5 OFFCURVE",
"359.5 438.5 CURVE SMOOTH",
"320.5 517.5 OFFCURVE",
"301 606 OFFCURVE",
"301 704 CURVE SMOOTH",
"301 791.333 OFFCURVE",
"316 871.333 OFFCURVE",
"346 944 CURVE SMOOTH",
"376 1016.667 OFFCURVE",
"416 1079.333 OFFCURVE",
"466 1132 CURVE SMOOTH",
"492 1160 OFFCURVE",
"520 1183 OFFCURVE",
"549 1203 CURVE SMOOTH",
"603 1241 OFFCURVE",
"632 1279 OFFCURVE",
"632 1344 CURVE SMOOTH",
"632 1372 LINE SMOOTH",
"632 1448 OFFCURVE",
"590 1490 OFFCURVE",
"514 1490 CURVE SMOOTH",
"202 1490 LINE SMOOTH",
"126 1490 OFFCURVE",
"84 1456 OFFCURVE",
"84 1395 CURVE SMOOTH",
"84 1334 OFFCURVE",
"126 1300 OFFCURVE",
"202 1300 CURVE SMOOTH",
"386 1300 LINE",
"386 1288 LINE",
"292.667 1228 OFFCURVE",
"219 1148.5 OFFCURVE",
"165 1049.5 CURVE SMOOTH",
"111 950.5 OFFCURVE",
"84 833 OFFCURVE",
"84 697 CURVE SMOOTH"
);
}
);
userData = {
assembly = "NPUSHB[ ]	/* 39 values pushed */\01224 8 2 2 0 1 76 4 1 0 0 1 95 3 1 1 1 103 77 0 2 2 5 97 0 5 5 110 5 78 39 17 24 40 17 35 6 12 28 \012CALL[ ]	/* CallFunction */";
};
width = 1512;
}
);
note = Upsilon2;
unicode = 01B1;
},
{
glyphname = V;
lastChange = "2024-07-06 18:41:23 +0000";
layers = (
{
layerId = "4A7900B8-4B55-405E-9DE7-28127A08AA09";
paths = (
{
closed = 1;
nodes = (
"723 0 LINE SMOOTH",
"791 0 OFFCURVE",
"835 31 OFFCURVE",
"858 95 CURVE SMOOTH",
"1309 1355 LINE SMOOTH",
"1338 1437 OFFCURVE",
"1304 1490 OFFCURVE",
"1223 1490 CURVE SMOOTH",
"1154 1490 OFFCURVE",
"1111 1460 OFFCURVE",
"1089 1394 CURVE SMOOTH",
"835 650 LINE SMOOTH",
"817 596 OFFCURVE",
"796.5 532.333 OFFCURVE",
"773.5 459 CURVE SMOOTH",
"750.5 385.667 OFFCURVE",
"724 300 OFFCURVE",
"694 202 CURVE",
"612 459 LINE SMOOTH",
"588.667 532.333 OFFCURVE",
"568 596 OFFCURVE",
"550 650 CURVE SMOOTH",
"288 1395 LINE SMOOTH",
"265 1459 OFFCURVE",
"222 1490 OFFCURVE",
"154 1490 CURVE SMOOTH",
"136 1490 LINE SMOOTH",
"64 1490 OFFCURVE",
"35 1437 OFFCURVE",
"65 1354 CURVE SMOOTH",
"523 94 LINE SMOOTH",
"546 30 OFFCURVE",
"590 0 OFFCURVE",
"658 0 CURVE SMOOTH"
);
}
);
userData = {
assembly = "NPUSHB[ ]	/* 30 values pushed */\0126 1 2 0 1 76 1 1 0 0 103 77 3 1 2 2 104 2 78 0 0 0 12 0 12 24 17 4 12 24 \012CALL[ ]	/* CallFunction */";
};
width = 1374;
}
);
leftKerningGroup = V;
note = V;
rightKerningGroup = V;
unicode = 0056;
},
{
glyphname = "V-middleWelsh";
lastChange = "2024-07-06 18:41:23 +0000";
layers = (
{
layerId = "4A7900B8-4B55-405E-9DE7-28127A08AA09";
paths = (
{
closed = 1;
nodes = (
"685 728 OFFCURVE",
"712 704 OFFCURVE",
"736 676 CURVE SMOOTH",
"785.333 618.667 OFFCURVE",
"810 539.333 OFFCURVE",
"810 438 CURVE SMOOTH",
"810 352 OFFCURVE",
"788.5 285.667 OFFCURVE",
"745.5 239 CURVE SMOOTH",
"702.5 192.333 OFFCURVE",
"642.333 169 OFFCURVE",
"565 169 CURVE SMOOTH",
"497 169 OFFCURVE",
"437.833 200.167 OFFCURVE",
"387.5 262.5 CURVE SMOOTH",
"337.167 324.833 OFFCURVE",
"311.667 415 OFFCURVE",
"311 533 CURVE",
"311 657 LINE SMOOTH",
"311 832.333 OFFCURVE",
"348.833 971 OFFCURVE",
"424.5 1073 CURVE SMOOTH",
"481 1150 OFFCURVE",
"561 1206 OFFCURVE",
"663 1242 CURVE SMOOTH",
"733 1268 OFFCURVE",
"766 1305 OFFCURVE",
"756 1368 CURVE SMOOTH",
"746 1429 OFFCURVE",
"697 1458 OFFCURVE",
"621 1437 CURVE SMOOTH",
"511 1407 OFFCURVE",
"420 1362 OFFCURVE",
"347.5 1302.5 CURVE SMOOTH",
"250.5 1222.833 OFFCURVE",
"180.833 1123.5 OFFCURVE",
"138.5 1004.5 CURVE SMOOTH",
"96.167 885.5 OFFCURVE",
"75 753.333 OFFCURVE",
"75 608 CURVE SMOOTH",
"75 550 LINE SMOOTH",
"75 452 OFFCURVE",
"93.667 359.667 OFFCURVE",
"131 273 CURVE SMOOTH",
"168.333 186.333 OFFCURVE",
"223.5 115.833 OFFCURVE",
"296.5 61.5 CURVE SMOOTH",
"369.5 7.167 OFFCURVE",
"459.667 -20 OFFCURVE",
"567 -20 CURVE SMOOTH",
"719.667 -20 OFFCURVE",
"837.167 22.5 OFFCURVE",
"919.5 107.5 CURVE SMOOTH",
"1001.833 192.5 OFFCURVE",
"1043 308 OFFCURVE",
"1043 454 CURVE SMOOTH",
"1043 538.667 OFFCURVE",
"1025.667 616.333 OFFCURVE",
"991 687 CURVE SMOOTH",
"956.333 757.667 OFFCURVE",
"908.667 817.833 OFFCURVE",
"848 867.5 CURVE SMOOTH",
"817 893 OFFCURVE",
"783 915 OFFCURVE",
"747 934 CURVE SMOOTH",
"680 968 OFFCURVE",
"626 945 OFFCURVE",
"601 886 CURVE SMOOTH",
"575 827 OFFCURVE",
"599 788 OFFCURVE",
"657 748 CURVE SMOOTH"
);
}
);
userData = {
assembly = "NPUSHB[ ]	/* 22 values pushed */\01218 17 1 3 1 74 0 1 1 0 97 0 0 0 110 0 78 47 39 2 12 24 \012CALL[ ]	/* CallFunction */";
};
width = 1117;
}
);
note = uni1EFC;
unicode = 1EFC;
},
{
glyphname = "Gamma-latin";
lastChange = "2024-07-06 18:41:23 +0000";
layers = (
{
layerId = "4A7900B8-4B55-405E-9DE7-28127A08AA09";
paths = (
{
closed = 1;
nodes = (
"65 1490 OFFCURVE",
"30 1435 OFFCURVE",
"67 1352 CURVE SMOOTH",
"541 301 LINE",
"433.5 64 LINE SMOOTH",
"405.833 3.333 OFFCURVE",
"385.333 -46.167 OFFCURVE",
"372 -84.5 CURVE SMOOTH",
"358.667 -122.833 OFFCURVE",
"352 -157.333 OFFCURVE",
"352 -188 CURVE SMOOTH",
"352 -268.667 OFFCURVE",
"378.833 -331.167 OFFCURVE",
"432.5 -375.5 CURVE SMOOTH",
"486.167 -419.833 OFFCURVE",
"559.333 -442 OFFCURVE",
"652 -442 CURVE SMOOTH",
"744 -442 OFFCURVE",
"816.667 -419.667 OFFCURVE",
"870 -375 CURVE SMOOTH",
"923.333 -330.333 OFFCURVE",
"950 -268.667 OFFCURVE",
"950 -190 CURVE SMOOTH",
"950 -144 OFFCURVE",
"933.167 -84 OFFCURVE",
"899.5 -10 CURVE SMOOTH",
"762 294 LINE",
"1237 1352 LINE SMOOTH",
"1274 1435 OFFCURVE",
"1239 1490 OFFCURVE",
"1152 1490 CURVE SMOOTH",
"1085 1490 OFFCURVE",
"1042 1461 OFFCURVE",
"1015 1400 CURVE SMOOTH",
"650 554 LINE",
"289 1400 LINE SMOOTH",
"263 1462 OFFCURVE",
"219 1490 OFFCURVE",
"152 1490 CURVE SMOOTH"
);
},
{
closed = 1;
nodes = (
"678.333 -6.333 OFFCURVE",
"697.833 -53.167 OFFCURVE",
"711.5 -89.5 CURVE SMOOTH",
"725.167 -125.833 OFFCURVE",
"732 -157 OFFCURVE",
"732 -183 CURVE SMOOTH",
"732 -205 OFFCURVE",
"724.667 -223.833 OFFCURVE",
"710 -239.5 CURVE SMOOTH",
"695.333 -255.167 OFFCURVE",
"676 -263 OFFCURVE",
"652 -263 CURVE SMOOTH",
"627.333 -263 OFFCURVE",
"607.833 -255.5 OFFCURVE",
"593.5 -240.5 CURVE SMOOTH",
"579.167 -225.5 OFFCURVE",
"572 -206.667 OFFCURVE",
"572 -184 CURVE SMOOTH",
"572 -158 OFFCURVE",
"579.167 -126.333 OFFCURVE",
"593.5 -89 CURVE SMOOTH",
"607.833 -51.667 OFFCURVE",
"627.667 -5 OFFCURVE",
"653 51 CURVE"
);
}
);
userData = {
assembly = "PUSHB[ ]	/* 8 values pushed */\01218 5 2 3 3 0 1 76 \012MPPEM[ ]	/* MeasurePixelPerEm */\012PUSHB[ ]	/* 1 value pushed */\01243 \012LT[ ]	/* LessThan */\012IF[ ]	/* If */\012NPUSHB[ ]	/* 17 values pushed */\0121 1 0 0 103 77 0 3 3 2 97 0 2 2 108 2 78 \012ELSE[ ]	/* Else */\012NPUSHB[ ]	/* 14 values pushed */\0120 3 0 2 3 2 101 1 1 0 0 103 0 78 \012EIF[ ]	/* EndIf */\012PUSHB[ ]	/* 7 values pushed */\01244 38 18 16 4 12 26 \012CALL[ ]	/* CallFunction */";
};
width = 1304;
}
);
leftKerningGroup = V;
note = Gamma1;
rightKerningGroup = V;
unicode = 0194;
},
{
glyphname = Vhook;
lastChange = "2024-07-06 18:41:23 +0000";
layers = (
{
layerId = "4A7900B8-4B55-405E-9DE7-28127A08AA09";
paths = (
{
closed = 1;
nodes = (
"728.333 -20 OFFCURVE",
"819.333 -1.333 OFFCURVE",
"902 36 CURVE SMOOTH",
"984.667 73.333 OFFCURVE",
"1050.833 129.167 OFFCURVE",
"1100.5 203.5 CURVE SMOOTH",
"1150.167 277.833 OFFCURVE",
"1174.667 370.333 OFFCURVE",
"1174 481 CURVE",
"1174 1142 LINE SMOOTH",
"1174 1260 OFFCURVE",
"1142.167 1350.833 OFFCURVE",
"1078.5 1414.5 CURVE SMOOTH",
"1014.833 1478.167 OFFCURVE",
"933.333 1510 OFFCURVE",
"834 1510 CURVE SMOOTH",
"809.333 1510 OFFCURVE",
"785.667 1508.167 OFFCURVE",
"763 1504.5 CURVE SMOOTH",
"752 1503 OFFCURVE",
"742 1501 OFFCURVE",
"732 1499 CURVE SMOOTH",
"712 1495 OFFCURVE",
"702 1456 OFFCURVE",
"702 1385 CURVE SMOOTH",
"702 1305 LINE",
"713.333 1307.667 OFFCURVE",
"726.167 1309.333 OFFCURVE",
"740.5 1310 CURVE SMOOTH",
"777 1311 LINE SMOOTH",
"828.333 1311 OFFCURVE",
"867 1298.667 OFFCURVE",
"893 1274 CURVE SMOOTH",
"919 1249.333 OFFCURVE",
"931.667 1205.333 OFFCURVE",
"931 1142 CURVE SMOOTH",
"931 481 LINE SMOOTH",
"931 375.667 OFFCURVE",
"904.167 297.833 OFFCURVE",
"850.5 247.5 CURVE SMOOTH",
"796.833 197.167 OFFCURVE",
"723 172 OFFCURVE",
"629 172 CURVE SMOOTH",
"534.333 172 OFFCURVE",
"459.833 197.167 OFFCURVE",
"405.5 247.5 CURVE SMOOTH",
"351.167 297.833 OFFCURVE",
"323.667 375.667 OFFCURVE",
"323 481 CURVE",
"323 1372 LINE SMOOTH",
"323 1448 OFFCURVE",
"281 1490 OFFCURVE",
"205 1490 CURVE SMOOTH",
"202 1490 LINE SMOOTH",
"126 1490 OFFCURVE",
"84 1448 OFFCURVE",
"84 1372 CURVE SMOOTH",
"84 481 LINE SMOOTH",
"84 370.333 OFFCURVE",
"107.833 277.833 OFFCURVE",
"155.5 203.5 CURVE SMOOTH",
"203.167 129.167 OFFCURVE",
"268 73.333 OFFCURVE",
"350 36 CURVE SMOOTH",
"432 -1.333 OFFCURVE",
"525 -20 OFFCURVE",
"629 -20 CURVE SMOOTH"
);
}
);
userData = {
assembly = "MPPEM[ ]	/* MeasurePixelPerEm */\012PUSHB[ ]	/* 1 value pushed */\01226 \012LT[ ]	/* LessThan */\012IF[ ]	/* If */\012NPUSHB[ ]	/* 10 values pushed */\01220 1 2 3 1 76 21 1 1 74 \012ELSE[ ]	/* Else */\012NPUSHB[ ]	/* 10 values pushed */\01221 1 1 4 20 1 2 3 2 76 \012EIF[ ]	/* EndIf */\012MPPEM[ ]	/* MeasurePixelPerEm */\012PUSHB[ ]	/* 1 value pushed */\01226 \012LT[ ]	/* LessThan */\012IF[ ]	/* If */\012NPUSHB[ ]	/* 23 values pushed */\0120 3 3 1 97 4 1 1 1 103 77 0 2 2 0 97 5 1 0 0 110 0 78 \012ELSE[ ]	/* Else */\012NPUSHB[ ]	/* 27 values pushed */\0120 1 1 103 77 0 3 3 4 97 0 4 4 109 77 0 2 2 0 97 5 1 0 0 110 0 78 \012EIF[ ]	/* EndIf */\012NPUSHB[ ]	/* 17 values pushed */\0121 0 25 23 19 16 11 9 6 5 0 31 1 31 6 12 22 \012CALL[ ]	/* CallFunction */";
};
width = 1257;
}
);
note = Vcursive;
unicode = 01B2;
},
{
glyphname = Vturned;
lastChange = "2024-07-06 18:41:23 +0000";
layers = (
{
layerId = "4A7900B8-4B55-405E-9DE7-28127A08AA09";
paths = (
{
closed = 1;
nodes = (
"1226 0 LINE SMOOTH",
"1313 0 OFFCURVE",
"1350 53 OFFCURVE",
"1321 135 CURVE SMOOTH",
"870 1395 LINE SMOOTH",
"847 1459 OFFCURVE",
"803 1490 OFFCURVE",
"735 1490 CURVE SMOOTH",
"709 1490 LINE SMOOTH",
"641 1490 OFFCURVE",
"597 1459 OFFCURVE",
"574 1395 CURVE SMOOTH",
"124 135 LINE SMOOTH",
"95 52 OFFCURVE",
"133 0 OFFCURVE",
"220 0 CURVE SMOOTH",
"240 0 LINE SMOOTH",
"309 0 OFFCURVE",
"352 31 OFFCURVE",
"373 97 CURVE SMOOTH",
"722 1182 LINE",
"1074 97 LINE SMOOTH",
"1095 31 OFFCURVE",
"1139 0 OFFCURVE",
"1208 0 CURVE SMOOTH"
);
}
);
userData = {
assembly = "NPUSHB[ ]	/* 30 values pushed */\0121 1 0 1 1 76 0 1 1 103 77 3 2 2 0 0 104 0 78 0 0 0 6 0 6 17 18 4 12 24 \012CALL[ ]	/* CallFunction */";
};
width = 1445;
}
);
note = uni0245;
unicode = 0245;
},
{
glyphname = W;
lastChange = "2024-07-06 18:41:23 +0000";
layers = (
{
layerId = "4A7900B8-4B55-405E-9DE7-28127A08AA09";
paths = (
{
closed = 1;
nodes = (
"573 0 LINE SMOOTH",
"643 0 OFFCURVE",
"686 33 OFFCURVE",
"704 101 CURVE SMOOTH",
"920 911 LINE SMOOTH",
"932.667 957 OFFCURVE",
"944.333 1004.167 OFFCURVE",
"955 1052.5 CURVE SMOOTH",
"965.667 1100.833 OFFCURVE",
"976.333 1150.333 OFFCURVE",
"987 1201 CURVE",
"1020.5 1052.5 LINE SMOOTH",
"1031.5 1004.167 OFFCURVE",
"1043 957 OFFCURVE",
"1055 911 CURVE SMOOTH",
"1273 101 LINE SMOOTH",
"1291 33 OFFCURVE",
"1334 0 OFFCURVE",
"1404 0 CURVE SMOOTH",
"1450 0 LINE SMOOTH",
"1520 0 OFFCURVE",
"1563 32 OFFCURVE",
"1581 100 CURVE SMOOTH",
"1924 1358 LINE SMOOTH",
"1946 1439 OFFCURVE",
"1911 1490 OFFCURVE",
"1833 1490 CURVE SMOOTH",
"1763 1490 OFFCURVE",
"1719 1456 OFFCURVE",
"1702 1388 CURVE SMOOTH",
"1509 623 LINE SMOOTH",
"1493.667 559.667 OFFCURVE",
"1478.833 496.167 OFFCURVE",
"1464.5 432.5 CURVE SMOOTH",
"1450.167 368.833 OFFCURVE",
"1436.333 305.333 OFFCURVE",
"1423 242 CURVE",
"1395.667 369.333 OFFCURVE",
"1366 496.333 OFFCURVE",
"1334 623 CURVE SMOOTH",
"1136 1389 LINE SMOOTH",
"1118 1458 OFFCURVE",
"1075 1490 OFFCURVE",
"1005 1490 CURVE SMOOTH",
"972 1490 LINE SMOOTH",
"902 1490 OFFCURVE",
"859 1458 OFFCURVE",
"841 1389 CURVE SMOOTH",
"641 623 LINE SMOOTH",
"624.333 559 OFFCURVE",
"608.667 494.833 OFFCURVE",
"594 430.5 CURVE SMOOTH",
"579.333 366.167 OFFCURVE",
"565.333 301.667 OFFCURVE",
"552 237 CURVE",
"538.667 301.667 OFFCURVE",
"525 366.167 OFFCURVE",
"511 430.5 CURVE SMOOTH",
"497 494.833 OFFCURVE",
"482 559 OFFCURVE",
"466 623 CURVE SMOOTH",
"273 1388 LINE SMOOTH",
"256 1456 OFFCURVE",
"212 1490 OFFCURVE",
"142 1490 CURVE SMOOTH",
"132 1490 LINE SMOOTH",
"61 1490 OFFCURVE",
"30 1439 OFFCURVE",
"52 1358 CURVE SMOOTH",
"393 101 LINE SMOOTH",
"411 34 OFFCURVE",
"454 0 OFFCURVE",
"524 0 CURVE SMOOTH"
);
}
);
userData = {
assembly = "NPUSHB[ ]	/* 36 values pushed */\01225 14 6 3 3 0 1 76 2 1 2 0 0 103 77 5 4 2 3 3 104 3 78 0 0 0 29 0 29 17 23 24 17 6 12 26 \012CALL[ ]	/* CallFunction */";
};
width = 1976;
}
);
leftKerningGroup = W;
note = W;
rightKerningGroup = W;
unicode = 0057;
},
{
glyphname = Wynn;
lastChange = "2024-07-06 18:41:23 +0000";
layers = (
{
layerId = "4A7900B8-4B55-405E-9DE7-28127A08AA09";
paths = (
{
closed = 1;
nodes = (
"342 1477 OFFCURVE",
"300 1490 OFFCURVE",
"224 1490 CURVE SMOOTH",
"220 1490 LINE SMOOTH",
"144 1490 OFFCURVE",
"102 1448 OFFCURVE",
"102 1372 CURVE SMOOTH",
"102 -300 LINE SMOOTH",
"102 -376 OFFCURVE",
"144 -418 OFFCURVE",
"220 -418 CURVE SMOOTH",
"224 -418 LINE SMOOTH",
"300 -418 OFFCURVE",
"342 -376 OFFCURVE",
"342 -300 CURVE SMOOTH",
"342 -158 LINE",
"512 -116 OFFCURVE",
"661.833 -47.667 OFFCURVE",
"791.5 47 CURVE SMOOTH",
"921.167 141.667 OFFCURVE",
"1022.5 255.333 OFFCURVE",
"1095.5 388 CURVE SMOOTH",
"1168.5 520.667 OFFCURVE",
"1205 665.333 OFFCURVE",
"1205 822 CURVE SMOOTH",
"1205 874 LINE SMOOTH",
"1205 1016 OFFCURVE",
"1180 1134.167 OFFCURVE",
"1130 1228.5 CURVE SMOOTH",
"1080 1322.833 OFFCURVE",
"1010.333 1393.333 OFFCURVE",
"921 1440 CURVE SMOOTH",
"831.667 1486.667 OFFCURVE",
"727.667 1510 OFFCURVE",
"609 1510 CURVE SMOOTH",
"553.667 1510 OFFCURVE",
"504 1505 OFFCURVE",
"460 1495 CURVE SMOOTH",
"416 1485 OFFCURVE",
"376.667 1471 OFFCURVE",
"342 1453 CURVE"
);
},
{
closed = 1;
nodes = (
"342 1200 LINE",
"369.333 1236.667 OFFCURVE",
"404.833 1265.167 OFFCURVE",
"448.5 1285.5 CURVE SMOOTH",
"492.167 1305.833 OFFCURVE",
"546.667 1316 OFFCURVE",
"612 1316 CURVE SMOOTH",
"732 1316 OFFCURVE",
"820.667 1279 OFFCURVE",
"878 1205 CURVE SMOOTH",
"935.333 1131 OFFCURVE",
"964 1022 OFFCURVE",
"964 878 CURVE SMOOTH",
"964 822 LINE SMOOTH",
"964 716 OFFCURVE",
"941.667 611 OFFCURVE",
"897 507 CURVE SMOOTH",
"852.333 403 OFFCURVE",
"784 309.667 OFFCURVE",
"692 227 CURVE SMOOTH",
"600 144.333 OFFCURVE",
"483.333 82 OFFCURVE",
"342 40 CURVE"
);
}
);
userData = {
assembly = "MPPEM[ ]	/* MeasurePixelPerEm */\012PUSHB[ ]	/* 1 value pushed */\01226 \012LT[ ]	/* LessThan */\012IF[ ]	/* If */\012NPUSHB[ ]	/* 12 values pushed */\0121 1 3 0 28 17 13 3 1 3 2 76 \012ELSE[ ]	/* Else */\012NPUSHB[ ]	/* 12 values pushed */\0121 1 3 2 28 17 13 3 1 3 2 76 \012EIF[ ]	/* EndIf */\012MPPEM[ ]	/* MeasurePixelPerEm */\012PUSHB[ ]	/* 1 value pushed */\01226 \012LT[ ]	/* LessThan */\012IF[ ]	/* If */\012NPUSHB[ ]	/* 18 values pushed */\0120 3 3 0 97 4 2 2 0 0 109 77 0 1 1 108 1 78 \012ELSE[ ]	/* Else */\012NPUSHB[ ]	/* 22 values pushed */\0124 1 2 2 103 77 0 3 3 0 97 0 0 0 109 77 0 1 1 108 1 78 \012EIF[ ]	/* EndIf */\012NPUSHB[ ]	/* 13 values pushed */\0120 0 26 24 0 16 0 16 25 35 5 12 24 \012CALL[ ]	/* CallFunction */";
};
width = 1306;
}
);
note = uni01F7;
unicode = 01F7;
},
{
glyphname = X;
lastChange = "2024-07-06 18:41:23 +0000";
layers = (
{
layerId = "4A7900B8-4B55-405E-9DE7-28127A08AA09";
paths = (
{
closed = 1;
nodes = (
"181 0 LINE SMOOTH",
"244 0 OFFCURVE",
"288 22 OFFCURVE",
"324 75 CURVE SMOOTH",
"522 361 LINE",
"601 477 LINE SMOOTH",
"627 515.667 OFFCURVE",
"653 554.333 OFFCURVE",
"679 593 CURVE",
"755.5 477 LINE SMOOTH",
"781.167 438.333 OFFCURVE",
"807.333 399.667 OFFCURVE",
"834 361 CURVE SMOOTH",
"1029 75 LINE SMOOTH",
"1065 23 OFFCURVE",
"1108 0 OFFCURVE",
"1171 0 CURVE SMOOTH",
"1209 0 LINE SMOOTH",
"1281 0 OFFCURVE",
"1294 62 OFFCURVE",
"1239 143 CURVE SMOOTH",
"809 770 LINE",
"1206 1347 LINE SMOOTH",
"1261 1428 OFFCURVE",
"1234 1490 OFFCURVE",
"1146 1490 CURVE SMOOTH",
"1083 1490 OFFCURVE",
"1040 1467 OFFCURVE",
"1004 1415 CURVE SMOOTH",
"850 1191 LINE SMOOTH",
"820.667 1148.333 OFFCURVE",
"792 1105.833 OFFCURVE",
"764 1063.5 CURVE SMOOTH",
"736 1021.167 OFFCURVE",
"708.333 978.667 OFFCURVE",
"681 936 CURVE",
"598.5 1063.5 LINE SMOOTH",
"570.833 1105.833 OFFCURVE",
"542.667 1148.333 OFFCURVE",
"514 1191 CURVE SMOOTH",
"364 1414 LINE SMOOTH",
"329 1467 OFFCURVE",
"285 1490 OFFCURVE",
"222 1490 CURVE SMOOTH",
"186 1490 LINE SMOOTH",
"115 1490 OFFCURVE",
"101 1428 OFFCURVE",
"156 1347 CURVE SMOOTH",
"555 762 LINE",
"121 143 LINE SMOOTH",
"65 63 OFFCURVE",
"77 0 OFFCURVE",
"147 0 CURVE SMOOTH"
);
}
);
userData = {
assembly = "NPUSHB[ ]	/* 35 values pushed */\01219 13 7 1 4 2 0 1 76 1 1 0 0 103 77 4 3 2 2 2 104 2 78 0 0 0 23 0 23 18 24 18 5 12 25 \012CALL[ ]	/* CallFunction */";
};
width = 1357;
}
);
leftKerningGroup = X;
note = X;
rightKerningGroup = X;
unicode = 0058;
},
{
glyphname = Y;
lastChange = "2024-07-06 18:41:23 +0000";
layers = (
{
layerId = "4A7900B8-4B55-405E-9DE7-28127A08AA09";
paths = (
{
closed = 1;
nodes = (
"566 118 LINE SMOOTH",
"566 42 OFFCURVE",
"605 0 OFFCURVE",
"676 0 CURVE SMOOTH",
"747 0 OFFCURVE",
"786 42 OFFCURVE",
"786 118 CURVE SMOOTH",
"786 595 LINE",
"1245 1348 LINE SMOOTH",
"1294 1429 OFFCURVE",
"1262 1490 OFFCURVE",
"1170 1490 CURVE SMOOTH",
"1106 1490 OFFCURVE",
"1062 1465 OFFCURVE",
"1029 1410 CURVE SMOOTH",
"797 1020 LINE",
"736 916 LINE SMOOTH",
"716 881.333 OFFCURVE",
"696.333 846.667 OFFCURVE",
"677 812 CURVE",
"618 916 LINE SMOOTH",
"598 950.667 OFFCURVE",
"577.333 985.333 OFFCURVE",
"556 1020 CURVE SMOOTH",
"321 1410 LINE SMOOTH",
"288 1465 OFFCURVE",
"244 1490 OFFCURVE",
"180 1490 CURVE SMOOTH",
"145 1490 LINE SMOOTH",
"72 1490 OFFCURVE",
"53 1429 OFFCURVE",
"103 1348 CURVE SMOOTH",
"566 595 LINE"
);
}
);
userData = {
assembly = "NPUSHB[ ]	/* 32 values pushed */\01213 7 1 3 2 0 1 76 1 1 0 0 103 77 3 1 2 2 104 2 78 0 0 0 14 0 14 24 18 4 12 24 \012CALL[ ]	/* CallFunction */";
};
width = 1348;
}
);
leftKerningGroup = Y;
note = Y;
rightKerningGroup = Y;
unicode = 0059;
},
{
glyphname = Yhook;
lastChange = "2024-07-06 18:41:23 +0000";
layers = (
{
layerId = "4A7900B8-4B55-405E-9DE7-28127A08AA09";
paths = (
{
closed = 1;
nodes = (
"92 1490 OFFCURVE",
"64 1429 OFFCURVE",
"114 1348 CURVE SMOOTH",
"576 602 LINE",
"576 118 LINE SMOOTH",
"576 42 OFFCURVE",
"615 0 OFFCURVE",
"686 0 CURVE SMOOTH",
"757 0 OFFCURVE",
"796 42 OFFCURVE",
"796 118 CURVE SMOOTH",
"796 602 LINE",
"1185 1233 LINE SMOOTH",
"1212.333 1275.667 OFFCURVE",
"1241.5 1301.667 OFFCURVE",
"1272.5 1311 CURVE SMOOTH",
"1289 1316 OFFCURVE",
"1306 1318 OFFCURVE",
"1325 1316 CURVE SMOOTH",
"1361 1312 OFFCURVE",
"1386 1331 OFFCURVE",
"1404 1390 CURVE SMOOTH",
"1421 1446 OFFCURVE",
"1393 1500 OFFCURVE",
"1315 1506 CURVE SMOOTH",
"1276 1509 OFFCURVE",
"1238 1505 OFFCURVE",
"1199 1494.5 CURVE SMOOTH",
"1121.667 1472.833 OFFCURVE",
"1057 1418.333 OFFCURVE",
"1005 1331 CURVE SMOOTH",
"695 810 LINE",
"678 810 LINE",
"321 1410 LINE SMOOTH",
"288 1465 OFFCURVE",
"244 1490 OFFCURVE",
"180 1490 CURVE SMOOTH"
);
}
);
userData = {
assembly = "NPUSHB[ ]	/* 26 values pushed */\01215 12 8 7 2 5 1 0 1 76 0 0 0 103 77 0 1 1 104 1 78 28 16 2 12 24 \012CALL[ ]	/* CallFunction */";
};
width = 1439;
}
);
leftKerningGroup = Y;
note = uni01B3;
rightKerningGroup = Y;
unicode = 01B3;
},
{
glyphname = Yloop;
lastChange = "2024-07-06 18:41:23 +0000";
layers = (
{
layerId = "4A7900B8-4B55-405E-9DE7-28127A08AA09";
paths = (
{
closed = 1;
nodes = (
"298 1490 LINE SMOOTH",
"206 1490 OFFCURVE",
"171 1432 OFFCURVE",
"214 1350 CURVE SMOOTH",
"573 673 LINE",
"527.667 692.333 OFFCURVE",
"479.333 702 OFFCURVE",
"428 702 CURVE SMOOTH",
"360.667 702 OFFCURVE",
"299.5 685.667 OFFCURVE",
"244.5 653 CURVE SMOOTH",
"189.5 620.333 OFFCURVE",
"145.833 576.5 OFFCURVE",
"113.5 521.5 CURVE SMOOTH",
"81.167 466.5 OFFCURVE",
"65 406.333 OFFCURVE",
"65 341 CURVE SMOOTH",
"65 273.667 OFFCURVE",
"81.333 212.833 OFFCURVE",
"114 158.5 CURVE SMOOTH",
"146.667 104.167 OFFCURVE",
"190.333 60.833 OFFCURVE",
"245 28.5 CURVE SMOOTH",
"299.667 -3.833 OFFCURVE",
"360.667 -20 OFFCURVE",
"428 -20 CURVE SMOOTH",
"506.667 -20 OFFCURVE",
"577 2.5 OFFCURVE",
"639 47.5 CURVE SMOOTH",
"701 92.5 OFFCURVE",
"744.667 150 OFFCURVE",
"770 220 CURVE",
"1327 1351 LINE SMOOTH",
"1367 1433 OFFCURVE",
"1332 1490 OFFCURVE",
"1241 1490 CURVE SMOOTH",
"1230 1490 LINE SMOOTH",
"1164 1490 OFFCURVE",
"1120 1462 OFFCURVE",
"1092 1402 CURVE SMOOTH",
"781 728 LINE",
"446 1404 LINE SMOOTH",
"417 1463 OFFCURVE",
"373 1490 OFFCURVE",
"307 1490 CURVE SMOOTH"
);
},
{
closed = 1;
nodes = (
"384.667 183.667 OFFCURVE",
"348.333 197.333 OFFCURVE",
"319 224 CURVE SMOOTH",
"289.667 250.667 OFFCURVE",
"275 290 OFFCURVE",
"275 342 CURVE SMOOTH",
"275 394 OFFCURVE",
"289.667 433.333 OFFCURVE",
"319 460 CURVE SMOOTH",
"348.333 486.667 OFFCURVE",
"384.667 500 OFFCURVE",
"428 500 CURVE SMOOTH",
"469.333 500 OFFCURVE",
"504.667 486.667 OFFCURVE",
"534 460 CURVE SMOOTH",
"563.333 433.333 OFFCURVE",
"578 394 OFFCURVE",
"578 342 CURVE SMOOTH",
"578 290 OFFCURVE",
"563.333 250.667 OFFCURVE",
"534 224 CURVE SMOOTH",
"504.667 197.333 OFFCURVE",
"469.333 183.667 OFFCURVE",
"428 183 CURVE SMOOTH"
);
}
);
userData = {
assembly = "NPUSHB[ ]	/* 57 values pushed */\0121 1 2 0 17 1 5 2 2 76 0 2 0 5 4 2 5 106 6 3 2 0 0 103 77 7 1 4 4 1 97 0 1 1 110 1 78 20 19 0 0 26 24 19 30 20 30 0 18 0 18 38 35 18 8 12 25 \012CALL[ ]	/* CallFunction */";
};
width = 1443;
}
);
note = uni1EFE;
unicode = 1EFE;
},
{
glyphname = Yr;
lastChange = "2024-07-06 18:41:23 +0000";
layers = (
{
layerId = "4A7900B8-4B55-405E-9DE7-28127A08AA09";
paths = (
{
closed = 1;
nodes = (
"1367 -357 LINE",
"1367 -352 LINE SMOOTH",
"1367 -348 OFFCURVE",
"1357 -327 OFFCURVE",
"1330 -278 CURVE SMOOTH",
"829 651 LINE",
"917.667 685.667 OFFCURVE",
"987 736.5 OFFCURVE",
"1037 803.5 CURVE SMOOTH",
"1087 870.5 OFFCURVE",
"1112 953 OFFCURVE",
"1112 1051 CURVE SMOOTH",
"1112 1193.667 OFFCURVE",
"1066.5 1302.5 OFFCURVE",
"975.5 1377.5 CURVE SMOOTH",
"884.5 1452.5 OFFCURVE",
"755 1490 OFFCURVE",
"587 1490 CURVE SMOOTH",
"320 1490 LINE",
"320 1541 LINE SMOOTH",
"320 1574 OFFCURVE",
"278 1592 OFFCURVE",
"202 1592 CURVE SMOOTH",
"196 1592 LINE SMOOTH",
"120 1592 OFFCURVE",
"78 1550 OFFCURVE",
"78 1474 CURVE SMOOTH",
"78 118 LINE SMOOTH",
"78 42 OFFCURVE",
"120 0 OFFCURVE",
"196 0 CURVE SMOOTH",
"203 0 LINE SMOOTH",
"279 0 OFFCURVE",
"321 42 OFFCURVE",
"321 118 CURVE SMOOTH",
"321 603 LINE",
"601 603 LINE",
"1065 -273 LINE SMOOTH",
"1096 -331 OFFCURVE",
"1140 -357 OFFCURVE",
"1205 -357 CURVE SMOOTH"
);
},
{
closed = 1;
nodes = (
"321 794 LINE",
"321 1296 LINE",
"587 1296 LINE SMOOTH",
"688.333 1296 OFFCURVE",
"761.333 1273 OFFCURVE",
"806 1227 CURVE SMOOTH",
"850.667 1181 OFFCURVE",
"873 1119.667 OFFCURVE",
"873 1043 CURVE SMOOTH",
"873 971.667 OFFCURVE",
"849.167 912.333 OFFCURVE",
"801.5 865 CURVE SMOOTH",
"753.833 817.667 OFFCURVE",
"682.333 794 OFFCURVE",
"587 794 CURVE SMOOTH"
);
}
);
userData = {
assembly = "NPUSHB[ ]	/* 58 values pushed */\01214 1 0 5 1 76 7 1 4 1 4 134 0 5 0 0 1 5 0 103 0 6 6 3 95 0 3 3 103 77 0 2 2 1 95 0 1 1 104 1 78 0 0 25 23 19 17 0 16 0 15 33 17 17 17 8 12 26 \012CALL[ ]	/* CallFunction */";
};
width = 1445;
}
);
note = YR;
unicode = 01A6;
},
{
glyphname = Ystroke;
lastChange = "2024-07-06 18:41:23 +0000";
layers = (
{
layerId = "4A7900B8-4B55-405E-9DE7-28127A08AA09";
paths = (
{
closed = 1;
nodes = (
"1365 1160 OFFCURVE",
"1323 1183 OFFCURVE",
"1247 1183 CURVE SMOOTH",
"1144 1183 LINE",
"1245 1348 LINE SMOOTH",
"1294 1429 OFFCURVE",
"1262 1490 OFFCURVE",
"1170 1490 CURVE SMOOTH",
"1106 1490 OFFCURVE",
"1062 1465 OFFCURVE",
"1029 1410 CURVE SMOOTH",
"894 1183 LINE",
"458 1183 LINE",
"321 1410 LINE SMOOTH",
"288 1465 OFFCURVE",
"244 1490 OFFCURVE",
"180 1490 CURVE SMOOTH",
"145 1490 LINE SMOOTH",
"72 1490 OFFCURVE",
"53 1429 OFFCURVE",
"103 1348 CURVE SMOOTH",
"205 1183 LINE",
"93 1183 LINE SMOOTH",
"20 1183 OFFCURVE",
"-20 1160 OFFCURVE",
"-20 1117 CURVE SMOOTH",
"-20 1074 OFFCURVE",
"22 1050 OFFCURVE",
"98 1050 CURVE SMOOTH",
"286 1050 LINE",
"566 595 LINE",
"566 118 LINE SMOOTH",
"566 42 OFFCURVE",
"605 0 OFFCURVE",
"676 0 CURVE SMOOTH",
"747 0 OFFCURVE",
"786 42 OFFCURVE",
"786 118 CURVE SMOOTH",
"786 595 LINE",
"1063 1050 LINE",
"1247 1050 LINE SMOOTH",
"1323 1050 OFFCURVE",
"1365 1074 OFFCURVE",
"1365 1117 CURVE SMOOTH"
);
},
{
closed = 1;
nodes = (
"815 1050 LINE",
"797 1020 LINE",
"736 916 LINE SMOOTH",
"716 881.333 OFFCURVE",
"696.333 846.667 OFFCURVE",
"677 812 CURVE",
"618 916 LINE SMOOTH",
"598 950.667 OFFCURVE",
"577.333 985.333 OFFCURVE",
"556 1020 CURVE SMOOTH",
"538 1050 LINE"
);
}
);
userData = {
assembly = "NPUSHB[ ]	/* 51 values pushed */\01223 6 3 3 1 0 1 76 9 7 5 3 3 8 2 2 0 1 3 0 104 6 1 4 4 103 77 0 1 1 104 1 78 0 0 19 18 0 17 0 17 17 17 17 17 18 18 17 10 12 29 \012CALL[ ]	/* CallFunction */";
};
width = 1345;
}
);
leftKerningGroup = Y;
note = uni024E;
rightKerningGroup = Y;
unicode = 024E;
},
{
glyphname = Z;
lastChange = "2024-07-06 18:41:23 +0000";
layers = (
{
layerId = "4A7900B8-4B55-405E-9DE7-28127A08AA09";
paths = (
{
closed = 1;
nodes = (
"57 35 OFFCURVE",
"99 0 OFFCURVE",
"175 0 CURVE SMOOTH",
"1096 0 LINE SMOOTH",
"1172 0 OFFCURVE",
"1214 35 OFFCURVE",
"1214 98 CURVE SMOOTH",
"1214 161 OFFCURVE",
"1172 195 OFFCURVE",
"1096 195 CURVE SMOOTH",
"323 195 LINE",
"350.333 227 OFFCURVE",
"377.333 259.333 OFFCURVE",
"404 292 CURVE SMOOTH",
"430.667 324.667 OFFCURVE",
"456.667 357 OFFCURVE",
"482 389 CURVE SMOOTH",
"1155 1245 LINE SMOOTH",
"1191 1291 OFFCURVE",
"1206 1333 OFFCURVE",
"1206 1391 CURVE SMOOTH",
"1206 1400 LINE SMOOTH",
"1206 1458 OFFCURVE",
"1164 1490 OFFCURVE",
"1088 1490 CURVE SMOOTH",
"203 1490 LINE SMOOTH",
"127 1490 OFFCURVE",
"85 1456 OFFCURVE",
"85 1393 CURVE SMOOTH",
"85 1330 OFFCURVE",
"127 1295 OFFCURVE",
"203 1295 CURVE SMOOTH",
"941 1295 LINE",
"916.333 1265.667 OFFCURVE",
"891.833 1236.167 OFFCURVE",
"867.5 1206.5 CURVE SMOOTH",
"796 1118 LINE",
"108 245 LINE SMOOTH",
"72 199 OFFCURVE",
"57 157 OFFCURVE",
"57 99 CURVE SMOOTH"
);
}
);
userData = {
assembly = "NPUSHB[ ]	/* 44 values pushed */\0129 1 0 1 1 1 3 2 2 76 0 0 0 1 95 0 1 1 103 77 0 2 2 3 95 4 1 3 3 104 3 78 0 0 0 15 0 15 21 17 21 5 12 25 \012CALL[ ]	/* CallFunction */";
};
width = 1270;
}
);
leftKerningGroup = Z;
note = Z;
rightKerningGroup = Z;
unicode = 005A;
},
{
glyphname = Zhook;
lastChange = "2024-07-06 18:41:23 +0000";
layers = (
{
layerId = "4A7900B8-4B55-405E-9DE7-28127A08AA09";
paths = (
{
closed = 1;
nodes = (
"776 -385 OFFCURVE",
"818 -418 OFFCURVE",
"894 -418 CURVE SMOOTH",
"905 -418 LINE SMOOTH",
"1111 -418 OFFCURVE",
"1214 -327.333 OFFCURVE",
"1214 -146 CURVE SMOOTH",
"1214 77 LINE SMOOTH",
"1214 153 OFFCURVE",
"1172 195 OFFCURVE",
"1096 195 CURVE SMOOTH",
"323 195 LINE",
"350.333 227 OFFCURVE",
"377.333 259.333 OFFCURVE",
"404 292 CURVE SMOOTH",
"430.667 324.667 OFFCURVE",
"456.667 357 OFFCURVE",
"482 389 CURVE SMOOTH",
"1155 1245 LINE SMOOTH",
"1191 1291 OFFCURVE",
"1206 1333 OFFCURVE",
"1206 1391 CURVE SMOOTH",
"1206 1400 LINE SMOOTH",
"1206 1458 OFFCURVE",
"1164 1490 OFFCURVE",
"1088 1490 CURVE SMOOTH",
"203 1490 LINE SMOOTH",
"127 1490 OFFCURVE",
"85 1456 OFFCURVE",
"85 1393 CURVE SMOOTH",
"85 1330 OFFCURVE",
"127 1295 OFFCURVE",
"203 1295 CURVE SMOOTH",
"941 1295 LINE",
"916.333 1265.667 OFFCURVE",
"891.833 1236.167 OFFCURVE",
"867.5 1206.5 CURVE SMOOTH",
"796 1118 LINE",
"108 245 LINE SMOOTH",
"72 199 OFFCURVE",
"57 157 OFFCURVE",
"57 99 CURVE SMOOTH",
"57 91 LINE SMOOTH",
"57 33 OFFCURVE",
"99 0 OFFCURVE",
"175 0 CURVE SMOOTH",
"991 0 LINE",
"991 -136 LINE SMOOTH",
"991 -170 OFFCURVE",
"983 -194.5 OFFCURVE",
"967 -209.5 CURVE SMOOTH",
"951 -224.5 OFFCURVE",
"923 -232 OFFCURVE",
"883 -232 CURVE SMOOTH",
"813 -232 OFFCURVE",
"776 -265 OFFCURVE",
"776 -325 CURVE SMOOTH"
);
}
);
userData = {
assembly = "NPUSHB[ ]	/* 56 values pushed */\01216 1 2 3 8 1 1 4 2 76 0 2 2 3 95 0 3 3 103 77 0 4 4 1 95 0 1 1 104 77 0 0 0 5 97 6 1 5 5 108 5 78 0 0 0 24 0 23 21 17 21 19 33 7 12 27 \012CALL[ ]	/* CallFunction */";
};
width = 1270;
}
);
leftKerningGroup = Z;
note = uni0224;
rightKerningGroup = Z;
unicode = 0224;
},
{
glyphname = Zswashtail;
lastChange = "2024-07-06 18:41:23 +0000";
layers = (
{
layerId = "4A7900B8-4B55-405E-9DE7-28127A08AA09";
paths = (
{
closed = 1;
nodes = (
"1030 -418 LINE SMOOTH",
"1106 -418 OFFCURVE",
"1148 -385 OFFCURVE",
"1148 -325 CURVE SMOOTH",
"1148 -265 OFFCURVE",
"1106 -232 OFFCURVE",
"1030 -232 CURVE SMOOTH",
"1027 -232 LINE SMOOTH",
"981.667 -232 OFFCURVE",
"940.333 -218.333 OFFCURVE",
"903 -191 CURVE SMOOTH",
"865.667 -163.667 OFFCURVE",
"828.833 -129.5 OFFCURVE",
"792.5 -88.5 CURVE SMOOTH",
"756.167 -47.5 OFFCURVE",
"716.667 -6.5 OFFCURVE",
"674 34.5 CURVE SMOOTH",
"631.333 75.5 OFFCURVE",
"582 110.333 OFFCURVE",
"526 139 CURVE SMOOTH",
"470 167.667 OFFCURVE",
"403.667 183 OFFCURVE",
"327 185 CURVE",
"1075 1260 LINE SMOOTH",
"1108 1307 OFFCURVE",
"1121 1348 OFFCURVE",
"1121 1406 CURVE SMOOTH",
"1121 1408 LINE SMOOTH",
"1121 1461 OFFCURVE",
"1079 1490 OFFCURVE",
"1003 1490 CURVE SMOOTH",
"175 1490 LINE SMOOTH",
"99 1490 OFFCURVE",
"57 1456 OFFCURVE",
"57 1393 CURVE SMOOTH",
"57 1330 OFFCURVE",
"99 1295 OFFCURVE",
"175 1295 CURVE SMOOTH",
"852 1295 LINE",
"109 229 LINE SMOOTH",
"76 182 OFFCURVE",
"63 140 OFFCURVE",
"63 82 CURVE SMOOTH",
"63 82 LINE SMOOTH",
"63 29 OFFCURVE",
"105 0 OFFCURVE",
"181 0 CURVE SMOOTH",
"282 0 LINE SMOOTH",
"349.333 0 OFFCURVE",
"407.5 -14 OFFCURVE",
"456.5 -42 CURVE SMOOTH",
"505.5 -70 OFFCURVE",
"550.167 -104.833 OFFCURVE",
"590.5 -146.5 CURVE SMOOTH",
"711.5 -271.5 LINE SMOOTH",
"751.833 -313.167 OFFCURVE",
"796.167 -348 OFFCURVE",
"844.5 -376 CURVE SMOOTH",
"892.833 -404 OFFCURVE",
"950 -418 OFFCURVE",
"1016 -418 CURVE SMOOTH"
);
}
);
userData = {
assembly = "NPUSHB[ ]	/* 61 values pushed */\01213 1 2 3 8 1 1 4 2 76 0 2 2 3 95 0 3 3 103 77 0 4 4 1 95 0 1 1 104 77 0 5 5 0 97 6 1 0 0 108 0 78 1 0 21 19 15 14 12 11 10 9 7 5 0 22 1 22 7 12 22 \012CALL[ ]	/* CallFunction */";
};
width = 1205;
}
);
leftKerningGroup = Z;
note = uni2C7F;
rightKerningGroup = Z;
unicode = 2C7F;
},
{
glyphname = G.1;
lastChange = "2024-07-06 18:41:23 +0000";
layers = (
{
layerId = "4A7900B8-4B55-405E-9DE7-28127A08AA09";
paths = (
{
closed = 1;
nodes = (
"867 -24 OFFCURVE",
"959.333 -3.167 OFFCURVE",
"1038 38.5 CURVE SMOOTH",
"1116.667 80.167 OFFCURVE",
"1179 134.667 OFFCURVE",
"1225 202 CURVE",
"1237 101 LINE SMOOTH",
"1245 35 OFFCURVE",
"1277 0 OFFCURVE",
"1331 0 CURVE SMOOTH",
"1384 0 OFFCURVE",
"1412 42 OFFCURVE",
"1412 118 CURVE SMOOTH",
"1412 643 LINE SMOOTH",
"1412 719 OFFCURVE",
"1370 761 OFFCURVE",
"1294 761 CURVE SMOOTH",
"941 761 LINE SMOOTH",
"865 761 OFFCURVE",
"823 728 OFFCURVE",
"823 669 CURVE SMOOTH",
"823 609 OFFCURVE",
"865 576 OFFCURVE",
"941 576 CURVE SMOOTH",
"1195 576 LINE",
"1192.333 494 OFFCURVE",
"1171.833 423.333 OFFCURVE",
"1133.5 364 CURVE SMOOTH",
"1095.167 304.667 OFFCURVE",
"1044.667 259 OFFCURVE",
"982 227 CURVE SMOOTH",
"919.333 195 OFFCURVE",
"850 179 OFFCURVE",
"774 179 CURVE SMOOTH",
"679.333 179 OFFCURVE",
"596.833 202.5 OFFCURVE",
"526.5 249.5 CURVE SMOOTH",
"456.167 296.5 OFFCURVE",
"401.5 362.5 OFFCURVE",
"362.5 447.5 CURVE SMOOTH",
"323.5 532.5 OFFCURVE",
"304 631.333 OFFCURVE",
"304 744 CURVE SMOOTH",
"304 857.333 OFFCURVE",
"323.5 956.5 OFFCURVE",
"362.5 1041.5 CURVE SMOOTH",
"401.5 1126.5 OFFCURVE",
"456.167 1192.667 OFFCURVE",
"526.5 1240 CURVE SMOOTH",
"596.833 1287.333 OFFCURVE",
"679 1311 OFFCURVE",
"773 1311 CURVE SMOOTH",
"875.667 1311 OFFCURVE",
"963.333 1282.5 OFFCURVE",
"1036 1225.5 CURVE SMOOTH",
"1082 1190 OFFCURVE",
"1117 1147 OFFCURVE",
"1142 1097 CURVE SMOOTH",
"1173 1034 OFFCURVE",
"1209 1002 OFFCURVE",
"1277 1002 CURVE SMOOTH",
"1289 1002 LINE SMOOTH",
"1358 1002 OFFCURVE",
"1397 1054 OFFCURVE",
"1366 1134 CURVE SMOOTH",
"1347 1182 OFFCURVE",
"1321 1228 OFFCURVE",
"1289.5 1269 CURVE SMOOTH",
"1230.5 1345.667 OFFCURVE",
"1156.167 1405.667 OFFCURVE",
"1066.5 1449 CURVE SMOOTH",
"976.833 1492.333 OFFCURVE",
"878 1514 OFFCURVE",
"770 1514 CURVE SMOOTH",
"636.667 1514 OFFCURVE",
"518.167 1481.667 OFFCURVE",
"414.5 1417 CURVE SMOOTH",
"310.833 1352.333 OFFCURVE",
"229.333 1262.333 OFFCURVE",
"170 1147 CURVE SMOOTH",
"110.667 1031.667 OFFCURVE",
"81 897.333 OFFCURVE",
"81 744 CURVE SMOOTH",
"81 593.333 OFFCURVE",
"110.5 460.333 OFFCURVE",
"169.5 345 CURVE SMOOTH",
"228.5 229.667 OFFCURVE",
"309.167 139.333 OFFCURVE",
"411.5 74 CURVE SMOOTH",
"513.833 8.667 OFFCURVE",
"630.333 -24 OFFCURVE",
"761 -24 CURVE SMOOTH"
);
}
);
userData = {
assembly = "PUSHB[ ]	/* 6 values pushed */\01234 1 4 5 1 76 \012MPPEM[ ]	/* MeasurePixelPerEm */\012PUSHB[ ]	/* 1 value pushed */\01222 \012LT[ ]	/* LessThan */\012IF[ ]	/* If */\012NPUSHB[ ]	/* 39 values pushed */\0120 2 3 6 3 2 6 128 0 6 0 5 4 6 5 103 0 3 3 1 97 0 1 1 109 77 0 4 4 0 97 7 8 2 0 0 110 0 78 \012ELSE[ ]	/* Else */\012MPPEM[ ]	/* MeasurePixelPerEm */\012PUSHB[ ]	/* 1 value pushed */\01250 \012LT[ ]	/* LessThan */\012IF[ ]	/* If */\012NPUSHB[ ]	/* 43 values pushed */\0120 2 3 6 3 2 6 128 0 6 0 5 4 6 5 103 0 3 3 1 97 0 1 1 109 77 0 7 7 104 77 0 4 4 0 97 8 1 0 0 110 0 78 \012ELSE[ ]	/* Else */\012NPUSHB[ ]	/* 41 values pushed */\0120 2 3 6 3 2 6 128 0 1 0 3 2 1 3 105 0 6 0 5 4 6 5 103 0 7 7 104 77 0 4 4 0 97 8 1 0 0 110 0 78 \012EIF[ ]	/* EndIf */\012EIF[ ]	/* EndIf */\012NPUSHB[ ]	/* 23 values pushed */\0121 0 33 32 31 30 29 28 25 23 17 15 13 12 9 7 0 36 1 36 9 12 22 \012CALL[ ]	/* CallFunction */";
};
width = 1523;
}
);
leftKerningGroup = C;
note = G.1;
rightKerningGroup = G.1;
},
{
glyphname = Ghook.1;
lastChange = "2024-07-06 18:41:23 +0000";
layers = (
{
layerId = "4A7900B8-4B55-405E-9DE7-28127A08AA09";
paths = (
{
closed = 1;
nodes = (
"867 -24 OFFCURVE",
"959.333 -3.167 OFFCURVE",
"1038 38.5 CURVE SMOOTH",
"1116.667 80.167 OFFCURVE",
"1179 134.667 OFFCURVE",
"1225 202 CURVE",
"1237 101 LINE SMOOTH",
"1245 35 OFFCURVE",
"1277 0 OFFCURVE",
"1331 0 CURVE SMOOTH",
"1384 0 OFFCURVE",
"1412 42 OFFCURVE",
"1412 118 CURVE SMOOTH",
"1412 643 LINE SMOOTH",
"1412 719 OFFCURVE",
"1370 761 OFFCURVE",
"1294 761 CURVE SMOOTH",
"941 761 LINE SMOOTH",
"865 761 OFFCURVE",
"823 728 OFFCURVE",
"823 669 CURVE SMOOTH",
"823 609 OFFCURVE",
"865 576 OFFCURVE",
"941 576 CURVE SMOOTH",
"1195 576 LINE",
"1192.333 494 OFFCURVE",
"1171.833 423.333 OFFCURVE",
"1133.5 364 CURVE SMOOTH",
"1095.167 304.667 OFFCURVE",
"1044.667 259 OFFCURVE",
"982 227 CURVE SMOOTH",
"919.333 195 OFFCURVE",
"850 179 OFFCURVE",
"774 179 CURVE SMOOTH",
"679.333 179 OFFCURVE",
"596.833 202.5 OFFCURVE",
"526.5 249.5 CURVE SMOOTH",
"456.167 296.5 OFFCURVE",
"401.5 362.5 OFFCURVE",
"362.5 447.5 CURVE SMOOTH",
"323.5 532.5 OFFCURVE",
"304 631.333 OFFCURVE",
"304 744 CURVE SMOOTH",
"304 857.333 OFFCURVE",
"323.5 956.5 OFFCURVE",
"362.5 1041.5 CURVE SMOOTH",
"401.5 1126.5 OFFCURVE",
"456.167 1192.667 OFFCURVE",
"526.5 1240 CURVE SMOOTH",
"596.833 1287.333 OFFCURVE",
"679 1311 OFFCURVE",
"773 1311 CURVE SMOOTH",
"875.667 1311 OFFCURVE",
"963.333 1282.5 OFFCURVE",
"1036 1225.5 CURVE SMOOTH",
"1082 1190 OFFCURVE",
"1117 1147 OFFCURVE",
"1142 1097 CURVE SMOOTH",
"1173 1034 OFFCURVE",
"1209 1002 OFFCURVE",
"1277 1002 CURVE SMOOTH",
"1289 1002 LINE SMOOTH",
"1362 1002 OFFCURVE",
"1401 1044 OFFCURVE",
"1401 1120 CURVE SMOOTH",
"1401 1400 LINE SMOOTH",
"1401 1434.667 OFFCURVE",
"1409.833 1459.667 OFFCURVE",
"1427.5 1475 CURVE SMOOTH",
"1445.167 1490.333 OFFCURVE",
"1474 1498 OFFCURVE",
"1514 1498 CURVE SMOOTH",
"1583 1498 OFFCURVE",
"1620 1530 OFFCURVE",
"1620 1587 CURVE SMOOTH",
"1620 1644 OFFCURVE",
"1578 1676 OFFCURVE",
"1502 1676 CURVE SMOOTH",
"1499 1676 LINE SMOOTH",
"1295.667 1676 OFFCURVE",
"1194 1585.333 OFFCURVE",
"1194 1404 CURVE SMOOTH",
"1194 1368 LINE",
"1138 1414 OFFCURVE",
"1073.833 1449.833 OFFCURVE",
"1001.5 1475.5 CURVE SMOOTH",
"929.167 1501.167 OFFCURVE",
"852 1514 OFFCURVE",
"770 1514 CURVE SMOOTH",
"636.667 1514 OFFCURVE",
"518.167 1481.667 OFFCURVE",
"414.5 1417 CURVE SMOOTH",
"310.833 1352.333 OFFCURVE",
"229.333 1262.333 OFFCURVE",
"170 1147 CURVE SMOOTH",
"110.667 1031.667 OFFCURVE",
"81 897.333 OFFCURVE",
"81 744 CURVE SMOOTH",
"81 593.333 OFFCURVE",
"110.5 460.333 OFFCURVE",
"169.5 345 CURVE SMOOTH",
"228.5 229.667 OFFCURVE",
"309.167 139.333 OFFCURVE",
"411.5 74 CURVE SMOOTH",
"513.833 8.667 OFFCURVE",
"630.333 -24 OFFCURVE",
"761 -24 CURVE SMOOTH"
);
}
);
userData = {
assembly = "NPUSHB[ ]	/* 10 values pushed */\01211 1 5 3 43 1 6 7 2 76 \012MPPEM[ ]	/* MeasurePixelPerEm */\012PUSHB[ ]	/* 1 value pushed */\01222 \012LT[ ]	/* LessThan */\012IF[ ]	/* If */\012NPUSHB[ ]	/* 47 values pushed */\0120 4 5 8 5 4 8 128 0 2 0 3 5 2 3 105 0 8 0 7 6 8 7 103 0 5 5 1 97 0 1 1 109 77 0 6 6 0 97 9 10 2 0 0 110 0 78 \012ELSE[ ]	/* Else */\012MPPEM[ ]	/* MeasurePixelPerEm */\012PUSHB[ ]	/* 1 value pushed */\01250 \012LT[ ]	/* LessThan */\012IF[ ]	/* If */\012NPUSHB[ ]	/* 51 values pushed */\0120 4 5 8 5 4 8 128 0 2 0 3 5 2 3 105 0 8 0 7 6 8 7 103 0 5 5 1 97 0 1 1 109 77 0 9 9 104 77 0 6 6 0 97 10 1 0 0 110 0 78 \012ELSE[ ]	/* Else */\012NPUSHB[ ]	/* 49 values pushed */\0120 4 5 8 5 4 8 128 0 2 0 3 5 2 3 105 0 1 0 5 4 1 5 105 0 8 0 7 6 8 7 103 0 9 9 104 77 0 6 6 0 97 10 1 0 0 110 0 78 \012EIF[ ]	/* EndIf */\012EIF[ ]	/* EndIf */\012NPUSHB[ ]	/* 27 values pushed */\0121 0 42 41 40 39 38 37 34 32 26 24 22 21 18 16 15 13 9 7 0 45 1 45 11 12 22 \012CALL[ ]	/* CallFunction */";
};
width = 1523;
}
);
note = uni0193.1;
},
{
glyphname = I.1;
lastChange = "2024-07-06 18:41:23 +0000";
layers = (
{
layerId = "4A7900B8-4B55-405E-9DE7-28127A08AA09";
paths = (
{
closed = 1;
nodes = (
"75 33 OFFCURVE",
"117 0 OFFCURVE",
"193 0 CURVE SMOOTH",
"537 0 LINE SMOOTH",
"613 0 OFFCURVE",
"655 34 OFFCURVE",
"655 95 CURVE SMOOTH",
"655 156 OFFCURVE",
"613 190 OFFCURVE",
"537 190 CURVE SMOOTH",
"476 190 LINE",
"476 1300 LINE",
"566 1300 LINE SMOOTH",
"624 1300 OFFCURVE",
"655 1334 OFFCURVE",
"655 1395 CURVE SMOOTH",
"655 1456 OFFCURVE",
"613 1490 OFFCURVE",
"537 1490 CURVE SMOOTH",
"193 1490 LINE SMOOTH",
"117 1490 OFFCURVE",
"75 1456 OFFCURVE",
"75 1395 CURVE SMOOTH",
"75 1334 OFFCURVE",
"117 1300 OFFCURVE",
"193 1300 CURVE SMOOTH",
"254 1300 LINE",
"254 190 LINE",
"165 190 LINE SMOOTH",
"107 190 OFFCURVE",
"75 156 OFFCURVE",
"75 95 CURVE SMOOTH"
);
}
);
userData = {
assembly = "NPUSHB[ ]	/* 38 values pushed */\0123 1 1 1 2 95 0 2 2 103 77 4 1 0 0 5 95 6 1 5 5 104 5 78 0 0 0 11 0 11 17 17 17 17 17 7 12 27 \012CALL[ ]	/* CallFunction */";
};
width = 730;
}
);
leftKerningGroup = B;
note = I.1;
rightKerningGroup = Ereversed;
},
{
glyphname = Thook.base;
lastChange = "2024-07-06 18:41:23 +0000";
layers = (
{
layerId = "4A7900B8-4B55-405E-9DE7-28127A08AA09";
paths = (
{
closed = 1;
nodes = (
"442 1329 OFFCURVE",
"472 1295 OFFCURVE",
"527 1295 CURVE",
"527 118 LINE SMOOTH",
"527 42 OFFCURVE",
"567 0 OFFCURVE",
"639 0 CURVE SMOOTH",
"711 0 OFFCURVE",
"750 42 OFFCURVE",
"750 118 CURVE SMOOTH",
"750 1295 LINE",
"1096 1295 LINE SMOOTH",
"1172 1295 OFFCURVE",
"1214 1330 OFFCURVE",
"1214 1393 CURVE SMOOTH",
"1214 1456 OFFCURVE",
"1172 1490 OFFCURVE",
"1096 1490 CURVE SMOOTH",
"560 1490 LINE SMOOTH",
"484 1490 OFFCURVE",
"442 1456 OFFCURVE",
"442 1393 CURVE SMOOTH"
);
}
);
userData = {
assembly = "NPUSHB[ ]	/* 35 values pushed */\0120 2 1 2 134 0 0 1 1 0 87 0 0 0 1 95 4 3 2 1 0 1 79 0 0 0 7 0 7 17 17 17 5 6 25 \012CALL[ ]	/* CallFunction */";
};
width = 1262;
}
);
note = uni01AC.base;
rightKerningGroup = "Enghe-cy";
},
{
glyphname = a;
lastChange = "2024-07-06 18:41:23 +0000";
layers = (
{
layerId = "4A7900B8-4B55-405E-9DE7-28127A08AA09";
paths = (
{
closed = 1;
nodes = (
"531.667 -17 OFFCURVE",
"600.833 0.167 OFFCURVE",
"648.5 34.5 CURVE SMOOTH",
"696.167 68.833 OFFCURVE",
"731 107.333 OFFCURVE",
"753 150 CURVE",
"757 150 LINE",
"757 75 LINE SMOOTH",
"757 27 OFFCURVE",
"794 0 OFFCURVE",
"861 0 CURVE SMOOTH",
"928 0 OFFCURVE",
"965 42 OFFCURVE",
"965 118 CURVE SMOOTH",
"965 724 LINE SMOOTH",
"965 831.333 OFFCURVE",
"927.667 917 OFFCURVE",
"853 981 CURVE SMOOTH",
"778.333 1045 OFFCURVE",
"676 1077 OFFCURVE",
"546 1077 CURVE SMOOTH",
"414 1077 OFFCURVE",
"308 1045 OFFCURVE",
"228 981 CURVE SMOOTH",
"185 947 OFFCURVE",
"153 907 OFFCURVE",
"132 863 CURVE SMOOTH",
"96 786 OFFCURVE",
"142 734 OFFCURVE",
"210 734 CURVE SMOOTH",
"277 734 OFFCURVE",
"301 769 OFFCURVE",
"344 823 CURVE SMOOTH",
"353 835 OFFCURVE",
"365 845 OFFCURVE",
"378 855.5 CURVE SMOOTH",
"420.667 887.833 OFFCURVE",
"475.667 904 OFFCURVE",
"543 904 CURVE SMOOTH",
"610.333 904 OFFCURVE",
"662.667 887.5 OFFCURVE",
"700 854.5 CURVE SMOOTH",
"737.333 821.5 OFFCURVE",
"756 779.333 OFFCURVE",
"756 728 CURVE SMOOTH",
"756 719 LINE SMOOTH",
"756 693 OFFCURVE",
"747.833 674.667 OFFCURVE",
"731.5 664 CURVE SMOOTH",
"715.167 653.333 OFFCURVE",
"687.667 645.333 OFFCURVE",
"649 640 CURVE SMOOTH",
"610.333 634.667 OFFCURVE",
"558 628 OFFCURVE",
"492 620 CURVE SMOOTH",
"420.667 611.333 OFFCURVE",
"353.167 597.667 OFFCURVE",
"289.5 579 CURVE SMOOTH",
"225.833 560.333 OFFCURVE",
"174.167 529.5 OFFCURVE",
"134.5 486.5 CURVE SMOOTH",
"94.833 443.5 OFFCURVE",
"75 382 OFFCURVE",
"75 302 CURVE SMOOTH",
"75 196.667 OFFCURVE",
"109.667 117.167 OFFCURVE",
"179 63.5 CURVE SMOOTH",
"248.333 9.833 OFFCURVE",
"335.667 -17 OFFCURVE",
"441 -17 CURVE SMOOTH"
);
},
{
closed = 1;
nodes = (
"422.667 153 OFFCURVE",
"374.167 165.833 OFFCURVE",
"338.5 191.5 CURVE SMOOTH",
"302.833 217.167 OFFCURVE",
"285 252.667 OFFCURVE",
"285 298 CURVE SMOOTH",
"285 351.333 OFFCURVE",
"307 390 OFFCURVE",
"351 414 CURVE SMOOTH",
"395 438 OFFCURVE",
"446 454.333 OFFCURVE",
"504 463 CURVE SMOOTH",
"560 471 OFFCURVE",
"612.667 479.5 OFFCURVE",
"662 488.5 CURVE SMOOTH",
"711.333 497.5 OFFCURVE",
"743 507.667 OFFCURVE",
"757 519 CURVE",
"757 395 LINE SMOOTH",
"757 330.333 OFFCURVE",
"734.833 273.833 OFFCURVE",
"690.5 225.5 CURVE SMOOTH",
"646.167 177.167 OFFCURVE",
"577.333 153 OFFCURVE",
"484 153 CURVE SMOOTH"
);
}
);
userData = {
assembly = "MPPEM[ ]	/* MeasurePixelPerEm */\012PUSHB[ ]	/* 1 value pushed */\01230 \012LT[ ]	/* LessThan */\012IF[ ]	/* If */\012NPUSHB[ ]	/* 10 values pushed */\01236 1 5 2 28 1 0 5 2 76 \012ELSE[ ]	/* Else */\012NPUSHB[ ]	/* 10 values pushed */\01236 1 5 2 28 1 4 5 2 76 \012EIF[ ]	/* EndIf */\012MPPEM[ ]	/* MeasurePixelPerEm */\012PUSHB[ ]	/* 1 value pushed */\01230 \012LT[ ]	/* LessThan */\012IF[ ]	/* If */\012NPUSHB[ ]	/* 32 values pushed */\0120 2 1 5 1 2 5 128 0 1 1 3 97 0 3 3 112 77 7 1 5 5 0 97 4 6 2 0 0 110 0 78 \012ELSE[ ]	/* Else */\012NPUSHB[ ]	/* 36 values pushed */\0120 2 1 5 1 2 5 128 0 1 1 3 97 0 3 3 112 77 0 4 4 104 77 7 1 5 5 0 97 6 1 0 0 110 0 78 \012EIF[ ]	/* EndIf */\012NPUSHB[ ]	/* 23 values pushed */\01233 32 1 0 32 44 33 44 27 26 23 21 19 18 16 14 0 31 1 31 8 12 22 \012CALL[ ]	/* CallFunction */";
};
width = 1084;
}
);
leftKerningGroup = a;
note = a;
rightKerningGroup = a;
unicode = 0061;
},
{
glyphname = "alphaturned-latin";
lastChange = "2024-07-06 18:41:23 +0000";
layers = (
{
layerId = "4A7900B8-4B55-405E-9DE7-28127A08AA09";
paths = (
{
closed = 1;
nodes = (
"747.333 -21 OFFCURVE",
"827.333 2.167 OFFCURVE",
"896 48.5 CURVE SMOOTH",
"964.667 94.833 OFFCURVE",
"1018 159.167 OFFCURVE",
"1056 241.5 CURVE SMOOTH",
"1094 323.833 OFFCURVE",
"1113 419.333 OFFCURVE",
"1113 528 CURVE SMOOTH",
"1113 636.667 OFFCURVE",
"1094 732.167 OFFCURVE",
"1056 814.5 CURVE SMOOTH",
"1018 896.833 OFFCURVE",
"964.667 961.167 OFFCURVE",
"896 1007.5 CURVE SMOOTH",
"827.333 1053.833 OFFCURVE",
"747.333 1077 OFFCURVE",
"656 1077 CURVE SMOOTH",
"588 1077 OFFCURVE",
"524.833 1062.667 OFFCURVE",
"466.5 1034 CURVE SMOOTH",
"408.167 1005.333 OFFCURVE",
"362.333 962 OFFCURVE",
"329 904 CURVE",
"327 904 LINE",
"327 980 LINE SMOOTH",
"327 1029 OFFCURVE",
"290 1056 OFFCURVE",
"223 1056 CURVE SMOOTH",
"156 1056 OFFCURVE",
"119 1014 OFFCURVE",
"119 938 CURVE SMOOTH",
"119 118 LINE SMOOTH",
"119 42 OFFCURVE",
"156 0 OFFCURVE",
"223 0 CURVE SMOOTH",
"290 0 OFFCURVE",
"327 42 OFFCURVE",
"327 118 CURVE SMOOTH",
"327 159 LINE",
"329 159 LINE",
"364.333 99 OFFCURVE",
"410.333 54 OFFCURVE",
"467 24 CURVE SMOOTH",
"523.667 -6 OFFCURVE",
"586.667 -21 OFFCURVE",
"656 -21 CURVE SMOOTH"
);
},
{
closed = 1;
nodes = (
"523 161 OFFCURVE",
"451.167 194.5 OFFCURVE",
"397.5 261.5 CURVE SMOOTH",
"343.833 328.5 OFFCURVE",
"317 417.333 OFFCURVE",
"317 528 CURVE SMOOTH",
"317 639.333 OFFCURVE",
"343.833 728.5 OFFCURVE",
"397.5 795.5 CURVE SMOOTH",
"451.167 862.5 OFFCURVE",
"523 896 OFFCURVE",
"613 896 CURVE SMOOTH",
"697.667 896 OFFCURVE",
"766.5 864.5 OFFCURVE",
"819.5 801.5 CURVE SMOOTH",
"872.5 738.5 OFFCURVE",
"899 647.333 OFFCURVE",
"899 528 CURVE SMOOTH",
"899 408.667 OFFCURVE",
"872.5 317.667 OFFCURVE",
"819.5 255 CURVE SMOOTH",
"766.5 192.333 OFFCURVE",
"697.667 161 OFFCURVE",
"613 161 CURVE SMOOTH"
);
}
);
userData = {
assembly = "MPPEM[ ]	/* MeasurePixelPerEm */\012PUSHB[ ]	/* 1 value pushed */\01224 \012LT[ ]	/* LessThan */\012IF[ ]	/* If */\012NPUSHB[ ]	/* 10 values pushed */\0129 1 5 2 3 1 0 4 2 76 \012ELSE[ ]	/* Else */\012NPUSHB[ ]	/* 10 values pushed */\0129 1 5 2 3 1 1 4 2 76 \012EIF[ ]	/* EndIf */\012MPPEM[ ]	/* MeasurePixelPerEm */\012PUSHB[ ]	/* 1 value pushed */\01224 \012LT[ ]	/* LessThan */\012IF[ ]	/* If */\012NPUSHB[ ]	/* 25 values pushed */\0120 5 5 2 97 3 1 2 2 106 77 7 1 4 4 0 97 1 6 2 0 0 110 0 78 \012ELSE[ ]	/* Else */\012NPUSHB[ ]	/* 33 values pushed */\0120 2 2 106 77 0 5 5 3 97 0 3 3 112 77 0 1 1 104 77 7 1 4 4 0 97 6 1 0 0 110 0 78 \012EIF[ ]	/* EndIf */\012NPUSHB[ ]	/* 23 values pushed */\01222 21 1 0 28 26 21 32 22 32 14 12 8 7 6 5 0 20 1 20 8 12 22 \012CALL[ ]	/* CallFunction */";
};
width = 1181;
}
);
note = ascriptturn;
unicode = 0252;
},
{
glyphname = aturned;
lastChange = "2024-07-06 18:41:23 +0000";
layers = (
{
layerId = "4A7900B8-4B55-405E-9DE7-28127A08AA09";
paths = (
{
closed = 1;
nodes = (
"552.333 1073 OFFCURVE",
"483.167 1055.833 OFFCURVE",
"435.5 1021.5 CURVE SMOOTH",
"387.833 987.167 OFFCURVE",
"353 948.667 OFFCURVE",
"331 906 CURVE",
"327 906 LINE",
"327 981 LINE SMOOTH",
"327 1029 OFFCURVE",
"290 1056 OFFCURVE",
"223 1056 CURVE SMOOTH",
"156 1056 OFFCURVE",
"119 1014 OFFCURVE",
"119 938 CURVE SMOOTH",
"119 332 LINE SMOOTH",
"119 224.667 OFFCURVE",
"156.333 139 OFFCURVE",
"231 75 CURVE SMOOTH",
"305.667 11 OFFCURVE",
"408 -21 OFFCURVE",
"538 -21 CURVE SMOOTH",
"670 -21 OFFCURVE",
"776 11 OFFCURVE",
"856 75 CURVE SMOOTH",
"899 109 OFFCURVE",
"931 148 OFFCURVE",
"952 193 CURVE SMOOTH",
"988 270 OFFCURVE",
"942 322 OFFCURVE",
"874 322 CURVE SMOOTH",
"807 322 OFFCURVE",
"783 287 OFFCURVE",
"740 233 CURVE SMOOTH",
"731 221 OFFCURVE",
"719 211 OFFCURVE",
"706 200.5 CURVE SMOOTH",
"663.333 168.167 OFFCURVE",
"608.333 152 OFFCURVE",
"541 152 CURVE SMOOTH",
"473.667 152 OFFCURVE",
"421.333 168.5 OFFCURVE",
"384 201.5 CURVE SMOOTH",
"346.667 234.5 OFFCURVE",
"328 276.667 OFFCURVE",
"328 328 CURVE SMOOTH",
"328 337 LINE SMOOTH",
"328 363 OFFCURVE",
"336.167 381.333 OFFCURVE",
"352.5 392 CURVE SMOOTH",
"368.833 402.667 OFFCURVE",
"396.333 410.667 OFFCURVE",
"435 416 CURVE SMOOTH",
"473.667 421.333 OFFCURVE",
"526 428 OFFCURVE",
"592 436 CURVE SMOOTH",
"663.333 444.667 OFFCURVE",
"730.833 458.333 OFFCURVE",
"794.5 477 CURVE SMOOTH",
"858.167 495.667 OFFCURVE",
"910 526.5 OFFCURVE",
"950 569.5 CURVE SMOOTH",
"990 612.5 OFFCURVE",
"1010 674 OFFCURVE",
"1010 754 CURVE SMOOTH",
"1010 859.333 OFFCURVE",
"975.167 938.833 OFFCURVE",
"905.5 992.5 CURVE SMOOTH",
"835.833 1046.167 OFFCURVE",
"748.333 1073 OFFCURVE",
"643 1073 CURVE SMOOTH"
);
},
{
closed = 1;
nodes = (
"661.333 903 OFFCURVE",
"710 890.167 OFFCURVE",
"746 864.5 CURVE SMOOTH",
"782 838.833 OFFCURVE",
"800 803.333 OFFCURVE",
"800 758 CURVE SMOOTH",
"800 704.667 OFFCURVE",
"777.833 666 OFFCURVE",
"733.5 642 CURVE SMOOTH",
"689.167 618 OFFCURVE",
"638.333 601.667 OFFCURVE",
"581 593 CURVE SMOOTH",
"524.333 585 OFFCURVE",
"471.5 576.5 OFFCURVE",
"422.5 567.5 CURVE SMOOTH",
"373.5 558.5 OFFCURVE",
"341.667 548.333 OFFCURVE",
"327 537 CURVE",
"327 661 LINE SMOOTH",
"327 725.667 OFFCURVE",
"349.167 782.167 OFFCURVE",
"393.5 830.5 CURVE SMOOTH",
"437.833 878.833 OFFCURVE",
"506.667 903 OFFCURVE",
"600 903 CURVE SMOOTH"
);
}
);
userData = {
assembly = "MPPEM[ ]	/* MeasurePixelPerEm */\012PUSHB[ ]	/* 1 value pushed */\01230 \012LT[ ]	/* LessThan */\012IF[ ]	/* If */\012NPUSHB[ ]	/* 10 values pushed */\01228 1 5 0 36 1 2 5 2 76 \012ELSE[ ]	/* Else */\012NPUSHB[ ]	/* 10 values pushed */\01228 1 5 4 36 1 2 5 2 76 \012EIF[ ]	/* EndIf */\012MPPEM[ ]	/* MeasurePixelPerEm */\012PUSHB[ ]	/* 1 value pushed */\01230 \012LT[ ]	/* LessThan */\012IF[ ]	/* If */\012NPUSHB[ ]	/* 32 values pushed */\0120 2 5 1 5 2 1 128 7 1 5 5 0 97 4 6 2 0 0 112 77 0 1 1 3 97 0 3 3 110 3 78 \012ELSE[ ]	/* Else */\012NPUSHB[ ]	/* 36 values pushed */\0120 2 5 1 5 2 1 128 0 4 4 106 77 7 1 5 5 0 97 6 1 0 0 112 77 0 1 1 3 97 0 3 3 110 3 78 \012EIF[ ]	/* EndIf */\012NPUSHB[ ]	/* 23 values pushed */\01233 32 1 0 32 44 33 44 27 26 23 21 19 18 16 14 0 31 1 31 8 12 22 \012CALL[ ]	/* CallFunction */";
};
width = 1084;
}
);
leftKerningGroup = aturned;
note = aturn;
rightKerningGroup = aturned;
unicode = 0250;
},
{
glyphname = ae;
lastChange = "2024-07-06 18:41:23 +0000";
layers = (
{
layerId = "4A7900B8-4B55-405E-9DE7-28127A08AA09";
paths = (
{
closed = 1;
nodes = (
"556 -15 OFFCURVE",
"633.167 0.167 OFFCURVE",
"699.5 30.5 CURVE SMOOTH",
"765.833 60.833 OFFCURVE",
"817.333 110 OFFCURVE",
"854 178 CURVE",
"894.667 115.333 OFFCURVE",
"948.5 66 OFFCURVE",
"1015.5 30 CURVE SMOOTH",
"1082.5 -6 OFFCURVE",
"1160.333 -24 OFFCURVE",
"1249 -24 CURVE SMOOTH",
"1328.333 -24 OFFCURVE",
"1400.833 -9.5 OFFCURVE",
"1466.5 19.5 CURVE SMOOTH",
"1532.167 48.5 OFFCURVE",
"1586.667 89 OFFCURVE",
"1630 141 CURVE SMOOTH",
"1652 167 OFFCURVE",
"1670 195 OFFCURVE",
"1684 226 CURVE SMOOTH",
"1710 281 OFFCURVE",
"1672 321 OFFCURVE",
"1607 321 CURVE SMOOTH",
"1542 321 OFFCURVE",
"1510 290 OFFCURVE",
"1466 239 CURVE SMOOTH",
"1454 224 OFFCURVE",
"1439 211 OFFCURVE",
"1422 199 CURVE SMOOTH",
"1377.333 167.667 OFFCURVE",
"1320.667 152 OFFCURVE",
"1252 152 CURVE SMOOTH",
"1159.333 152 OFFCURVE",
"1087.333 181.333 OFFCURVE",
"1036 240 CURVE SMOOTH",
"984.667 298.667 OFFCURVE",
"957.333 375.667 OFFCURVE",
"954 471 CURVE",
"1613 471 LINE SMOOTH",
"1689 471 OFFCURVE",
"1731 491 OFFCURVE",
"1731 528 CURVE SMOOTH",
"1731 636.667 OFFCURVE",
"1710.667 732.5 OFFCURVE",
"1670 815.5 CURVE SMOOTH",
"1629.333 898.5 OFFCURVE",
"1572 963.333 OFFCURVE",
"1498 1010 CURVE SMOOTH",
"1424 1056.667 OFFCURVE",
"1337 1080 OFFCURVE",
"1237 1080 CURVE SMOOTH",
"1163 1080 OFFCURVE",
"1095.833 1064.833 OFFCURVE",
"1035.5 1034.5 CURVE SMOOTH",
"975.167 1004.167 OFFCURVE",
"924 962.333 OFFCURVE",
"882 909 CURVE",
"852.667 961.667 OFFCURVE",
"809.333 1002.833 OFFCURVE",
"752 1032.5 CURVE SMOOTH",
"694.667 1062.167 OFFCURVE",
"624.333 1077 OFFCURVE",
"541 1077 CURVE SMOOTH",
"454.333 1077 OFFCURVE",
"378.5 1061.833 OFFCURVE",
"313.5 1031.5 CURVE SMOOTH",
"248.5 1001.167 OFFCURVE",
"197.667 960.167 OFFCURVE",
"161 908.5 CURVE SMOOTH",
"143 883 OFFCURVE",
"128 855 OFFCURVE",
"118 826 CURVE SMOOTH",
"99 770 OFFCURVE",
"143 734 OFFCURVE",
"210 734 CURVE SMOOTH",
"277 734 OFFCURVE",
"301 769 OFFCURVE",
"344 823 CURVE SMOOTH",
"353 835 OFFCURVE",
"365 845 OFFCURVE",
"378 855.5 CURVE SMOOTH",
"420.667 887.833 OFFCURVE",
"475.667 904 OFFCURVE",
"543 904 CURVE SMOOTH",
"610.333 904 OFFCURVE",
"662.667 887.5 OFFCURVE",
"700 854.5 CURVE SMOOTH",
"737.333 821.5 OFFCURVE",
"756 779.333 OFFCURVE",
"756 728 CURVE SMOOTH",
"756 631 LINE",
"582 631 LINE SMOOTH",
"425.333 631 OFFCURVE",
"301.667 602.833 OFFCURVE",
"211 546.5 CURVE SMOOTH",
"120.333 490.167 OFFCURVE",
"75 408.667 OFFCURVE",
"75 302 CURVE SMOOTH",
"75 207.333 OFFCURVE",
"109.5 130.833 OFFCURVE",
"178.5 72.5 CURVE SMOOTH",
"247.5 14.167 OFFCURVE",
"344 -15 OFFCURVE",
"468 -15 CURVE SMOOTH"
);
},
{
closed = 1;
nodes = (
"756 471 LINE",
"756 395 LINE SMOOTH",
"756 330.333 OFFCURVE",
"734 274.167 OFFCURVE",
"690 226.5 CURVE SMOOTH",
"646 178.833 OFFCURVE",
"577.333 155 OFFCURVE",
"484 155 CURVE SMOOTH",
"422.667 155 OFFCURVE",
"374.167 167.333 OFFCURVE",
"338.5 192 CURVE SMOOTH",
"302.833 216.667 OFFCURVE",
"285 254.333 OFFCURVE",
"285 305 CURVE SMOOTH",
"285 358.333 OFFCURVE",
"309.167 399.333 OFFCURVE",
"357.5 428 CURVE SMOOTH",
"405.833 456.667 OFFCURVE",
"475.667 471 OFFCURVE",
"567 471 CURVE SMOOTH"
);
},
{
closed = 1;
nodes = (
"964.667 715 OFFCURVE",
"994.167 781.5 OFFCURVE",
"1044.5 830.5 CURVE SMOOTH",
"1094.833 879.5 OFFCURVE",
"1159.667 904 OFFCURVE",
"1239 904 CURVE SMOOTH",
"1319 904 OFFCURVE",
"1384.333 879.5 OFFCURVE",
"1435 830.5 CURVE SMOOTH",
"1485.667 781.5 OFFCURVE",
"1515.333 715 OFFCURVE",
"1524 631 CURVE",
"956 631 LINE"
);
}
);
userData = {
assembly = "NPUSHB[ ]	/* 97 values pushed */\01222 1 2 4 45 1 7 8 2 76 0 3 2 1 2 3 1 128 0 8 6 7 6 8 7 128 12 1 1 10 1 6 8 1 6 103 13 1 2 2 4 97 5 1 4 4 112 77 11 1 7 7 0 97 9 14 2 0 0 110 0 78 1 0 64 62 60 59 56 54 50 48 43 41 38 37 35 33 31 30 26 24 20 18 15 14 12 10 7 5 0 47 1 47 15 12 22 \012CALL[ ]	/* CallFunction */";
};
width = 1794;
}
);
leftKerningGroup = a;
note = ae;
rightKerningGroup = aturned;
unicode = 00E6;
},
{
glyphname = b;
lastChange = "2024-07-06 18:41:23 +0000";
layers = (
{
layerId = "4A7900B8-4B55-405E-9DE7-28127A08AA09";
paths = (
{
closed = 1;
nodes = (
"747 -21 OFFCURVE",
"827.333 2.167 OFFCURVE",
"896 48.5 CURVE SMOOTH",
"964.667 94.833 OFFCURVE",
"1018 159.167 OFFCURVE",
"1056 241.5 CURVE SMOOTH",
"1094 323.833 OFFCURVE",
"1113 419.333 OFFCURVE",
"1113 528 CURVE SMOOTH",
"1113 636.667 OFFCURVE",
"1093.833 732.167 OFFCURVE",
"1055.5 814.5 CURVE SMOOTH",
"1017.167 896.833 OFFCURVE",
"963.667 961.167 OFFCURVE",
"895 1007.5 CURVE SMOOTH",
"826.333 1053.833 OFFCURVE",
"746.667 1077 OFFCURVE",
"656 1077 CURVE SMOOTH",
"587.333 1077 OFFCURVE",
"524.667 1062.667 OFFCURVE",
"468 1034 CURVE SMOOTH",
"411.333 1005.333 OFFCURVE",
"366 961.667 OFFCURVE",
"332 903 CURVE",
"330 903 LINE",
"330 1372 LINE SMOOTH",
"330 1448 OFFCURVE",
"293 1490 OFFCURVE",
"225 1490 CURVE SMOOTH",
"157 1490 OFFCURVE",
"119 1448 OFFCURVE",
"119 1372 CURVE SMOOTH",
"119 118 LINE SMOOTH",
"119 42 OFFCURVE",
"156 0 OFFCURVE",
"223 0 CURVE SMOOTH",
"290 0 OFFCURVE",
"326 42 OFFCURVE",
"326 118 CURVE SMOOTH",
"326 161 LINE",
"328 161 LINE",
"363.333 99.667 OFFCURVE",
"409.5 54 OFFCURVE",
"466.5 24 CURVE SMOOTH",
"523.5 -6 OFFCURVE",
"586.333 -21 OFFCURVE",
"655 -21 CURVE SMOOTH"
);
},
{
closed = 1;
nodes = (
"522 161 OFFCURVE",
"450.167 194.5 OFFCURVE",
"396.5 261.5 CURVE SMOOTH",
"342.833 328.5 OFFCURVE",
"316 417.333 OFFCURVE",
"316 528 CURVE SMOOTH",
"316 639.333 OFFCURVE",
"342.833 728.5 OFFCURVE",
"396.5 795.5 CURVE SMOOTH",
"450.167 862.5 OFFCURVE",
"522 896 OFFCURVE",
"612 896 CURVE SMOOTH",
"697.333 896 OFFCURVE",
"766.5 864.5 OFFCURVE",
"819.5 801.5 CURVE SMOOTH",
"872.5 738.5 OFFCURVE",
"899 647.333 OFFCURVE",
"899 528 CURVE SMOOTH",
"899 408.667 OFFCURVE",
"872.5 317.667 OFFCURVE",
"819.5 255 CURVE SMOOTH",
"766.5 192.333 OFFCURVE",
"697.333 161 OFFCURVE",
"612 161 CURVE SMOOTH"
);
}
);
userData = {
assembly = "NPUSHB[ ]	/* 11 values pushed */\0129 1 5 3 1 76 3 1 4 1 75 \012MPPEM[ ]	/* MeasurePixelPerEm */\012PUSHB[ ]	/* 1 value pushed */\01224 \012LT[ ]	/* LessThan */\012IF[ ]	/* If */\012NPUSHB[ ]	/* 29 values pushed */\0120 2 2 103 77 0 5 5 3 97 0 3 3 112 77 7 1 4 4 0 97 1 6 2 0 0 110 0 78 \012ELSE[ ]	/* Else */\012NPUSHB[ ]	/* 33 values pushed */\0120 2 2 103 77 0 5 5 3 97 0 3 3 112 77 0 1 1 104 77 7 1 4 4 0 97 6 1 0 0 110 0 78 \012EIF[ ]	/* EndIf */\012NPUSHB[ ]	/* 23 values pushed */\01222 21 1 0 28 26 21 32 22 32 14 12 8 7 6 5 0 20 1 20 8 12 22 \012CALL[ ]	/* CallFunction */";
};
width = 1180;
}
);
leftKerningGroup = B;
note = b;
rightKerningGroup = b;
unicode = 0062;
},
